%TF.GenerationSoftware,KiCad,Pcbnew,(6.0.4)*%
%TF.CreationDate,2023-03-28T21:24:44-04:00*%
%TF.ProjectId,PD_HV,50445f48-562e-46b6-9963-61645f706362,rev?*%
%TF.SameCoordinates,Original*%
%TF.FileFunction,Soldermask,Bot*%
%TF.FilePolarity,Negative*%
%FSLAX46Y46*%
G04 Gerber Fmt 4.6, Leading zero omitted, Abs format (unit mm)*
G04 Created by KiCad (PCBNEW (6.0.4)) date 2023-03-28 21:24:44*
%MOMM*%
%LPD*%
G01*
G04 APERTURE LIST*
%TA.AperFunction,Profile*%
%ADD10C,0.100000*%
%TD*%
%ADD11R,1.700000X1.700000*%
%ADD12O,1.700000X1.700000*%
%ADD13C,3.200000*%
%ADD14R,2.000000X2.000000*%
%ADD15C,2.000000*%
%ADD16R,2.775000X2.775000*%
%ADD17C,2.775000*%
%ADD18C,2.090000*%
%ADD19R,1.478000X1.478000*%
%ADD20C,1.478000*%
%ADD21O,0.600000X0.850000*%
%ADD22C,0.600000*%
%ADD23O,2.600000X1.300000*%
%ADD24O,2.300000X1.300000*%
G04 APERTURE END LIST*
D10*
X75000000Y-129000000D02*
X83000000Y-129000000D01*
X84000000Y-135000000D02*
G75*
G03*
X85000000Y-136000000I1000000J0D01*
G01*
X165000000Y-129000000D02*
G75*
G03*
X164000000Y-130000000I0J-1000000D01*
G01*
X164000000Y-43000000D02*
X164000000Y-38000000D01*
X76000000Y-44000000D02*
G75*
G03*
X74000000Y-46000000I0J-2000000D01*
G01*
X164000000Y-135000000D02*
X164000000Y-130000000D01*
X82000000Y-44000000D02*
G75*
G03*
X84000000Y-42000000I0J2000000D01*
G01*
X84000000Y-130000000D02*
G75*
G03*
X83000000Y-129000000I-1000000J0D01*
G01*
X164000000Y-43000000D02*
G75*
G03*
X165000000Y-44000000I1000000J0D01*
G01*
X163000000Y-37000000D02*
X86000000Y-37000000D01*
X84000000Y-130000000D02*
X84000000Y-135000000D01*
X173000000Y-44000000D02*
X165000000Y-44000000D01*
X86000000Y-37000000D02*
G75*
G03*
X84000000Y-39000000I0J-2000000D01*
G01*
X163000000Y-136000000D02*
G75*
G03*
X164000000Y-135000000I0J1000000D01*
G01*
X173000000Y-129000000D02*
G75*
G03*
X174000000Y-128000000I0J1000000D01*
G01*
X174000000Y-128000000D02*
X174000000Y-45000000D01*
X84000000Y-39000000D02*
X84000000Y-42000000D01*
X85000000Y-136000000D02*
X163000000Y-136000000D01*
X82000000Y-44000000D02*
X76000000Y-44000000D01*
X74000000Y-128000000D02*
G75*
G03*
X75000000Y-129000000I1000000J0D01*
G01*
X174000000Y-45000000D02*
G75*
G03*
X173000000Y-44000000I-1000000J0D01*
G01*
X74000000Y-46000000D02*
X74000000Y-128000000D01*
X165000000Y-129000000D02*
X173000000Y-129000000D01*
X164000000Y-38000000D02*
G75*
G03*
X163000000Y-37000000I-1000000J0D01*
G01*
D11*
%TO.C,J4*%
X118750000Y-79200000D03*
D12*
X118750000Y-81740000D03*
X118750000Y-84280000D03*
X118750000Y-86820000D03*
%TD*%
D13*
%TO.C,H4*%
X88000000Y-132000000D03*
%TD*%
D14*
%TO.C,C6*%
X156000000Y-69367677D03*
D15*
X156000000Y-64367677D03*
%TD*%
D14*
%TO.C,C35*%
X167000000Y-69367677D03*
D15*
X167000000Y-64367677D03*
%TD*%
D16*
%TO.C,SW5*%
X159000000Y-116720000D03*
D17*
X159000000Y-121420000D03*
X159000000Y-126120000D03*
X171700000Y-118880000D03*
X171700000Y-123960000D03*
%TD*%
D18*
%TO.C,J3*%
X166600000Y-47920000D03*
X166600000Y-58080000D03*
D19*
X161520000Y-53000000D03*
D20*
X161520000Y-50460000D03*
%TD*%
D21*
%TO.C,J1*%
X78950000Y-58000000D03*
D22*
X78950000Y-52000000D03*
D23*
X75850000Y-50680000D03*
D24*
X79675000Y-59320000D03*
D23*
X75850000Y-59320000D03*
D24*
X79675000Y-50680000D03*
%TD*%
D13*
%TO.C,H1*%
X88000000Y-41000000D03*
%TD*%
D21*
%TO.C,J2*%
X78950000Y-104400000D03*
D22*
X78950000Y-98400000D03*
D24*
X79675000Y-105720000D03*
D23*
X75850000Y-97080000D03*
D24*
X79675000Y-97080000D03*
D23*
X75850000Y-105720000D03*
%TD*%
D13*
%TO.C,H2*%
X160000000Y-41000000D03*
%TD*%
D16*
%TO.C,SW4*%
X159000000Y-97300000D03*
D17*
X159000000Y-102000000D03*
X159000000Y-106700000D03*
X171700000Y-99460000D03*
X171700000Y-104540000D03*
%TD*%
D13*
%TO.C,H3*%
X160000000Y-132000000D03*
%TD*%
M02*
