M48
; DRILL file {KiCad (6.0.4)} date Tue Mar 28 21:24:46 2023
; FORMAT={-:-/ absolute / inch / decimal}
; #@! TF.CreationDate,2023-03-28T21:24:46-04:00
; #@! TF.GenerationSoftware,Kicad,Pcbnew,(6.0.4)
; #@! TF.FileFunction,Plated,1,4,PTH
FMAT,2
INCH
; #@! TA.AperFunction,Plated,PTH,ViaDrill
T1C0.0157
; #@! TA.AperFunction,Plated,PTH,ComponentDrill
T2C0.0236
; #@! TA.AperFunction,Plated,PTH,ComponentDrill
T3C0.0382
; #@! TA.AperFunction,Plated,PTH,ComponentDrill
T4C0.0394
; #@! TA.AperFunction,Plated,PTH,ComponentDrill
T5C0.0728
%
G90
G05
T1
X2.9724Y-4.9311
X3.0413Y-2.6969
X3.1929Y-3.5768
X3.2087Y-2.0276
X3.2087Y-3.6969
X3.2087Y-3.878
X3.2087Y-4.0945
X3.2185Y-3.7598
X3.2185Y-4.1535
X3.2225Y-2.2874
X3.2283Y-2.6673
X3.2283Y-3.8189
X3.2849Y-2.1384
X3.2849Y-2.2612
X3.3157Y-2.0485
X3.3169Y-4.1339
X3.3553Y-3.749
X3.3553Y-3.8189
X3.3661Y-2.2047
X3.3661Y-3.8878
X3.375Y-2.1452
X3.376Y-3.6516
X3.3957Y-2.2441
X3.4055Y-4.9311
X3.435Y-4.0945
X3.439Y-3.6476
X3.4449Y-2.3425
X3.4449Y-2.6969
X3.5039Y-2.3819
X3.5236Y-4.9311
X3.5827Y-4.5472
X3.6024Y-2.2343
X3.6024Y-3.1594
X3.6516Y-4.626
X3.6516Y-4.6882
X3.7106Y-2.0965
X3.75Y-2.2244
X3.7598Y-1.9488
X3.7598Y-4.5472
X3.8051Y-4.1083
X3.8091Y-3.2283
X3.813Y-3.5098
X3.8189Y-4.3799
X3.8189Y-4.4193
X3.8287Y-2.1654
X3.8675Y-3.849
X3.8681Y-3.6516
X3.878Y-3.7402
X3.8976Y-2.0472
X3.8976Y-3.8878
X3.9014Y-4.1967
X3.9075Y-3.8386
X3.9567Y-2.2835
X3.9567Y-4.9311
X3.9665Y-3.7402
X3.9665Y-4.0551
X3.9665Y-4.0945
X4.0059Y-3.6909
X4.0157Y-3.7992
X4.0157Y-3.8484
X4.0157Y-3.8484
X4.0514Y-4.6026
X4.063Y-4.1339
X4.065Y-3.5827
X4.0748Y-2.5827
X4.0748Y-4.9311
X4.1071Y-4.311
X4.1099Y-4.2477
X4.124Y-4.0256
X4.1372Y-3.9228
X4.1437Y-2.1654
X4.1437Y-2.3524
X4.1535Y-3.7795
X4.1634Y-4.2421
X4.1654Y-4.189
X4.1929Y-3.8159
X4.2283Y-2.5835
X4.2323Y-4.3602
X4.252Y-3.7008
X4.2618Y-2.5197
X4.2815Y-4.2913
X4.2826Y-4.2312
X4.3155Y-4.2097
X4.3209Y-2.1752
X4.3209Y-2.3524
X4.368Y-3.6375
X4.3701Y-2.1752
X4.3701Y-2.3524
X4.3799Y-1.939
X4.3898Y-3.7049
X4.3898Y-4.3602
X4.4094Y-2.1555
X4.439Y-3.622
X4.439Y-3.6614
X4.439Y-3.8189
X4.439Y-4.252
X4.4488Y-4.6752
X4.4587Y-3.2185
X4.4587Y-3.4154
X4.4685Y-1.7815
X4.4882Y-4.4291
X4.4891Y-2.0532
X4.4898Y-3.8638
X4.498Y-2.4016
X4.5079Y-4.9311
X4.5276Y-1.7815
X4.5276Y-3.9173
X4.5283Y-4.0937
X4.5294Y-3.9769
X4.5374Y-3.8622
X4.5659Y-2.1565
X4.5669Y-3.622
X4.5669Y-3.6614
X4.5669Y-3.7008
X4.5768Y-2.0472
X4.5768Y-2.0866
X4.5813Y-4.0211
X4.5866Y-2.4016
X4.6752Y-2.4016
X4.6949Y-3.9075
X4.6949Y-3.9665
X4.7638Y-2.1063
X4.7638Y-2.1457
X4.8031Y-2.1063
X4.8031Y-2.1457
X4.8228Y-2.2047
X4.8327Y-1.8996
X4.8622Y-2.1063
X5.0Y-4.0453
X5.0Y-4.1831
X5.2126Y-3.2559
X5.2126Y-3.3248
X5.3209Y-3.1969
X5.3209Y-3.502
X5.3701Y-3.4331
X5.4429Y-3.0709
X5.8898Y-3.4331
X6.2402Y-2.874
X6.2402Y-2.9134
X6.2402Y-2.9528
X6.2989Y-2.9134
X6.2992Y-2.874
X6.2992Y-2.9528
X6.3228Y-3.5576
T3
X6.3591Y-1.9866
X6.3591Y-2.0866
T4
X4.6752Y-3.1181
X4.6752Y-3.2181
X4.6752Y-3.3181
X4.6752Y-3.4181
X6.1417Y-2.5342
X6.1417Y-2.731
X6.5748Y-2.5342
X6.5748Y-2.731
T5
X6.2598Y-3.8307
X6.2598Y-4.0157
X6.2598Y-4.2008
X6.2598Y-4.5953
X6.2598Y-4.7803
X6.2598Y-4.9654
X6.7598Y-3.9157
X6.7598Y-4.1157
X6.7598Y-4.6803
X6.7598Y-4.8803
T2
G00X3.0118Y-1.9953
M15
G01X2.9606Y-1.9953
M16
G05
G00X3.0118Y-2.3354
M15
G01X2.9606Y-2.3354
M16
G05
G00X3.0118Y-3.822
M15
G01X2.9606Y-3.822
M16
G05
G00X3.0118Y-4.1622
M15
G01X2.9606Y-4.1622
M16
G05
G00X3.1565Y-1.9953
M15
G01X3.1171Y-1.9953
M16
G05
G00X3.1565Y-2.3354
M15
G01X3.1171Y-2.3354
M16
G05
G00X3.1565Y-3.822
M15
G01X3.1171Y-3.822
M16
G05
G00X3.1565Y-4.1622
M15
G01X3.1171Y-4.1622
M16
G05
T0
M30
