%TF.GenerationSoftware,KiCad,Pcbnew,(6.0.4)*%
%TF.CreationDate,2023-03-28T21:24:44-04:00*%
%TF.ProjectId,PD_HV,50445f48-562e-46b6-9963-61645f706362,rev?*%
%TF.SameCoordinates,Original*%
%TF.FileFunction,Paste,Bot*%
%TF.FilePolarity,Positive*%
%FSLAX46Y46*%
G04 Gerber Fmt 4.6, Leading zero omitted, Abs format (unit mm)*
G04 Created by KiCad (PCBNEW (6.0.4)) date 2023-03-28 21:24:44*
%MOMM*%
%LPD*%
G01*
G04 APERTURE LIST*
%TA.AperFunction,Profile*%
%ADD10C,0.100000*%
%TD*%
G04 APERTURE END LIST*
D10*
X75000000Y-129000000D02*
X83000000Y-129000000D01*
X84000000Y-135000000D02*
G75*
G03*
X85000000Y-136000000I1000000J0D01*
G01*
X165000000Y-129000000D02*
G75*
G03*
X164000000Y-130000000I0J-1000000D01*
G01*
X164000000Y-43000000D02*
X164000000Y-38000000D01*
X76000000Y-44000000D02*
G75*
G03*
X74000000Y-46000000I0J-2000000D01*
G01*
X164000000Y-135000000D02*
X164000000Y-130000000D01*
X82000000Y-44000000D02*
G75*
G03*
X84000000Y-42000000I0J2000000D01*
G01*
X84000000Y-130000000D02*
G75*
G03*
X83000000Y-129000000I-1000000J0D01*
G01*
X164000000Y-43000000D02*
G75*
G03*
X165000000Y-44000000I1000000J0D01*
G01*
X163000000Y-37000000D02*
X86000000Y-37000000D01*
X84000000Y-130000000D02*
X84000000Y-135000000D01*
X173000000Y-44000000D02*
X165000000Y-44000000D01*
X86000000Y-37000000D02*
G75*
G03*
X84000000Y-39000000I0J-2000000D01*
G01*
X163000000Y-136000000D02*
G75*
G03*
X164000000Y-135000000I0J1000000D01*
G01*
X173000000Y-129000000D02*
G75*
G03*
X174000000Y-128000000I0J1000000D01*
G01*
X174000000Y-128000000D02*
X174000000Y-45000000D01*
X84000000Y-39000000D02*
X84000000Y-42000000D01*
X85000000Y-136000000D02*
X163000000Y-136000000D01*
X82000000Y-44000000D02*
X76000000Y-44000000D01*
X74000000Y-128000000D02*
G75*
G03*
X75000000Y-129000000I1000000J0D01*
G01*
X174000000Y-45000000D02*
G75*
G03*
X173000000Y-44000000I-1000000J0D01*
G01*
X74000000Y-46000000D02*
X74000000Y-128000000D01*
X165000000Y-129000000D02*
X173000000Y-129000000D01*
X164000000Y-38000000D02*
G75*
G03*
X163000000Y-37000000I-1000000J0D01*
G01*
M02*
