%TF.GenerationSoftware,KiCad,Pcbnew,(6.0.4)*%
%TF.CreationDate,2023-03-28T21:24:44-04:00*%
%TF.ProjectId,PD_HV,50445f48-562e-46b6-9963-61645f706362,rev?*%
%TF.SameCoordinates,Original*%
%TF.FileFunction,Paste,Top*%
%TF.FilePolarity,Positive*%
%FSLAX46Y46*%
G04 Gerber Fmt 4.6, Leading zero omitted, Abs format (unit mm)*
G04 Created by KiCad (PCBNEW (6.0.4)) date 2023-03-28 21:24:44*
%MOMM*%
%LPD*%
G01*
G04 APERTURE LIST*
G04 Aperture macros list*
%AMRoundRect*
0 Rectangle with rounded corners*
0 $1 Rounding radius*
0 $2 $3 $4 $5 $6 $7 $8 $9 X,Y pos of 4 corners*
0 Add a 4 corners polygon primitive as box body*
4,1,4,$2,$3,$4,$5,$6,$7,$8,$9,$2,$3,0*
0 Add four circle primitives for the rounded corners*
1,1,$1+$1,$2,$3*
1,1,$1+$1,$4,$5*
1,1,$1+$1,$6,$7*
1,1,$1+$1,$8,$9*
0 Add four rect primitives between the rounded corners*
20,1,$1+$1,$2,$3,$4,$5,0*
20,1,$1+$1,$4,$5,$6,$7,0*
20,1,$1+$1,$6,$7,$8,$9,0*
20,1,$1+$1,$8,$9,$2,$3,0*%
G04 Aperture macros list end*
%TA.AperFunction,Profile*%
%ADD10C,0.100000*%
%TD*%
%ADD11C,0.100000*%
%ADD12C,0.010000*%
%ADD13RoundRect,0.200000X0.275000X-0.200000X0.275000X0.200000X-0.275000X0.200000X-0.275000X-0.200000X0*%
%ADD14RoundRect,0.200000X-0.275000X0.200000X-0.275000X-0.200000X0.275000X-0.200000X0.275000X0.200000X0*%
%ADD15RoundRect,0.225000X0.225000X0.250000X-0.225000X0.250000X-0.225000X-0.250000X0.225000X-0.250000X0*%
%ADD16R,3.420000X1.060000*%
%ADD17RoundRect,0.225000X-0.250000X0.225000X-0.250000X-0.225000X0.250000X-0.225000X0.250000X0.225000X0*%
%ADD18RoundRect,0.200000X-0.200000X-0.275000X0.200000X-0.275000X0.200000X0.275000X-0.200000X0.275000X0*%
%ADD19RoundRect,0.150000X-0.150000X0.587500X-0.150000X-0.587500X0.150000X-0.587500X0.150000X0.587500X0*%
%ADD20RoundRect,0.150000X0.150000X-0.650000X0.150000X0.650000X-0.150000X0.650000X-0.150000X-0.650000X0*%
%ADD21RoundRect,0.200000X0.200000X0.275000X-0.200000X0.275000X-0.200000X-0.275000X0.200000X-0.275000X0*%
%ADD22RoundRect,0.225000X0.250000X-0.225000X0.250000X0.225000X-0.250000X0.225000X-0.250000X-0.225000X0*%
%ADD23R,0.812800X0.304800*%
%ADD24RoundRect,0.150000X-0.875000X-0.150000X0.875000X-0.150000X0.875000X0.150000X-0.875000X0.150000X0*%
%ADD25R,1.550000X1.300000*%
%ADD26RoundRect,0.225000X-0.225000X-0.250000X0.225000X-0.250000X0.225000X0.250000X-0.225000X0.250000X0*%
%ADD27RoundRect,0.250000X-0.475000X0.250000X-0.475000X-0.250000X0.475000X-0.250000X0.475000X0.250000X0*%
%ADD28RoundRect,0.006000X0.094000X-0.414000X0.094000X0.414000X-0.094000X0.414000X-0.094000X-0.414000X0*%
%ADD29RoundRect,0.020000X0.400000X-0.080000X0.400000X0.080000X-0.400000X0.080000X-0.400000X-0.080000X0*%
%ADD30RoundRect,0.150000X-0.512500X-0.150000X0.512500X-0.150000X0.512500X0.150000X-0.512500X0.150000X0*%
%ADD31R,0.300000X1.400000*%
%ADD32RoundRect,0.150000X0.875000X0.150000X-0.875000X0.150000X-0.875000X-0.150000X0.875000X-0.150000X0*%
%ADD33RoundRect,0.250000X-0.250000X-0.475000X0.250000X-0.475000X0.250000X0.475000X-0.250000X0.475000X0*%
%ADD34R,0.304800X0.812800*%
%ADD35R,1.270000X3.300000*%
%ADD36R,2.000000X1.000000*%
%ADD37R,1.000000X0.520000*%
%ADD38R,1.000000X0.270000*%
%ADD39R,2.500000X1.800000*%
%ADD40RoundRect,0.625000X-0.625000X-0.625000X0.625000X-0.625000X0.625000X0.625000X-0.625000X0.625000X0*%
%ADD41RoundRect,0.100000X0.637500X0.100000X-0.637500X0.100000X-0.637500X-0.100000X0.637500X-0.100000X0*%
%ADD42RoundRect,0.525000X0.525000X-2.275000X0.525000X2.275000X-0.525000X2.275000X-0.525000X-2.275000X0*%
G04 APERTURE END LIST*
D10*
X75000000Y-129000000D02*
X83000000Y-129000000D01*
X84000000Y-135000000D02*
G75*
G03*
X85000000Y-136000000I1000000J0D01*
G01*
X165000000Y-129000000D02*
G75*
G03*
X164000000Y-130000000I0J-1000000D01*
G01*
X164000000Y-43000000D02*
X164000000Y-38000000D01*
X76000000Y-44000000D02*
G75*
G03*
X74000000Y-46000000I0J-2000000D01*
G01*
X164000000Y-135000000D02*
X164000000Y-130000000D01*
X82000000Y-44000000D02*
G75*
G03*
X84000000Y-42000000I0J2000000D01*
G01*
X84000000Y-130000000D02*
G75*
G03*
X83000000Y-129000000I-1000000J0D01*
G01*
X164000000Y-43000000D02*
G75*
G03*
X165000000Y-44000000I1000000J0D01*
G01*
X163000000Y-37000000D02*
X86000000Y-37000000D01*
X84000000Y-130000000D02*
X84000000Y-135000000D01*
X173000000Y-44000000D02*
X165000000Y-44000000D01*
X86000000Y-37000000D02*
G75*
G03*
X84000000Y-39000000I0J-2000000D01*
G01*
X163000000Y-136000000D02*
G75*
G03*
X164000000Y-135000000I0J1000000D01*
G01*
X173000000Y-129000000D02*
G75*
G03*
X174000000Y-128000000I0J1000000D01*
G01*
X174000000Y-128000000D02*
X174000000Y-45000000D01*
X84000000Y-39000000D02*
X84000000Y-42000000D01*
X85000000Y-136000000D02*
X163000000Y-136000000D01*
X82000000Y-44000000D02*
X76000000Y-44000000D01*
X74000000Y-128000000D02*
G75*
G03*
X75000000Y-129000000I1000000J0D01*
G01*
X174000000Y-45000000D02*
G75*
G03*
X173000000Y-44000000I-1000000J0D01*
G01*
X74000000Y-46000000D02*
X74000000Y-128000000D01*
X165000000Y-129000000D02*
X173000000Y-129000000D01*
X164000000Y-38000000D02*
G75*
G03*
X163000000Y-37000000I-1000000J0D01*
G01*
%TO.C,Q1*%
G36*
X126320800Y-51969200D02*
G01*
X124263400Y-51969200D01*
X124263400Y-49530800D01*
X126320800Y-49530800D01*
X126320800Y-51969200D01*
G37*
D11*
X126320800Y-51969200D02*
X124263400Y-51969200D01*
X124263400Y-49530800D01*
X126320800Y-49530800D01*
X126320800Y-51969200D01*
%TO.C,U5*%
G36*
X111480000Y-103130000D02*
G01*
X109520000Y-103130000D01*
X109520000Y-101170000D01*
X111480000Y-101170000D01*
X111480000Y-103130000D01*
G37*
D12*
X111480000Y-103130000D02*
X109520000Y-103130000D01*
X109520000Y-101170000D01*
X111480000Y-101170000D01*
X111480000Y-103130000D01*
%TO.C,Q2*%
G36*
X94444200Y-60320800D02*
G01*
X92005800Y-60320800D01*
X92005800Y-58263400D01*
X94444200Y-58263400D01*
X94444200Y-60320800D01*
G37*
D11*
X94444200Y-60320800D02*
X92005800Y-60320800D01*
X92005800Y-58263400D01*
X94444200Y-58263400D01*
X94444200Y-60320800D01*
%TD*%
D13*
%TO.C,R25*%
X113250000Y-84825000D03*
X113250000Y-83175000D03*
%TD*%
%TO.C,R24*%
X116000000Y-86825000D03*
X116000000Y-85175000D03*
%TD*%
D14*
%TO.C,R12*%
X113150000Y-53175000D03*
X113150000Y-54825000D03*
%TD*%
D15*
%TO.C,C30*%
X84275000Y-93900000D03*
X82725000Y-93900000D03*
%TD*%
D16*
%TO.C,R22*%
X160600000Y-84668000D03*
X160600000Y-83212000D03*
%TD*%
D15*
%TO.C,C22*%
X103525000Y-103750000D03*
X101975000Y-103750000D03*
%TD*%
D17*
%TO.C,C12*%
X107500000Y-107975000D03*
X107500000Y-109525000D03*
%TD*%
D18*
%TO.C,R20*%
X151775000Y-81200000D03*
X153425000Y-81200000D03*
%TD*%
D19*
%TO.C,Q3*%
X99175000Y-58062500D03*
X97275000Y-58062500D03*
X98225000Y-59937500D03*
%TD*%
D15*
%TO.C,C18*%
X104775000Y-97750000D03*
X103225000Y-97750000D03*
%TD*%
D18*
%TO.C,R17*%
X84975000Y-118400000D03*
X86625000Y-118400000D03*
%TD*%
%TO.C,R4*%
X82675000Y-100215000D03*
X84325000Y-100215000D03*
%TD*%
D20*
%TO.C,U6*%
X99095000Y-115500000D03*
X100365000Y-115500000D03*
X101635000Y-115500000D03*
X102905000Y-115500000D03*
X102905000Y-108300000D03*
X101635000Y-108300000D03*
X100365000Y-108300000D03*
X99095000Y-108300000D03*
%TD*%
D21*
%TO.C,R16*%
X118075000Y-103500000D03*
X116425000Y-103500000D03*
%TD*%
D22*
%TO.C,C15*%
X108000000Y-96925000D03*
X108000000Y-95375000D03*
%TD*%
D23*
%TO.C,Q1*%
X123450600Y-49775001D03*
X123450600Y-50424999D03*
X123450600Y-51075001D03*
X123450600Y-51724999D03*
X126549400Y-51724999D03*
X126549400Y-51075001D03*
X126549400Y-50424999D03*
X126549400Y-49775001D03*
%TD*%
D15*
%TO.C,C23*%
X103975000Y-99250000D03*
X102425000Y-99250000D03*
%TD*%
D24*
%TO.C,U1*%
X87350000Y-93955000D03*
X87350000Y-95225000D03*
X87350000Y-96495000D03*
X87350000Y-97765000D03*
X87350000Y-99035000D03*
X87350000Y-100305000D03*
X87350000Y-101575000D03*
X87350000Y-102845000D03*
X96650000Y-102845000D03*
X96650000Y-101575000D03*
X96650000Y-100305000D03*
X96650000Y-99035000D03*
X96650000Y-97765000D03*
X96650000Y-96495000D03*
X96650000Y-95225000D03*
X96650000Y-93955000D03*
%TD*%
D25*
%TO.C,SW2*%
X84980000Y-120750000D03*
X77020000Y-120750000D03*
X77020000Y-125250000D03*
X84980000Y-125250000D03*
%TD*%
D26*
%TO.C,C16*%
X99225000Y-93750000D03*
X100775000Y-93750000D03*
%TD*%
D17*
%TO.C,C19*%
X111500000Y-107975000D03*
X111500000Y-109525000D03*
%TD*%
D27*
%TO.C,C3*%
X116500000Y-58050000D03*
X116500000Y-59950000D03*
%TD*%
D26*
%TO.C,C1*%
X119725000Y-56000000D03*
X121275000Y-56000000D03*
%TD*%
D17*
%TO.C,C34*%
X111250000Y-46475000D03*
X111250000Y-48025000D03*
%TD*%
D13*
%TO.C,R14*%
X120250000Y-47825000D03*
X120250000Y-46175000D03*
%TD*%
D28*
%TO.C,U5*%
X107900000Y-105585000D03*
X108300000Y-105585000D03*
X108700000Y-105585000D03*
X109100000Y-105585000D03*
X109500000Y-105585000D03*
X109900000Y-105585000D03*
X110300000Y-105585000D03*
X110700000Y-105585000D03*
X111100000Y-105585000D03*
X111500000Y-105585000D03*
X111900000Y-105585000D03*
X112300000Y-105585000D03*
X112700000Y-105585000D03*
X113100000Y-105585000D03*
D29*
X113935000Y-104750000D03*
X113935000Y-104350000D03*
X113935000Y-103950000D03*
X113935000Y-103550000D03*
X113935000Y-103150000D03*
X113935000Y-102750000D03*
X113935000Y-102350000D03*
X113935000Y-101950000D03*
X113935000Y-101550000D03*
X113935000Y-101150000D03*
X113935000Y-100750000D03*
X113935000Y-100350000D03*
X113935000Y-99950000D03*
X113935000Y-99550000D03*
D28*
X113100000Y-98715000D03*
X112700000Y-98715000D03*
X112300000Y-98715000D03*
X111900000Y-98715000D03*
X111500000Y-98715000D03*
X111100000Y-98715000D03*
X110700000Y-98715000D03*
X110300000Y-98715000D03*
X109900000Y-98715000D03*
X109500000Y-98715000D03*
X109100000Y-98715000D03*
X108700000Y-98715000D03*
X108300000Y-98715000D03*
X107900000Y-98715000D03*
D29*
X107065000Y-99550000D03*
X107065000Y-99950000D03*
X107065000Y-100350000D03*
X107065000Y-100750000D03*
X107065000Y-101150000D03*
X107065000Y-101550000D03*
X107065000Y-101950000D03*
X107065000Y-102350000D03*
X107065000Y-102750000D03*
X107065000Y-103150000D03*
X107065000Y-103550000D03*
X107065000Y-103950000D03*
X107065000Y-104350000D03*
X107065000Y-104750000D03*
%TD*%
D18*
%TO.C,R8*%
X82675000Y-53262500D03*
X84325000Y-53262500D03*
%TD*%
D30*
%TO.C,D1*%
X83862500Y-58550000D03*
X83862500Y-59500000D03*
X83862500Y-60450000D03*
X86137500Y-60450000D03*
X86137500Y-59500000D03*
X86137500Y-58550000D03*
%TD*%
D15*
%TO.C,C20*%
X103525000Y-102250000D03*
X101975000Y-102250000D03*
%TD*%
D18*
%TO.C,R2*%
X82675000Y-98250000D03*
X84325000Y-98250000D03*
%TD*%
D31*
%TO.C,U2*%
X117775000Y-54200000D03*
X118275000Y-54200000D03*
X118775000Y-54200000D03*
X119275000Y-54200000D03*
X119775000Y-54200000D03*
X119775000Y-49800000D03*
X119275000Y-49800000D03*
X118775000Y-49800000D03*
X118275000Y-49800000D03*
X117775000Y-49800000D03*
%TD*%
D22*
%TO.C,C27*%
X149800000Y-84975000D03*
X149800000Y-83425000D03*
%TD*%
D32*
%TO.C,U7*%
X147550000Y-88395000D03*
X147550000Y-87125000D03*
X147550000Y-85855000D03*
X147550000Y-84585000D03*
X147550000Y-83315000D03*
X147550000Y-82045000D03*
X147550000Y-80775000D03*
X147550000Y-79505000D03*
X138250000Y-79505000D03*
X138250000Y-80775000D03*
X138250000Y-82045000D03*
X138250000Y-83315000D03*
X138250000Y-84585000D03*
X138250000Y-85855000D03*
X138250000Y-87125000D03*
X138250000Y-88395000D03*
%TD*%
D18*
%TO.C,R1*%
X82675000Y-103900000D03*
X84325000Y-103900000D03*
%TD*%
D26*
%TO.C,C21*%
X116365000Y-99150000D03*
X117915000Y-99150000D03*
%TD*%
%TO.C,C32*%
X151825000Y-86800000D03*
X153375000Y-86800000D03*
%TD*%
D18*
%TO.C,R9*%
X82675000Y-56000000D03*
X84325000Y-56000000D03*
%TD*%
%TO.C,R5*%
X98925000Y-101900000D03*
X100575000Y-101900000D03*
%TD*%
D26*
%TO.C,C31*%
X99225000Y-96400000D03*
X100775000Y-96400000D03*
%TD*%
D33*
%TO.C,C9*%
X78800000Y-67750000D03*
X80700000Y-67750000D03*
%TD*%
D22*
%TO.C,C11*%
X127000000Y-109175000D03*
X127000000Y-107625000D03*
%TD*%
D18*
%TO.C,R6*%
X98925000Y-100000000D03*
X100575000Y-100000000D03*
%TD*%
D25*
%TO.C,SW3*%
X91020000Y-120750000D03*
X98980000Y-120750000D03*
X91020000Y-125250000D03*
X98980000Y-125250000D03*
%TD*%
D34*
%TO.C,Q2*%
X94199999Y-57450600D03*
X93550001Y-57450600D03*
X92899999Y-57450600D03*
X92250001Y-57450600D03*
X92250001Y-60549400D03*
X92899999Y-60549400D03*
X93550001Y-60549400D03*
X94199999Y-60549400D03*
%TD*%
D35*
%TO.C,L1*%
X146750000Y-46790000D03*
X143750000Y-46790000D03*
X140750000Y-46790000D03*
X137750000Y-46790000D03*
X134750000Y-46790000D03*
X131750000Y-46790000D03*
X131750000Y-73710000D03*
X134750000Y-73710000D03*
X137750000Y-73710000D03*
X140750000Y-73710000D03*
X143750000Y-73710000D03*
X146750000Y-73710000D03*
%TD*%
D17*
%TO.C,C2*%
X114750000Y-53225000D03*
X114750000Y-54775000D03*
%TD*%
D14*
%TO.C,R15*%
X121500000Y-49925000D03*
X121500000Y-51575000D03*
%TD*%
D36*
%TO.C,J1*%
X75850000Y-53600000D03*
X75850000Y-56400000D03*
D37*
X80050000Y-51900000D03*
X80050000Y-52650000D03*
D38*
X80050000Y-53250000D03*
X80050000Y-54750000D03*
X80050000Y-55750000D03*
X80050000Y-56750000D03*
D37*
X80050000Y-57350000D03*
X80050000Y-58100000D03*
X80050000Y-58100000D03*
X80050000Y-57350000D03*
D38*
X80050000Y-56250000D03*
X80050000Y-55250000D03*
X80050000Y-54250000D03*
X80050000Y-53750000D03*
D37*
X80050000Y-52650000D03*
X80050000Y-51900000D03*
%TD*%
D21*
%TO.C,R11*%
X106225000Y-65600000D03*
X104575000Y-65600000D03*
%TD*%
D26*
%TO.C,C29*%
X133650000Y-84450000D03*
X135200000Y-84450000D03*
%TD*%
D18*
%TO.C,R3*%
X82675000Y-101900000D03*
X84325000Y-101900000D03*
%TD*%
D25*
%TO.C,SW1*%
X112980000Y-120750000D03*
X105020000Y-120750000D03*
X105020000Y-125250000D03*
X112980000Y-125250000D03*
%TD*%
D15*
%TO.C,C33*%
X84275000Y-96000000D03*
X82725000Y-96000000D03*
%TD*%
D17*
%TO.C,C24*%
X97000000Y-108475000D03*
X97000000Y-110025000D03*
%TD*%
D39*
%TO.C,D2*%
X155750000Y-74000000D03*
X151750000Y-74000000D03*
%TD*%
D26*
%TO.C,C25*%
X151825000Y-82950000D03*
X153375000Y-82950000D03*
%TD*%
D14*
%TO.C,R18*%
X97000000Y-113575000D03*
X97000000Y-115225000D03*
%TD*%
D26*
%TO.C,C7*%
X94725000Y-55000000D03*
X96275000Y-55000000D03*
%TD*%
D16*
%TO.C,R19*%
X160600000Y-88728000D03*
X160600000Y-87272000D03*
%TD*%
D26*
%TO.C,C17*%
X116365000Y-101150000D03*
X117915000Y-101150000D03*
%TD*%
D40*
%TO.C,MOD1*%
X77000000Y-70750000D03*
X77000000Y-81250000D03*
X87500000Y-81250000D03*
X87500000Y-70750000D03*
%TD*%
D27*
%TO.C,C8*%
X89000000Y-57550000D03*
X89000000Y-59450000D03*
%TD*%
D18*
%TO.C,R7*%
X104575000Y-64000000D03*
X106225000Y-64000000D03*
%TD*%
D31*
%TO.C,U4*%
X115000000Y-46550000D03*
X114500000Y-46550000D03*
X114000000Y-46550000D03*
X113500000Y-46550000D03*
X113000000Y-46550000D03*
X113000000Y-50950000D03*
X113500000Y-50950000D03*
X114000000Y-50950000D03*
X114500000Y-50950000D03*
X115000000Y-50950000D03*
%TD*%
D13*
%TO.C,R13*%
X118500000Y-47825000D03*
X118500000Y-46175000D03*
%TD*%
D27*
%TO.C,C5*%
X118750000Y-58050000D03*
X118750000Y-59950000D03*
%TD*%
D22*
%TO.C,C10*%
X90250000Y-81775000D03*
X90250000Y-80225000D03*
%TD*%
D13*
%TO.C,R21*%
X135150000Y-87775000D03*
X135150000Y-86125000D03*
%TD*%
D17*
%TO.C,C14*%
X127000000Y-99825000D03*
X127000000Y-101375000D03*
%TD*%
D41*
%TO.C,U3*%
X92862500Y-55775000D03*
X92862500Y-55125000D03*
X92862500Y-54475000D03*
X92862500Y-53825000D03*
X92862500Y-53175000D03*
X92862500Y-52525000D03*
X92862500Y-51875000D03*
X92862500Y-51225000D03*
X87137500Y-51225000D03*
X87137500Y-51875000D03*
X87137500Y-52525000D03*
X87137500Y-53175000D03*
X87137500Y-53825000D03*
X87137500Y-54475000D03*
X87137500Y-55125000D03*
X87137500Y-55775000D03*
%TD*%
D36*
%TO.C,J2*%
X75850000Y-102800000D03*
X75850000Y-100000000D03*
D37*
X80050000Y-98300000D03*
X80050000Y-99050000D03*
D38*
X80050000Y-99650000D03*
X80050000Y-101150000D03*
X80050000Y-102150000D03*
X80050000Y-103150000D03*
D37*
X80050000Y-103750000D03*
X80050000Y-104500000D03*
X80050000Y-104500000D03*
X80050000Y-103750000D03*
D38*
X80050000Y-102650000D03*
X80050000Y-101650000D03*
X80050000Y-100650000D03*
X80050000Y-100150000D03*
D37*
X80050000Y-99050000D03*
X80050000Y-98300000D03*
%TD*%
D16*
%TO.C,R23*%
X160600000Y-80608000D03*
X160600000Y-79152000D03*
%TD*%
D42*
%TO.C,Y1*%
X123000000Y-109150000D03*
X123000000Y-99650000D03*
%TD*%
D15*
%TO.C,C26*%
X153375000Y-88400000D03*
X151825000Y-88400000D03*
%TD*%
D27*
%TO.C,C4*%
X114250000Y-58050000D03*
X114250000Y-59950000D03*
%TD*%
D26*
%TO.C,C28*%
X133625000Y-82700000D03*
X135175000Y-82700000D03*
%TD*%
D22*
%TO.C,C13*%
X111500000Y-96925000D03*
X111500000Y-95375000D03*
%TD*%
D18*
%TO.C,R10*%
X82675000Y-50000000D03*
X84325000Y-50000000D03*
%TD*%
M02*
