%TF.GenerationSoftware,KiCad,Pcbnew,(6.0.4)*%
%TF.CreationDate,2023-03-28T21:24:44-04:00*%
%TF.ProjectId,PD_HV,50445f48-562e-46b6-9963-61645f706362,rev?*%
%TF.SameCoordinates,Original*%
%TF.FileFunction,Legend,Top*%
%TF.FilePolarity,Positive*%
%FSLAX46Y46*%
G04 Gerber Fmt 4.6, Leading zero omitted, Abs format (unit mm)*
G04 Created by KiCad (PCBNEW (6.0.4)) date 2023-03-28 21:24:44*
%MOMM*%
%LPD*%
G01*
G04 APERTURE LIST*
%ADD10C,0.500000*%
%ADD11C,0.300000*%
%TA.AperFunction,Profile*%
%ADD12C,0.100000*%
%TD*%
%ADD13C,0.150000*%
%ADD14C,0.120000*%
%ADD15C,0.127000*%
%ADD16C,0.200000*%
G04 APERTURE END LIST*
D10*
X171100000Y-94000000D02*
X171000000Y-72000000D01*
X142000000Y-39000000D02*
X163000000Y-39000000D01*
X162000000Y-94000000D02*
X171000000Y-85000000D01*
X153000000Y-94000000D02*
X171000000Y-76000000D01*
X142000000Y-94000000D02*
X151000000Y-85000000D01*
X151000000Y-80000000D02*
X153000000Y-78000000D01*
X142000000Y-80000000D02*
X151000000Y-71000000D01*
X142000000Y-71000000D02*
X152000000Y-61000000D01*
X142000000Y-63000000D02*
X152000000Y-53000000D01*
X142000000Y-54000000D02*
X157000000Y-39000000D01*
X142000000Y-45000000D02*
X148000000Y-39000000D01*
X142000000Y-94000000D02*
X171100000Y-94000000D01*
X142000000Y-39000000D02*
X142000000Y-94000000D01*
D11*
X148500000Y-120678571D02*
X148785714Y-120678571D01*
X148928571Y-120750000D01*
X149071428Y-120892857D01*
X149142857Y-121178571D01*
X149142857Y-121678571D01*
X149071428Y-121964285D01*
X148928571Y-122107142D01*
X148785714Y-122178571D01*
X148500000Y-122178571D01*
X148357142Y-122107142D01*
X148214285Y-121964285D01*
X148142857Y-121678571D01*
X148142857Y-121178571D01*
X148214285Y-120892857D01*
X148357142Y-120750000D01*
X148500000Y-120678571D01*
X149785714Y-122178571D02*
X149785714Y-120678571D01*
X150642857Y-122178571D01*
X150642857Y-120678571D01*
X151642857Y-120678571D02*
X151928571Y-120678571D01*
X152071428Y-120750000D01*
X152214285Y-120892857D01*
X152285714Y-121178571D01*
X152285714Y-121678571D01*
X152214285Y-121964285D01*
X152071428Y-122107142D01*
X151928571Y-122178571D01*
X151642857Y-122178571D01*
X151500000Y-122107142D01*
X151357142Y-121964285D01*
X151285714Y-121678571D01*
X151285714Y-121178571D01*
X151357142Y-120892857D01*
X151500000Y-120750000D01*
X151642857Y-120678571D01*
X153428571Y-121392857D02*
X152928571Y-121392857D01*
X152928571Y-122178571D02*
X152928571Y-120678571D01*
X153642857Y-120678571D01*
X154714285Y-121392857D02*
X154214285Y-121392857D01*
X154214285Y-122178571D02*
X154214285Y-120678571D01*
X154928571Y-120678571D01*
X146500000Y-102678571D02*
X146500000Y-101178571D01*
X147214285Y-102678571D02*
X147214285Y-101178571D01*
X148071428Y-102678571D01*
X148071428Y-101178571D01*
X149642857Y-102535714D02*
X149571428Y-102607142D01*
X149357142Y-102678571D01*
X149214285Y-102678571D01*
X149000000Y-102607142D01*
X148857142Y-102464285D01*
X148785714Y-102321428D01*
X148714285Y-102035714D01*
X148714285Y-101821428D01*
X148785714Y-101535714D01*
X148857142Y-101392857D01*
X149000000Y-101250000D01*
X149214285Y-101178571D01*
X149357142Y-101178571D01*
X149571428Y-101250000D01*
X149642857Y-101321428D01*
X151357142Y-101107142D02*
X150071428Y-103035714D01*
X151857142Y-102678571D02*
X151857142Y-101178571D01*
X152214285Y-101178571D01*
X152428571Y-101250000D01*
X152571428Y-101392857D01*
X152642857Y-101535714D01*
X152714285Y-101821428D01*
X152714285Y-102035714D01*
X152642857Y-102321428D01*
X152571428Y-102464285D01*
X152428571Y-102607142D01*
X152214285Y-102678571D01*
X151857142Y-102678571D01*
X153357142Y-101892857D02*
X153857142Y-101892857D01*
X154071428Y-102678571D02*
X153357142Y-102678571D01*
X153357142Y-101178571D01*
X154071428Y-101178571D01*
X155571428Y-102535714D02*
X155500000Y-102607142D01*
X155285714Y-102678571D01*
X155142857Y-102678571D01*
X154928571Y-102607142D01*
X154785714Y-102464285D01*
X154714285Y-102321428D01*
X154642857Y-102035714D01*
X154642857Y-101821428D01*
X154714285Y-101535714D01*
X154785714Y-101392857D01*
X154928571Y-101250000D01*
X155142857Y-101178571D01*
X155285714Y-101178571D01*
X155500000Y-101250000D01*
X155571428Y-101321428D01*
D12*
X75000000Y-129000000D02*
X83000000Y-129000000D01*
X84000000Y-135000000D02*
G75*
G03*
X85000000Y-136000000I1000000J0D01*
G01*
X165000000Y-129000000D02*
G75*
G03*
X164000000Y-130000000I0J-1000000D01*
G01*
X164000000Y-43000000D02*
X164000000Y-38000000D01*
X76000000Y-44000000D02*
G75*
G03*
X74000000Y-46000000I0J-2000000D01*
G01*
X164000000Y-135000000D02*
X164000000Y-130000000D01*
X82000000Y-44000000D02*
G75*
G03*
X84000000Y-42000000I0J2000000D01*
G01*
X84000000Y-130000000D02*
G75*
G03*
X83000000Y-129000000I-1000000J0D01*
G01*
X164000000Y-43000000D02*
G75*
G03*
X165000000Y-44000000I1000000J0D01*
G01*
X163000000Y-37000000D02*
X86000000Y-37000000D01*
X84000000Y-130000000D02*
X84000000Y-135000000D01*
X173000000Y-44000000D02*
X165000000Y-44000000D01*
X86000000Y-37000000D02*
G75*
G03*
X84000000Y-39000000I0J-2000000D01*
G01*
X163000000Y-136000000D02*
G75*
G03*
X164000000Y-135000000I0J1000000D01*
G01*
X173000000Y-129000000D02*
G75*
G03*
X174000000Y-128000000I0J1000000D01*
G01*
X174000000Y-128000000D02*
X174000000Y-45000000D01*
X84000000Y-39000000D02*
X84000000Y-42000000D01*
X85000000Y-136000000D02*
X163000000Y-136000000D01*
X82000000Y-44000000D02*
X76000000Y-44000000D01*
X74000000Y-128000000D02*
G75*
G03*
X75000000Y-129000000I1000000J0D01*
G01*
X174000000Y-45000000D02*
G75*
G03*
X173000000Y-44000000I-1000000J0D01*
G01*
X74000000Y-46000000D02*
X74000000Y-128000000D01*
X165000000Y-129000000D02*
X173000000Y-129000000D01*
X164000000Y-38000000D02*
G75*
G03*
X163000000Y-37000000I-1000000J0D01*
G01*
D13*
X108261904Y-127952380D02*
X107928571Y-127476190D01*
X107690476Y-127952380D02*
X107690476Y-126952380D01*
X108071428Y-126952380D01*
X108166666Y-127000000D01*
X108214285Y-127047619D01*
X108261904Y-127142857D01*
X108261904Y-127285714D01*
X108214285Y-127380952D01*
X108166666Y-127428571D01*
X108071428Y-127476190D01*
X107690476Y-127476190D01*
X108690476Y-126952380D02*
X108690476Y-127761904D01*
X108738095Y-127857142D01*
X108785714Y-127904761D01*
X108880952Y-127952380D01*
X109071428Y-127952380D01*
X109166666Y-127904761D01*
X109214285Y-127857142D01*
X109261904Y-127761904D01*
X109261904Y-126952380D01*
X109738095Y-127952380D02*
X109738095Y-126952380D01*
X110309523Y-127952380D01*
X110309523Y-126952380D01*
X117761904Y-129147380D02*
X117761904Y-129956904D01*
X117809523Y-130052142D01*
X117857142Y-130099761D01*
X117952380Y-130147380D01*
X118142857Y-130147380D01*
X118238095Y-130099761D01*
X118285714Y-130052142D01*
X118333333Y-129956904D01*
X118333333Y-129147380D01*
X118761904Y-130099761D02*
X118904761Y-130147380D01*
X119142857Y-130147380D01*
X119238095Y-130099761D01*
X119285714Y-130052142D01*
X119333333Y-129956904D01*
X119333333Y-129861666D01*
X119285714Y-129766428D01*
X119238095Y-129718809D01*
X119142857Y-129671190D01*
X118952380Y-129623571D01*
X118857142Y-129575952D01*
X118809523Y-129528333D01*
X118761904Y-129433095D01*
X118761904Y-129337857D01*
X118809523Y-129242619D01*
X118857142Y-129195000D01*
X118952380Y-129147380D01*
X119190476Y-129147380D01*
X119333333Y-129195000D01*
X120095238Y-129623571D02*
X120238095Y-129671190D01*
X120285714Y-129718809D01*
X120333333Y-129814047D01*
X120333333Y-129956904D01*
X120285714Y-130052142D01*
X120238095Y-130099761D01*
X120142857Y-130147380D01*
X119761904Y-130147380D01*
X119761904Y-129147380D01*
X120095238Y-129147380D01*
X120190476Y-129195000D01*
X120238095Y-129242619D01*
X120285714Y-129337857D01*
X120285714Y-129433095D01*
X120238095Y-129528333D01*
X120190476Y-129575952D01*
X120095238Y-129623571D01*
X119761904Y-129623571D01*
X120761904Y-129766428D02*
X121523809Y-129766428D01*
X122000000Y-130147380D02*
X122000000Y-129147380D01*
X122380952Y-129147380D01*
X122476190Y-129195000D01*
X122523809Y-129242619D01*
X122571428Y-129337857D01*
X122571428Y-129480714D01*
X122523809Y-129575952D01*
X122476190Y-129623571D01*
X122380952Y-129671190D01*
X122000000Y-129671190D01*
X123000000Y-130147380D02*
X123000000Y-129147380D01*
X123238095Y-129147380D01*
X123380952Y-129195000D01*
X123476190Y-129290238D01*
X123523809Y-129385476D01*
X123571428Y-129575952D01*
X123571428Y-129718809D01*
X123523809Y-129909285D01*
X123476190Y-130004523D01*
X123380952Y-130099761D01*
X123238095Y-130147380D01*
X123000000Y-130147380D01*
X124619047Y-129480714D02*
X125000000Y-129480714D01*
X124761904Y-129147380D02*
X124761904Y-130004523D01*
X124809523Y-130099761D01*
X124904761Y-130147380D01*
X125000000Y-130147380D01*
X125476190Y-130147380D02*
X125380952Y-130099761D01*
X125333333Y-130052142D01*
X125285714Y-129956904D01*
X125285714Y-129671190D01*
X125333333Y-129575952D01*
X125380952Y-129528333D01*
X125476190Y-129480714D01*
X125619047Y-129480714D01*
X125714285Y-129528333D01*
X125761904Y-129575952D01*
X125809523Y-129671190D01*
X125809523Y-129956904D01*
X125761904Y-130052142D01*
X125714285Y-130099761D01*
X125619047Y-130147380D01*
X125476190Y-130147380D01*
X126904761Y-129147380D02*
X127523809Y-129147380D01*
X127190476Y-129528333D01*
X127333333Y-129528333D01*
X127428571Y-129575952D01*
X127476190Y-129623571D01*
X127523809Y-129718809D01*
X127523809Y-129956904D01*
X127476190Y-130052142D01*
X127428571Y-130099761D01*
X127333333Y-130147380D01*
X127047619Y-130147380D01*
X126952380Y-130099761D01*
X126904761Y-130052142D01*
X128142857Y-129147380D02*
X128238095Y-129147380D01*
X128333333Y-129195000D01*
X128380952Y-129242619D01*
X128428571Y-129337857D01*
X128476190Y-129528333D01*
X128476190Y-129766428D01*
X128428571Y-129956904D01*
X128380952Y-130052142D01*
X128333333Y-130099761D01*
X128238095Y-130147380D01*
X128142857Y-130147380D01*
X128047619Y-130099761D01*
X128000000Y-130052142D01*
X127952380Y-129956904D01*
X127904761Y-129766428D01*
X127904761Y-129528333D01*
X127952380Y-129337857D01*
X128000000Y-129242619D01*
X128047619Y-129195000D01*
X128142857Y-129147380D01*
X129095238Y-129147380D02*
X129190476Y-129147380D01*
X129285714Y-129195000D01*
X129333333Y-129242619D01*
X129380952Y-129337857D01*
X129428571Y-129528333D01*
X129428571Y-129766428D01*
X129380952Y-129956904D01*
X129333333Y-130052142D01*
X129285714Y-130099761D01*
X129190476Y-130147380D01*
X129095238Y-130147380D01*
X129000000Y-130099761D01*
X128952380Y-130052142D01*
X128904761Y-129956904D01*
X128857142Y-129766428D01*
X128857142Y-129528333D01*
X128904761Y-129337857D01*
X128952380Y-129242619D01*
X129000000Y-129195000D01*
X129095238Y-129147380D01*
X129714285Y-129147380D02*
X130047619Y-130147380D01*
X130380952Y-129147380D01*
X130714285Y-130147380D02*
X130714285Y-129147380D01*
X130952380Y-129147380D01*
X131095238Y-129195000D01*
X131190476Y-129290238D01*
X131238095Y-129385476D01*
X131285714Y-129575952D01*
X131285714Y-129718809D01*
X131238095Y-129909285D01*
X131190476Y-130004523D01*
X131095238Y-130099761D01*
X130952380Y-130147380D01*
X130714285Y-130147380D01*
X132285714Y-130052142D02*
X132238095Y-130099761D01*
X132095238Y-130147380D01*
X132000000Y-130147380D01*
X131857142Y-130099761D01*
X131761904Y-130004523D01*
X131714285Y-129909285D01*
X131666666Y-129718809D01*
X131666666Y-129575952D01*
X131714285Y-129385476D01*
X131761904Y-129290238D01*
X131857142Y-129195000D01*
X132000000Y-129147380D01*
X132095238Y-129147380D01*
X132238095Y-129195000D01*
X132285714Y-129242619D01*
X121833333Y-131471666D02*
X122309523Y-131471666D01*
X121738095Y-131757380D02*
X122071428Y-130757380D01*
X122404761Y-131757380D01*
X122928571Y-131281190D02*
X122928571Y-131757380D01*
X122595238Y-130757380D02*
X122928571Y-131281190D01*
X123261904Y-130757380D01*
X124071428Y-131757380D02*
X123595238Y-131757380D01*
X123595238Y-130757380D01*
X124595238Y-130757380D02*
X124785714Y-130757380D01*
X124880952Y-130805000D01*
X124976190Y-130900238D01*
X125023809Y-131090714D01*
X125023809Y-131424047D01*
X124976190Y-131614523D01*
X124880952Y-131709761D01*
X124785714Y-131757380D01*
X124595238Y-131757380D01*
X124500000Y-131709761D01*
X124404761Y-131614523D01*
X124357142Y-131424047D01*
X124357142Y-131090714D01*
X124404761Y-130900238D01*
X124500000Y-130805000D01*
X124595238Y-130757380D01*
X126261904Y-130757380D02*
X126166666Y-130947857D01*
X126642857Y-130852619D02*
X126690476Y-130805000D01*
X126785714Y-130757380D01*
X127023809Y-130757380D01*
X127119047Y-130805000D01*
X127166666Y-130852619D01*
X127214285Y-130947857D01*
X127214285Y-131043095D01*
X127166666Y-131185952D01*
X126595238Y-131757380D01*
X127214285Y-131757380D01*
X127547619Y-130757380D02*
X128166666Y-130757380D01*
X127833333Y-131138333D01*
X127976190Y-131138333D01*
X128071428Y-131185952D01*
X128119047Y-131233571D01*
X128166666Y-131328809D01*
X128166666Y-131566904D01*
X128119047Y-131662142D01*
X128071428Y-131709761D01*
X127976190Y-131757380D01*
X127690476Y-131757380D01*
X127595238Y-131709761D01*
X127547619Y-131662142D01*
X77428571Y-126952380D02*
X77428571Y-127761904D01*
X77476190Y-127857142D01*
X77523809Y-127904761D01*
X77619047Y-127952380D01*
X77809523Y-127952380D01*
X77904761Y-127904761D01*
X77952380Y-127857142D01*
X78000000Y-127761904D01*
X78000000Y-126952380D01*
X78428571Y-127904761D02*
X78571428Y-127952380D01*
X78809523Y-127952380D01*
X78904761Y-127904761D01*
X78952380Y-127857142D01*
X79000000Y-127761904D01*
X79000000Y-127666666D01*
X78952380Y-127571428D01*
X78904761Y-127523809D01*
X78809523Y-127476190D01*
X78619047Y-127428571D01*
X78523809Y-127380952D01*
X78476190Y-127333333D01*
X78428571Y-127238095D01*
X78428571Y-127142857D01*
X78476190Y-127047619D01*
X78523809Y-127000000D01*
X78619047Y-126952380D01*
X78857142Y-126952380D01*
X79000000Y-127000000D01*
X79761904Y-127428571D02*
X79904761Y-127476190D01*
X79952380Y-127523809D01*
X80000000Y-127619047D01*
X80000000Y-127761904D01*
X79952380Y-127857142D01*
X79904761Y-127904761D01*
X79809523Y-127952380D01*
X79428571Y-127952380D01*
X79428571Y-126952380D01*
X79761904Y-126952380D01*
X79857142Y-127000000D01*
X79904761Y-127047619D01*
X79952380Y-127142857D01*
X79952380Y-127238095D01*
X79904761Y-127333333D01*
X79857142Y-127380952D01*
X79761904Y-127428571D01*
X79428571Y-127428571D01*
X81523809Y-127428571D02*
X81666666Y-127476190D01*
X81714285Y-127523809D01*
X81761904Y-127619047D01*
X81761904Y-127761904D01*
X81714285Y-127857142D01*
X81666666Y-127904761D01*
X81571428Y-127952380D01*
X81190476Y-127952380D01*
X81190476Y-126952380D01*
X81523809Y-126952380D01*
X81619047Y-127000000D01*
X81666666Y-127047619D01*
X81714285Y-127142857D01*
X81714285Y-127238095D01*
X81666666Y-127333333D01*
X81619047Y-127380952D01*
X81523809Y-127428571D01*
X81190476Y-127428571D01*
X82380952Y-126952380D02*
X82571428Y-126952380D01*
X82666666Y-127000000D01*
X82761904Y-127095238D01*
X82809523Y-127285714D01*
X82809523Y-127619047D01*
X82761904Y-127809523D01*
X82666666Y-127904761D01*
X82571428Y-127952380D01*
X82380952Y-127952380D01*
X82285714Y-127904761D01*
X82190476Y-127809523D01*
X82142857Y-127619047D01*
X82142857Y-127285714D01*
X82190476Y-127095238D01*
X82285714Y-127000000D01*
X82380952Y-126952380D01*
X83428571Y-126952380D02*
X83619047Y-126952380D01*
X83714285Y-127000000D01*
X83809523Y-127095238D01*
X83857142Y-127285714D01*
X83857142Y-127619047D01*
X83809523Y-127809523D01*
X83714285Y-127904761D01*
X83619047Y-127952380D01*
X83428571Y-127952380D01*
X83333333Y-127904761D01*
X83238095Y-127809523D01*
X83190476Y-127619047D01*
X83190476Y-127285714D01*
X83238095Y-127095238D01*
X83333333Y-127000000D01*
X83428571Y-126952380D01*
X84142857Y-126952380D02*
X84714285Y-126952380D01*
X84428571Y-127952380D02*
X84428571Y-126952380D01*
X92261904Y-127952380D02*
X92261904Y-126952380D01*
X92690476Y-127904761D02*
X92833333Y-127952380D01*
X93071428Y-127952380D01*
X93166666Y-127904761D01*
X93214285Y-127857142D01*
X93261904Y-127761904D01*
X93261904Y-127666666D01*
X93214285Y-127571428D01*
X93166666Y-127523809D01*
X93071428Y-127476190D01*
X92880952Y-127428571D01*
X92785714Y-127380952D01*
X92738095Y-127333333D01*
X92690476Y-127238095D01*
X92690476Y-127142857D01*
X92738095Y-127047619D01*
X92785714Y-127000000D01*
X92880952Y-126952380D01*
X93119047Y-126952380D01*
X93261904Y-127000000D01*
X93880952Y-126952380D02*
X94071428Y-126952380D01*
X94166666Y-127000000D01*
X94261904Y-127095238D01*
X94309523Y-127285714D01*
X94309523Y-127619047D01*
X94261904Y-127809523D01*
X94166666Y-127904761D01*
X94071428Y-127952380D01*
X93880952Y-127952380D01*
X93785714Y-127904761D01*
X93690476Y-127809523D01*
X93642857Y-127619047D01*
X93642857Y-127285714D01*
X93690476Y-127095238D01*
X93785714Y-127000000D01*
X93880952Y-126952380D01*
X96071428Y-127952380D02*
X95738095Y-127476190D01*
X95500000Y-127952380D02*
X95500000Y-126952380D01*
X95880952Y-126952380D01*
X95976190Y-127000000D01*
X96023809Y-127047619D01*
X96071428Y-127142857D01*
X96071428Y-127285714D01*
X96023809Y-127380952D01*
X95976190Y-127428571D01*
X95880952Y-127476190D01*
X95500000Y-127476190D01*
X96452380Y-127904761D02*
X96595238Y-127952380D01*
X96833333Y-127952380D01*
X96928571Y-127904761D01*
X96976190Y-127857142D01*
X97023809Y-127761904D01*
X97023809Y-127666666D01*
X96976190Y-127571428D01*
X96928571Y-127523809D01*
X96833333Y-127476190D01*
X96642857Y-127428571D01*
X96547619Y-127380952D01*
X96500000Y-127333333D01*
X96452380Y-127238095D01*
X96452380Y-127142857D01*
X96500000Y-127047619D01*
X96547619Y-127000000D01*
X96642857Y-126952380D01*
X96880952Y-126952380D01*
X97023809Y-127000000D01*
X97309523Y-126952380D02*
X97880952Y-126952380D01*
X97595238Y-127952380D02*
X97595238Y-126952380D01*
%TO.C,R25*%
X112272380Y-84642857D02*
X111796190Y-84976190D01*
X112272380Y-85214285D02*
X111272380Y-85214285D01*
X111272380Y-84833333D01*
X111320000Y-84738095D01*
X111367619Y-84690476D01*
X111462857Y-84642857D01*
X111605714Y-84642857D01*
X111700952Y-84690476D01*
X111748571Y-84738095D01*
X111796190Y-84833333D01*
X111796190Y-85214285D01*
X111367619Y-84261904D02*
X111320000Y-84214285D01*
X111272380Y-84119047D01*
X111272380Y-83880952D01*
X111320000Y-83785714D01*
X111367619Y-83738095D01*
X111462857Y-83690476D01*
X111558095Y-83690476D01*
X111700952Y-83738095D01*
X112272380Y-84309523D01*
X112272380Y-83690476D01*
X111272380Y-82785714D02*
X111272380Y-83261904D01*
X111748571Y-83309523D01*
X111700952Y-83261904D01*
X111653333Y-83166666D01*
X111653333Y-82928571D01*
X111700952Y-82833333D01*
X111748571Y-82785714D01*
X111843809Y-82738095D01*
X112081904Y-82738095D01*
X112177142Y-82785714D01*
X112224761Y-82833333D01*
X112272380Y-82928571D01*
X112272380Y-83166666D01*
X112224761Y-83261904D01*
X112177142Y-83309523D01*
%TO.C,R24*%
X115022380Y-86642857D02*
X114546190Y-86976190D01*
X115022380Y-87214285D02*
X114022380Y-87214285D01*
X114022380Y-86833333D01*
X114070000Y-86738095D01*
X114117619Y-86690476D01*
X114212857Y-86642857D01*
X114355714Y-86642857D01*
X114450952Y-86690476D01*
X114498571Y-86738095D01*
X114546190Y-86833333D01*
X114546190Y-87214285D01*
X114117619Y-86261904D02*
X114070000Y-86214285D01*
X114022380Y-86119047D01*
X114022380Y-85880952D01*
X114070000Y-85785714D01*
X114117619Y-85738095D01*
X114212857Y-85690476D01*
X114308095Y-85690476D01*
X114450952Y-85738095D01*
X115022380Y-86309523D01*
X115022380Y-85690476D01*
X114355714Y-84833333D02*
X115022380Y-84833333D01*
X113974761Y-85071428D02*
X114689047Y-85309523D01*
X114689047Y-84690476D01*
%TO.C,TP_VTRANS1*%
X119869047Y-63202380D02*
X120440476Y-63202380D01*
X120154761Y-64202380D02*
X120154761Y-63202380D01*
X120773809Y-64202380D02*
X120773809Y-63202380D01*
X121154761Y-63202380D01*
X121250000Y-63250000D01*
X121297619Y-63297619D01*
X121345238Y-63392857D01*
X121345238Y-63535714D01*
X121297619Y-63630952D01*
X121250000Y-63678571D01*
X121154761Y-63726190D01*
X120773809Y-63726190D01*
X121535714Y-64297619D02*
X122297619Y-64297619D01*
X122392857Y-63202380D02*
X122726190Y-64202380D01*
X123059523Y-63202380D01*
X123250000Y-63202380D02*
X123821428Y-63202380D01*
X123535714Y-64202380D02*
X123535714Y-63202380D01*
X124726190Y-64202380D02*
X124392857Y-63726190D01*
X124154761Y-64202380D02*
X124154761Y-63202380D01*
X124535714Y-63202380D01*
X124630952Y-63250000D01*
X124678571Y-63297619D01*
X124726190Y-63392857D01*
X124726190Y-63535714D01*
X124678571Y-63630952D01*
X124630952Y-63678571D01*
X124535714Y-63726190D01*
X124154761Y-63726190D01*
X125107142Y-63916666D02*
X125583333Y-63916666D01*
X125011904Y-64202380D02*
X125345238Y-63202380D01*
X125678571Y-64202380D01*
X126011904Y-64202380D02*
X126011904Y-63202380D01*
X126583333Y-64202380D01*
X126583333Y-63202380D01*
X127011904Y-64154761D02*
X127154761Y-64202380D01*
X127392857Y-64202380D01*
X127488095Y-64154761D01*
X127535714Y-64107142D01*
X127583333Y-64011904D01*
X127583333Y-63916666D01*
X127535714Y-63821428D01*
X127488095Y-63773809D01*
X127392857Y-63726190D01*
X127202380Y-63678571D01*
X127107142Y-63630952D01*
X127059523Y-63583333D01*
X127011904Y-63488095D01*
X127011904Y-63392857D01*
X127059523Y-63297619D01*
X127107142Y-63250000D01*
X127202380Y-63202380D01*
X127440476Y-63202380D01*
X127583333Y-63250000D01*
X128535714Y-64202380D02*
X127964285Y-64202380D01*
X128250000Y-64202380D02*
X128250000Y-63202380D01*
X128154761Y-63345238D01*
X128059523Y-63440476D01*
X127964285Y-63488095D01*
%TO.C,TP_VBUS_USB1*%
X74297619Y-86952380D02*
X74869047Y-86952380D01*
X74583333Y-87952380D02*
X74583333Y-86952380D01*
X75202380Y-87952380D02*
X75202380Y-86952380D01*
X75583333Y-86952380D01*
X75678571Y-87000000D01*
X75726190Y-87047619D01*
X75773809Y-87142857D01*
X75773809Y-87285714D01*
X75726190Y-87380952D01*
X75678571Y-87428571D01*
X75583333Y-87476190D01*
X75202380Y-87476190D01*
X75964285Y-88047619D02*
X76726190Y-88047619D01*
X76821428Y-86952380D02*
X77154761Y-87952380D01*
X77488095Y-86952380D01*
X78154761Y-87428571D02*
X78297619Y-87476190D01*
X78345238Y-87523809D01*
X78392857Y-87619047D01*
X78392857Y-87761904D01*
X78345238Y-87857142D01*
X78297619Y-87904761D01*
X78202380Y-87952380D01*
X77821428Y-87952380D01*
X77821428Y-86952380D01*
X78154761Y-86952380D01*
X78250000Y-87000000D01*
X78297619Y-87047619D01*
X78345238Y-87142857D01*
X78345238Y-87238095D01*
X78297619Y-87333333D01*
X78250000Y-87380952D01*
X78154761Y-87428571D01*
X77821428Y-87428571D01*
X78821428Y-86952380D02*
X78821428Y-87761904D01*
X78869047Y-87857142D01*
X78916666Y-87904761D01*
X79011904Y-87952380D01*
X79202380Y-87952380D01*
X79297619Y-87904761D01*
X79345238Y-87857142D01*
X79392857Y-87761904D01*
X79392857Y-86952380D01*
X79821428Y-87904761D02*
X79964285Y-87952380D01*
X80202380Y-87952380D01*
X80297619Y-87904761D01*
X80345238Y-87857142D01*
X80392857Y-87761904D01*
X80392857Y-87666666D01*
X80345238Y-87571428D01*
X80297619Y-87523809D01*
X80202380Y-87476190D01*
X80011904Y-87428571D01*
X79916666Y-87380952D01*
X79869047Y-87333333D01*
X79821428Y-87238095D01*
X79821428Y-87142857D01*
X79869047Y-87047619D01*
X79916666Y-87000000D01*
X80011904Y-86952380D01*
X80250000Y-86952380D01*
X80392857Y-87000000D01*
X80583333Y-88047619D02*
X81345238Y-88047619D01*
X81583333Y-86952380D02*
X81583333Y-87761904D01*
X81630952Y-87857142D01*
X81678571Y-87904761D01*
X81773809Y-87952380D01*
X81964285Y-87952380D01*
X82059523Y-87904761D01*
X82107142Y-87857142D01*
X82154761Y-87761904D01*
X82154761Y-86952380D01*
X82583333Y-87904761D02*
X82726190Y-87952380D01*
X82964285Y-87952380D01*
X83059523Y-87904761D01*
X83107142Y-87857142D01*
X83154761Y-87761904D01*
X83154761Y-87666666D01*
X83107142Y-87571428D01*
X83059523Y-87523809D01*
X82964285Y-87476190D01*
X82773809Y-87428571D01*
X82678571Y-87380952D01*
X82630952Y-87333333D01*
X82583333Y-87238095D01*
X82583333Y-87142857D01*
X82630952Y-87047619D01*
X82678571Y-87000000D01*
X82773809Y-86952380D01*
X83011904Y-86952380D01*
X83154761Y-87000000D01*
X83916666Y-87428571D02*
X84059523Y-87476190D01*
X84107142Y-87523809D01*
X84154761Y-87619047D01*
X84154761Y-87761904D01*
X84107142Y-87857142D01*
X84059523Y-87904761D01*
X83964285Y-87952380D01*
X83583333Y-87952380D01*
X83583333Y-86952380D01*
X83916666Y-86952380D01*
X84011904Y-87000000D01*
X84059523Y-87047619D01*
X84107142Y-87142857D01*
X84107142Y-87238095D01*
X84059523Y-87333333D01*
X84011904Y-87380952D01*
X83916666Y-87428571D01*
X83583333Y-87428571D01*
X85107142Y-87952380D02*
X84535714Y-87952380D01*
X84821428Y-87952380D02*
X84821428Y-86952380D01*
X84726190Y-87095238D01*
X84630952Y-87190476D01*
X84535714Y-87238095D01*
%TO.C,TP_VBUS1*%
X75428571Y-45004380D02*
X76000000Y-45004380D01*
X75714285Y-46004380D02*
X75714285Y-45004380D01*
X76333333Y-46004380D02*
X76333333Y-45004380D01*
X76714285Y-45004380D01*
X76809523Y-45052000D01*
X76857142Y-45099619D01*
X76904761Y-45194857D01*
X76904761Y-45337714D01*
X76857142Y-45432952D01*
X76809523Y-45480571D01*
X76714285Y-45528190D01*
X76333333Y-45528190D01*
X77095238Y-46099619D02*
X77857142Y-46099619D01*
X77952380Y-45004380D02*
X78285714Y-46004380D01*
X78619047Y-45004380D01*
X79285714Y-45480571D02*
X79428571Y-45528190D01*
X79476190Y-45575809D01*
X79523809Y-45671047D01*
X79523809Y-45813904D01*
X79476190Y-45909142D01*
X79428571Y-45956761D01*
X79333333Y-46004380D01*
X78952380Y-46004380D01*
X78952380Y-45004380D01*
X79285714Y-45004380D01*
X79380952Y-45052000D01*
X79428571Y-45099619D01*
X79476190Y-45194857D01*
X79476190Y-45290095D01*
X79428571Y-45385333D01*
X79380952Y-45432952D01*
X79285714Y-45480571D01*
X78952380Y-45480571D01*
X79952380Y-45004380D02*
X79952380Y-45813904D01*
X80000000Y-45909142D01*
X80047619Y-45956761D01*
X80142857Y-46004380D01*
X80333333Y-46004380D01*
X80428571Y-45956761D01*
X80476190Y-45909142D01*
X80523809Y-45813904D01*
X80523809Y-45004380D01*
X80952380Y-45956761D02*
X81095238Y-46004380D01*
X81333333Y-46004380D01*
X81428571Y-45956761D01*
X81476190Y-45909142D01*
X81523809Y-45813904D01*
X81523809Y-45718666D01*
X81476190Y-45623428D01*
X81428571Y-45575809D01*
X81333333Y-45528190D01*
X81142857Y-45480571D01*
X81047619Y-45432952D01*
X81000000Y-45385333D01*
X80952380Y-45290095D01*
X80952380Y-45194857D01*
X81000000Y-45099619D01*
X81047619Y-45052000D01*
X81142857Y-45004380D01*
X81380952Y-45004380D01*
X81523809Y-45052000D01*
X82476190Y-46004380D02*
X81904761Y-46004380D01*
X82190476Y-46004380D02*
X82190476Y-45004380D01*
X82095238Y-45147238D01*
X82000000Y-45242476D01*
X81904761Y-45290095D01*
%TO.C,TP_SDA1*%
X115702380Y-68202380D02*
X116273809Y-68202380D01*
X115988095Y-69202380D02*
X115988095Y-68202380D01*
X116607142Y-69202380D02*
X116607142Y-68202380D01*
X116988095Y-68202380D01*
X117083333Y-68250000D01*
X117130952Y-68297619D01*
X117178571Y-68392857D01*
X117178571Y-68535714D01*
X117130952Y-68630952D01*
X117083333Y-68678571D01*
X116988095Y-68726190D01*
X116607142Y-68726190D01*
X117369047Y-69297619D02*
X118130952Y-69297619D01*
X118321428Y-69154761D02*
X118464285Y-69202380D01*
X118702380Y-69202380D01*
X118797619Y-69154761D01*
X118845238Y-69107142D01*
X118892857Y-69011904D01*
X118892857Y-68916666D01*
X118845238Y-68821428D01*
X118797619Y-68773809D01*
X118702380Y-68726190D01*
X118511904Y-68678571D01*
X118416666Y-68630952D01*
X118369047Y-68583333D01*
X118321428Y-68488095D01*
X118321428Y-68392857D01*
X118369047Y-68297619D01*
X118416666Y-68250000D01*
X118511904Y-68202380D01*
X118750000Y-68202380D01*
X118892857Y-68250000D01*
X119321428Y-69202380D02*
X119321428Y-68202380D01*
X119559523Y-68202380D01*
X119702380Y-68250000D01*
X119797619Y-68345238D01*
X119845238Y-68440476D01*
X119892857Y-68630952D01*
X119892857Y-68773809D01*
X119845238Y-68964285D01*
X119797619Y-69059523D01*
X119702380Y-69154761D01*
X119559523Y-69202380D01*
X119321428Y-69202380D01*
X120273809Y-68916666D02*
X120750000Y-68916666D01*
X120178571Y-69202380D02*
X120511904Y-68202380D01*
X120845238Y-69202380D01*
X121702380Y-69202380D02*
X121130952Y-69202380D01*
X121416666Y-69202380D02*
X121416666Y-68202380D01*
X121321428Y-68345238D01*
X121226190Y-68440476D01*
X121130952Y-68488095D01*
%TO.C,TP_SCL1*%
X108226190Y-68202380D02*
X108797619Y-68202380D01*
X108511904Y-69202380D02*
X108511904Y-68202380D01*
X109130952Y-69202380D02*
X109130952Y-68202380D01*
X109511904Y-68202380D01*
X109607142Y-68250000D01*
X109654761Y-68297619D01*
X109702380Y-68392857D01*
X109702380Y-68535714D01*
X109654761Y-68630952D01*
X109607142Y-68678571D01*
X109511904Y-68726190D01*
X109130952Y-68726190D01*
X109892857Y-69297619D02*
X110654761Y-69297619D01*
X110845238Y-69154761D02*
X110988095Y-69202380D01*
X111226190Y-69202380D01*
X111321428Y-69154761D01*
X111369047Y-69107142D01*
X111416666Y-69011904D01*
X111416666Y-68916666D01*
X111369047Y-68821428D01*
X111321428Y-68773809D01*
X111226190Y-68726190D01*
X111035714Y-68678571D01*
X110940476Y-68630952D01*
X110892857Y-68583333D01*
X110845238Y-68488095D01*
X110845238Y-68392857D01*
X110892857Y-68297619D01*
X110940476Y-68250000D01*
X111035714Y-68202380D01*
X111273809Y-68202380D01*
X111416666Y-68250000D01*
X112416666Y-69107142D02*
X112369047Y-69154761D01*
X112226190Y-69202380D01*
X112130952Y-69202380D01*
X111988095Y-69154761D01*
X111892857Y-69059523D01*
X111845238Y-68964285D01*
X111797619Y-68773809D01*
X111797619Y-68630952D01*
X111845238Y-68440476D01*
X111892857Y-68345238D01*
X111988095Y-68250000D01*
X112130952Y-68202380D01*
X112226190Y-68202380D01*
X112369047Y-68250000D01*
X112416666Y-68297619D01*
X113321428Y-69202380D02*
X112845238Y-69202380D01*
X112845238Y-68202380D01*
X114178571Y-69202380D02*
X113607142Y-69202380D01*
X113892857Y-69202380D02*
X113892857Y-68202380D01*
X113797619Y-68345238D01*
X113702380Y-68440476D01*
X113607142Y-68488095D01*
%TO.C,TP_RBG1*%
X104357142Y-51504380D02*
X104928571Y-51504380D01*
X104642857Y-52504380D02*
X104642857Y-51504380D01*
X105261904Y-52504380D02*
X105261904Y-51504380D01*
X105642857Y-51504380D01*
X105738095Y-51552000D01*
X105785714Y-51599619D01*
X105833333Y-51694857D01*
X105833333Y-51837714D01*
X105785714Y-51932952D01*
X105738095Y-51980571D01*
X105642857Y-52028190D01*
X105261904Y-52028190D01*
X106023809Y-52599619D02*
X106785714Y-52599619D01*
X107595238Y-52504380D02*
X107261904Y-52028190D01*
X107023809Y-52504380D02*
X107023809Y-51504380D01*
X107404761Y-51504380D01*
X107500000Y-51552000D01*
X107547619Y-51599619D01*
X107595238Y-51694857D01*
X107595238Y-51837714D01*
X107547619Y-51932952D01*
X107500000Y-51980571D01*
X107404761Y-52028190D01*
X107023809Y-52028190D01*
X108357142Y-51980571D02*
X108500000Y-52028190D01*
X108547619Y-52075809D01*
X108595238Y-52171047D01*
X108595238Y-52313904D01*
X108547619Y-52409142D01*
X108500000Y-52456761D01*
X108404761Y-52504380D01*
X108023809Y-52504380D01*
X108023809Y-51504380D01*
X108357142Y-51504380D01*
X108452380Y-51552000D01*
X108500000Y-51599619D01*
X108547619Y-51694857D01*
X108547619Y-51790095D01*
X108500000Y-51885333D01*
X108452380Y-51932952D01*
X108357142Y-51980571D01*
X108023809Y-51980571D01*
X109547619Y-51552000D02*
X109452380Y-51504380D01*
X109309523Y-51504380D01*
X109166666Y-51552000D01*
X109071428Y-51647238D01*
X109023809Y-51742476D01*
X108976190Y-51932952D01*
X108976190Y-52075809D01*
X109023809Y-52266285D01*
X109071428Y-52361523D01*
X109166666Y-52456761D01*
X109309523Y-52504380D01*
X109404761Y-52504380D01*
X109547619Y-52456761D01*
X109595238Y-52409142D01*
X109595238Y-52075809D01*
X109404761Y-52075809D01*
X110547619Y-52504380D02*
X109976190Y-52504380D01*
X110261904Y-52504380D02*
X110261904Y-51504380D01*
X110166666Y-51647238D01*
X110071428Y-51742476D01*
X109976190Y-51790095D01*
%TO.C,TP_ONOFF1*%
X139178571Y-121754380D02*
X139750000Y-121754380D01*
X139464285Y-122754380D02*
X139464285Y-121754380D01*
X140083333Y-122754380D02*
X140083333Y-121754380D01*
X140464285Y-121754380D01*
X140559523Y-121802000D01*
X140607142Y-121849619D01*
X140654761Y-121944857D01*
X140654761Y-122087714D01*
X140607142Y-122182952D01*
X140559523Y-122230571D01*
X140464285Y-122278190D01*
X140083333Y-122278190D01*
X140845238Y-122849619D02*
X141607142Y-122849619D01*
X142035714Y-121754380D02*
X142226190Y-121754380D01*
X142321428Y-121802000D01*
X142416666Y-121897238D01*
X142464285Y-122087714D01*
X142464285Y-122421047D01*
X142416666Y-122611523D01*
X142321428Y-122706761D01*
X142226190Y-122754380D01*
X142035714Y-122754380D01*
X141940476Y-122706761D01*
X141845238Y-122611523D01*
X141797619Y-122421047D01*
X141797619Y-122087714D01*
X141845238Y-121897238D01*
X141940476Y-121802000D01*
X142035714Y-121754380D01*
X142892857Y-122754380D02*
X142892857Y-121754380D01*
X143464285Y-122754380D01*
X143464285Y-121754380D01*
X144130952Y-121754380D02*
X144321428Y-121754380D01*
X144416666Y-121802000D01*
X144511904Y-121897238D01*
X144559523Y-122087714D01*
X144559523Y-122421047D01*
X144511904Y-122611523D01*
X144416666Y-122706761D01*
X144321428Y-122754380D01*
X144130952Y-122754380D01*
X144035714Y-122706761D01*
X143940476Y-122611523D01*
X143892857Y-122421047D01*
X143892857Y-122087714D01*
X143940476Y-121897238D01*
X144035714Y-121802000D01*
X144130952Y-121754380D01*
X145321428Y-122230571D02*
X144988095Y-122230571D01*
X144988095Y-122754380D02*
X144988095Y-121754380D01*
X145464285Y-121754380D01*
X146178571Y-122230571D02*
X145845238Y-122230571D01*
X145845238Y-122754380D02*
X145845238Y-121754380D01*
X146321428Y-121754380D01*
X147226190Y-122754380D02*
X146654761Y-122754380D01*
X146940476Y-122754380D02*
X146940476Y-121754380D01*
X146845238Y-121897238D01*
X146750000Y-121992476D01*
X146654761Y-122040095D01*
%TO.C,TP_nDONE1*%
X111654761Y-74702380D02*
X112226190Y-74702380D01*
X111940476Y-75702380D02*
X111940476Y-74702380D01*
X112559523Y-75702380D02*
X112559523Y-74702380D01*
X112940476Y-74702380D01*
X113035714Y-74750000D01*
X113083333Y-74797619D01*
X113130952Y-74892857D01*
X113130952Y-75035714D01*
X113083333Y-75130952D01*
X113035714Y-75178571D01*
X112940476Y-75226190D01*
X112559523Y-75226190D01*
X113321428Y-75797619D02*
X114083333Y-75797619D01*
X114321428Y-75035714D02*
X114321428Y-75702380D01*
X114321428Y-75130952D02*
X114369047Y-75083333D01*
X114464285Y-75035714D01*
X114607142Y-75035714D01*
X114702380Y-75083333D01*
X114750000Y-75178571D01*
X114750000Y-75702380D01*
X115226190Y-75702380D02*
X115226190Y-74702380D01*
X115464285Y-74702380D01*
X115607142Y-74750000D01*
X115702380Y-74845238D01*
X115750000Y-74940476D01*
X115797619Y-75130952D01*
X115797619Y-75273809D01*
X115750000Y-75464285D01*
X115702380Y-75559523D01*
X115607142Y-75654761D01*
X115464285Y-75702380D01*
X115226190Y-75702380D01*
X116416666Y-74702380D02*
X116607142Y-74702380D01*
X116702380Y-74750000D01*
X116797619Y-74845238D01*
X116845238Y-75035714D01*
X116845238Y-75369047D01*
X116797619Y-75559523D01*
X116702380Y-75654761D01*
X116607142Y-75702380D01*
X116416666Y-75702380D01*
X116321428Y-75654761D01*
X116226190Y-75559523D01*
X116178571Y-75369047D01*
X116178571Y-75035714D01*
X116226190Y-74845238D01*
X116321428Y-74750000D01*
X116416666Y-74702380D01*
X117273809Y-75702380D02*
X117273809Y-74702380D01*
X117845238Y-75702380D01*
X117845238Y-74702380D01*
X118321428Y-75178571D02*
X118654761Y-75178571D01*
X118797619Y-75702380D02*
X118321428Y-75702380D01*
X118321428Y-74702380D01*
X118797619Y-74702380D01*
X119750000Y-75702380D02*
X119178571Y-75702380D01*
X119464285Y-75702380D02*
X119464285Y-74702380D01*
X119369047Y-74845238D01*
X119273809Y-74940476D01*
X119178571Y-74988095D01*
%TO.C,TP_MOSD1*%
X121535714Y-53004380D02*
X122107142Y-53004380D01*
X121821428Y-54004380D02*
X121821428Y-53004380D01*
X122440476Y-54004380D02*
X122440476Y-53004380D01*
X122821428Y-53004380D01*
X122916666Y-53052000D01*
X122964285Y-53099619D01*
X123011904Y-53194857D01*
X123011904Y-53337714D01*
X122964285Y-53432952D01*
X122916666Y-53480571D01*
X122821428Y-53528190D01*
X122440476Y-53528190D01*
X123202380Y-54099619D02*
X123964285Y-54099619D01*
X124202380Y-54004380D02*
X124202380Y-53004380D01*
X124535714Y-53718666D01*
X124869047Y-53004380D01*
X124869047Y-54004380D01*
X125535714Y-53004380D02*
X125726190Y-53004380D01*
X125821428Y-53052000D01*
X125916666Y-53147238D01*
X125964285Y-53337714D01*
X125964285Y-53671047D01*
X125916666Y-53861523D01*
X125821428Y-53956761D01*
X125726190Y-54004380D01*
X125535714Y-54004380D01*
X125440476Y-53956761D01*
X125345238Y-53861523D01*
X125297619Y-53671047D01*
X125297619Y-53337714D01*
X125345238Y-53147238D01*
X125440476Y-53052000D01*
X125535714Y-53004380D01*
X126345238Y-53956761D02*
X126488095Y-54004380D01*
X126726190Y-54004380D01*
X126821428Y-53956761D01*
X126869047Y-53909142D01*
X126916666Y-53813904D01*
X126916666Y-53718666D01*
X126869047Y-53623428D01*
X126821428Y-53575809D01*
X126726190Y-53528190D01*
X126535714Y-53480571D01*
X126440476Y-53432952D01*
X126392857Y-53385333D01*
X126345238Y-53290095D01*
X126345238Y-53194857D01*
X126392857Y-53099619D01*
X126440476Y-53052000D01*
X126535714Y-53004380D01*
X126773809Y-53004380D01*
X126916666Y-53052000D01*
X127345238Y-54004380D02*
X127345238Y-53004380D01*
X127583333Y-53004380D01*
X127726190Y-53052000D01*
X127821428Y-53147238D01*
X127869047Y-53242476D01*
X127916666Y-53432952D01*
X127916666Y-53575809D01*
X127869047Y-53766285D01*
X127821428Y-53861523D01*
X127726190Y-53956761D01*
X127583333Y-54004380D01*
X127345238Y-54004380D01*
X128869047Y-54004380D02*
X128297619Y-54004380D01*
X128583333Y-54004380D02*
X128583333Y-53004380D01*
X128488095Y-53147238D01*
X128392857Y-53242476D01*
X128297619Y-53290095D01*
%TO.C,TP_INC1*%
X140345238Y-112004380D02*
X140916666Y-112004380D01*
X140630952Y-113004380D02*
X140630952Y-112004380D01*
X141250000Y-113004380D02*
X141250000Y-112004380D01*
X141630952Y-112004380D01*
X141726190Y-112052000D01*
X141773809Y-112099619D01*
X141821428Y-112194857D01*
X141821428Y-112337714D01*
X141773809Y-112432952D01*
X141726190Y-112480571D01*
X141630952Y-112528190D01*
X141250000Y-112528190D01*
X142011904Y-113099619D02*
X142773809Y-113099619D01*
X143011904Y-113004380D02*
X143011904Y-112004380D01*
X143488095Y-113004380D02*
X143488095Y-112004380D01*
X144059523Y-113004380D01*
X144059523Y-112004380D01*
X145107142Y-112909142D02*
X145059523Y-112956761D01*
X144916666Y-113004380D01*
X144821428Y-113004380D01*
X144678571Y-112956761D01*
X144583333Y-112861523D01*
X144535714Y-112766285D01*
X144488095Y-112575809D01*
X144488095Y-112432952D01*
X144535714Y-112242476D01*
X144583333Y-112147238D01*
X144678571Y-112052000D01*
X144821428Y-112004380D01*
X144916666Y-112004380D01*
X145059523Y-112052000D01*
X145107142Y-112099619D01*
X146059523Y-113004380D02*
X145488095Y-113004380D01*
X145773809Y-113004380D02*
X145773809Y-112004380D01*
X145678571Y-112147238D01*
X145583333Y-112242476D01*
X145488095Y-112290095D01*
%TO.C,TP_GND2*%
X95833333Y-48504380D02*
X96404761Y-48504380D01*
X96119047Y-49504380D02*
X96119047Y-48504380D01*
X96738095Y-49504380D02*
X96738095Y-48504380D01*
X97119047Y-48504380D01*
X97214285Y-48552000D01*
X97261904Y-48599619D01*
X97309523Y-48694857D01*
X97309523Y-48837714D01*
X97261904Y-48932952D01*
X97214285Y-48980571D01*
X97119047Y-49028190D01*
X96738095Y-49028190D01*
X97500000Y-49599619D02*
X98261904Y-49599619D01*
X99023809Y-48552000D02*
X98928571Y-48504380D01*
X98785714Y-48504380D01*
X98642857Y-48552000D01*
X98547619Y-48647238D01*
X98500000Y-48742476D01*
X98452380Y-48932952D01*
X98452380Y-49075809D01*
X98500000Y-49266285D01*
X98547619Y-49361523D01*
X98642857Y-49456761D01*
X98785714Y-49504380D01*
X98880952Y-49504380D01*
X99023809Y-49456761D01*
X99071428Y-49409142D01*
X99071428Y-49075809D01*
X98880952Y-49075809D01*
X99500000Y-49504380D02*
X99500000Y-48504380D01*
X100071428Y-49504380D01*
X100071428Y-48504380D01*
X100547619Y-49504380D02*
X100547619Y-48504380D01*
X100785714Y-48504380D01*
X100928571Y-48552000D01*
X101023809Y-48647238D01*
X101071428Y-48742476D01*
X101119047Y-48932952D01*
X101119047Y-49075809D01*
X101071428Y-49266285D01*
X101023809Y-49361523D01*
X100928571Y-49456761D01*
X100785714Y-49504380D01*
X100547619Y-49504380D01*
X101500000Y-48599619D02*
X101547619Y-48552000D01*
X101642857Y-48504380D01*
X101880952Y-48504380D01*
X101976190Y-48552000D01*
X102023809Y-48599619D01*
X102071428Y-48694857D01*
X102071428Y-48790095D01*
X102023809Y-48932952D01*
X101452380Y-49504380D01*
X102071428Y-49504380D01*
%TO.C,TP_GND1*%
X111202380Y-118916666D02*
X111202380Y-118345238D01*
X112202380Y-118630952D02*
X111202380Y-118630952D01*
X112202380Y-118011904D02*
X111202380Y-118011904D01*
X111202380Y-117630952D01*
X111250000Y-117535714D01*
X111297619Y-117488095D01*
X111392857Y-117440476D01*
X111535714Y-117440476D01*
X111630952Y-117488095D01*
X111678571Y-117535714D01*
X111726190Y-117630952D01*
X111726190Y-118011904D01*
X112297619Y-117250000D02*
X112297619Y-116488095D01*
X111250000Y-115726190D02*
X111202380Y-115821428D01*
X111202380Y-115964285D01*
X111250000Y-116107142D01*
X111345238Y-116202380D01*
X111440476Y-116250000D01*
X111630952Y-116297619D01*
X111773809Y-116297619D01*
X111964285Y-116250000D01*
X112059523Y-116202380D01*
X112154761Y-116107142D01*
X112202380Y-115964285D01*
X112202380Y-115869047D01*
X112154761Y-115726190D01*
X112107142Y-115678571D01*
X111773809Y-115678571D01*
X111773809Y-115869047D01*
X112202380Y-115250000D02*
X111202380Y-115250000D01*
X112202380Y-114678571D01*
X111202380Y-114678571D01*
X112202380Y-114202380D02*
X111202380Y-114202380D01*
X111202380Y-113964285D01*
X111250000Y-113821428D01*
X111345238Y-113726190D01*
X111440476Y-113678571D01*
X111630952Y-113630952D01*
X111773809Y-113630952D01*
X111964285Y-113678571D01*
X112059523Y-113726190D01*
X112154761Y-113821428D01*
X112202380Y-113964285D01*
X112202380Y-114202380D01*
X112202380Y-112678571D02*
X112202380Y-113250000D01*
X112202380Y-112964285D02*
X111202380Y-112964285D01*
X111345238Y-113059523D01*
X111440476Y-113154761D01*
X111488095Y-113250000D01*
%TO.C,TP_DOUT1*%
X123178571Y-77004380D02*
X123750000Y-77004380D01*
X123464285Y-78004380D02*
X123464285Y-77004380D01*
X124083333Y-78004380D02*
X124083333Y-77004380D01*
X124464285Y-77004380D01*
X124559523Y-77052000D01*
X124607142Y-77099619D01*
X124654761Y-77194857D01*
X124654761Y-77337714D01*
X124607142Y-77432952D01*
X124559523Y-77480571D01*
X124464285Y-77528190D01*
X124083333Y-77528190D01*
X124845238Y-78099619D02*
X125607142Y-78099619D01*
X125845238Y-78004380D02*
X125845238Y-77004380D01*
X126083333Y-77004380D01*
X126226190Y-77052000D01*
X126321428Y-77147238D01*
X126369047Y-77242476D01*
X126416666Y-77432952D01*
X126416666Y-77575809D01*
X126369047Y-77766285D01*
X126321428Y-77861523D01*
X126226190Y-77956761D01*
X126083333Y-78004380D01*
X125845238Y-78004380D01*
X127035714Y-77004380D02*
X127226190Y-77004380D01*
X127321428Y-77052000D01*
X127416666Y-77147238D01*
X127464285Y-77337714D01*
X127464285Y-77671047D01*
X127416666Y-77861523D01*
X127321428Y-77956761D01*
X127226190Y-78004380D01*
X127035714Y-78004380D01*
X126940476Y-77956761D01*
X126845238Y-77861523D01*
X126797619Y-77671047D01*
X126797619Y-77337714D01*
X126845238Y-77147238D01*
X126940476Y-77052000D01*
X127035714Y-77004380D01*
X127892857Y-77004380D02*
X127892857Y-77813904D01*
X127940476Y-77909142D01*
X127988095Y-77956761D01*
X128083333Y-78004380D01*
X128273809Y-78004380D01*
X128369047Y-77956761D01*
X128416666Y-77909142D01*
X128464285Y-77813904D01*
X128464285Y-77004380D01*
X128797619Y-77004380D02*
X129369047Y-77004380D01*
X129083333Y-78004380D02*
X129083333Y-77004380D01*
X130226190Y-78004380D02*
X129654761Y-78004380D01*
X129940476Y-78004380D02*
X129940476Y-77004380D01*
X129845238Y-77147238D01*
X129750000Y-77242476D01*
X129654761Y-77290095D01*
%TO.C,TP_DIAG1*%
X124940476Y-87400380D02*
X125511904Y-87400380D01*
X125226190Y-88400380D02*
X125226190Y-87400380D01*
X125845238Y-88400380D02*
X125845238Y-87400380D01*
X126226190Y-87400380D01*
X126321428Y-87448000D01*
X126369047Y-87495619D01*
X126416666Y-87590857D01*
X126416666Y-87733714D01*
X126369047Y-87828952D01*
X126321428Y-87876571D01*
X126226190Y-87924190D01*
X125845238Y-87924190D01*
X126607142Y-88495619D02*
X127369047Y-88495619D01*
X127607142Y-88400380D02*
X127607142Y-87400380D01*
X127845238Y-87400380D01*
X127988095Y-87448000D01*
X128083333Y-87543238D01*
X128130952Y-87638476D01*
X128178571Y-87828952D01*
X128178571Y-87971809D01*
X128130952Y-88162285D01*
X128083333Y-88257523D01*
X127988095Y-88352761D01*
X127845238Y-88400380D01*
X127607142Y-88400380D01*
X128607142Y-88400380D02*
X128607142Y-87400380D01*
X129035714Y-88114666D02*
X129511904Y-88114666D01*
X128940476Y-88400380D02*
X129273809Y-87400380D01*
X129607142Y-88400380D01*
X130464285Y-87448000D02*
X130369047Y-87400380D01*
X130226190Y-87400380D01*
X130083333Y-87448000D01*
X129988095Y-87543238D01*
X129940476Y-87638476D01*
X129892857Y-87828952D01*
X129892857Y-87971809D01*
X129940476Y-88162285D01*
X129988095Y-88257523D01*
X130083333Y-88352761D01*
X130226190Y-88400380D01*
X130321428Y-88400380D01*
X130464285Y-88352761D01*
X130511904Y-88305142D01*
X130511904Y-87971809D01*
X130321428Y-87971809D01*
X131464285Y-88400380D02*
X130892857Y-88400380D01*
X131178571Y-88400380D02*
X131178571Y-87400380D01*
X131083333Y-87543238D01*
X130988095Y-87638476D01*
X130892857Y-87686095D01*
%TO.C,TP_DEC1*%
X134404761Y-107504380D02*
X134976190Y-107504380D01*
X134690476Y-108504380D02*
X134690476Y-107504380D01*
X135309523Y-108504380D02*
X135309523Y-107504380D01*
X135690476Y-107504380D01*
X135785714Y-107552000D01*
X135833333Y-107599619D01*
X135880952Y-107694857D01*
X135880952Y-107837714D01*
X135833333Y-107932952D01*
X135785714Y-107980571D01*
X135690476Y-108028190D01*
X135309523Y-108028190D01*
X136071428Y-108599619D02*
X136833333Y-108599619D01*
X137071428Y-108504380D02*
X137071428Y-107504380D01*
X137309523Y-107504380D01*
X137452380Y-107552000D01*
X137547619Y-107647238D01*
X137595238Y-107742476D01*
X137642857Y-107932952D01*
X137642857Y-108075809D01*
X137595238Y-108266285D01*
X137547619Y-108361523D01*
X137452380Y-108456761D01*
X137309523Y-108504380D01*
X137071428Y-108504380D01*
X138071428Y-107980571D02*
X138404761Y-107980571D01*
X138547619Y-108504380D02*
X138071428Y-108504380D01*
X138071428Y-107504380D01*
X138547619Y-107504380D01*
X139547619Y-108409142D02*
X139500000Y-108456761D01*
X139357142Y-108504380D01*
X139261904Y-108504380D01*
X139119047Y-108456761D01*
X139023809Y-108361523D01*
X138976190Y-108266285D01*
X138928571Y-108075809D01*
X138928571Y-107932952D01*
X138976190Y-107742476D01*
X139023809Y-107647238D01*
X139119047Y-107552000D01*
X139261904Y-107504380D01*
X139357142Y-107504380D01*
X139500000Y-107552000D01*
X139547619Y-107599619D01*
X140500000Y-108504380D02*
X139928571Y-108504380D01*
X140214285Y-108504380D02*
X140214285Y-107504380D01*
X140119047Y-107647238D01*
X140023809Y-107742476D01*
X139928571Y-107790095D01*
%TO.C,TP_CHARGE1*%
X94952380Y-74702380D02*
X95523809Y-74702380D01*
X95238095Y-75702380D02*
X95238095Y-74702380D01*
X95857142Y-75702380D02*
X95857142Y-74702380D01*
X96238095Y-74702380D01*
X96333333Y-74750000D01*
X96380952Y-74797619D01*
X96428571Y-74892857D01*
X96428571Y-75035714D01*
X96380952Y-75130952D01*
X96333333Y-75178571D01*
X96238095Y-75226190D01*
X95857142Y-75226190D01*
X96619047Y-75797619D02*
X97380952Y-75797619D01*
X98190476Y-75607142D02*
X98142857Y-75654761D01*
X98000000Y-75702380D01*
X97904761Y-75702380D01*
X97761904Y-75654761D01*
X97666666Y-75559523D01*
X97619047Y-75464285D01*
X97571428Y-75273809D01*
X97571428Y-75130952D01*
X97619047Y-74940476D01*
X97666666Y-74845238D01*
X97761904Y-74750000D01*
X97904761Y-74702380D01*
X98000000Y-74702380D01*
X98142857Y-74750000D01*
X98190476Y-74797619D01*
X98619047Y-75702380D02*
X98619047Y-74702380D01*
X98619047Y-75178571D02*
X99190476Y-75178571D01*
X99190476Y-75702380D02*
X99190476Y-74702380D01*
X99619047Y-75416666D02*
X100095238Y-75416666D01*
X99523809Y-75702380D02*
X99857142Y-74702380D01*
X100190476Y-75702380D01*
X101095238Y-75702380D02*
X100761904Y-75226190D01*
X100523809Y-75702380D02*
X100523809Y-74702380D01*
X100904761Y-74702380D01*
X101000000Y-74750000D01*
X101047619Y-74797619D01*
X101095238Y-74892857D01*
X101095238Y-75035714D01*
X101047619Y-75130952D01*
X101000000Y-75178571D01*
X100904761Y-75226190D01*
X100523809Y-75226190D01*
X102047619Y-74750000D02*
X101952380Y-74702380D01*
X101809523Y-74702380D01*
X101666666Y-74750000D01*
X101571428Y-74845238D01*
X101523809Y-74940476D01*
X101476190Y-75130952D01*
X101476190Y-75273809D01*
X101523809Y-75464285D01*
X101571428Y-75559523D01*
X101666666Y-75654761D01*
X101809523Y-75702380D01*
X101904761Y-75702380D01*
X102047619Y-75654761D01*
X102095238Y-75607142D01*
X102095238Y-75273809D01*
X101904761Y-75273809D01*
X102523809Y-75178571D02*
X102857142Y-75178571D01*
X103000000Y-75702380D02*
X102523809Y-75702380D01*
X102523809Y-74702380D01*
X103000000Y-74702380D01*
X103952380Y-75702380D02*
X103380952Y-75702380D01*
X103666666Y-75702380D02*
X103666666Y-74702380D01*
X103571428Y-74845238D01*
X103476190Y-74940476D01*
X103380952Y-74988095D01*
%TO.C,TP_20VPD1*%
X91476190Y-45004380D02*
X92047619Y-45004380D01*
X91761904Y-46004380D02*
X91761904Y-45004380D01*
X92380952Y-46004380D02*
X92380952Y-45004380D01*
X92761904Y-45004380D01*
X92857142Y-45052000D01*
X92904761Y-45099619D01*
X92952380Y-45194857D01*
X92952380Y-45337714D01*
X92904761Y-45432952D01*
X92857142Y-45480571D01*
X92761904Y-45528190D01*
X92380952Y-45528190D01*
X93142857Y-46099619D02*
X93904761Y-46099619D01*
X94095238Y-45099619D02*
X94142857Y-45052000D01*
X94238095Y-45004380D01*
X94476190Y-45004380D01*
X94571428Y-45052000D01*
X94619047Y-45099619D01*
X94666666Y-45194857D01*
X94666666Y-45290095D01*
X94619047Y-45432952D01*
X94047619Y-46004380D01*
X94666666Y-46004380D01*
X95285714Y-45004380D02*
X95380952Y-45004380D01*
X95476190Y-45052000D01*
X95523809Y-45099619D01*
X95571428Y-45194857D01*
X95619047Y-45385333D01*
X95619047Y-45623428D01*
X95571428Y-45813904D01*
X95523809Y-45909142D01*
X95476190Y-45956761D01*
X95380952Y-46004380D01*
X95285714Y-46004380D01*
X95190476Y-45956761D01*
X95142857Y-45909142D01*
X95095238Y-45813904D01*
X95047619Y-45623428D01*
X95047619Y-45385333D01*
X95095238Y-45194857D01*
X95142857Y-45099619D01*
X95190476Y-45052000D01*
X95285714Y-45004380D01*
X95904761Y-45004380D02*
X96238095Y-46004380D01*
X96571428Y-45004380D01*
X96904761Y-46004380D02*
X96904761Y-45004380D01*
X97285714Y-45004380D01*
X97380952Y-45052000D01*
X97428571Y-45099619D01*
X97476190Y-45194857D01*
X97476190Y-45337714D01*
X97428571Y-45432952D01*
X97380952Y-45480571D01*
X97285714Y-45528190D01*
X96904761Y-45528190D01*
X97904761Y-46004380D02*
X97904761Y-45004380D01*
X98142857Y-45004380D01*
X98285714Y-45052000D01*
X98380952Y-45147238D01*
X98428571Y-45242476D01*
X98476190Y-45432952D01*
X98476190Y-45575809D01*
X98428571Y-45766285D01*
X98380952Y-45861523D01*
X98285714Y-45956761D01*
X98142857Y-46004380D01*
X97904761Y-46004380D01*
X99428571Y-46004380D02*
X98857142Y-46004380D01*
X99142857Y-46004380D02*
X99142857Y-45004380D01*
X99047619Y-45147238D01*
X98952380Y-45242476D01*
X98857142Y-45290095D01*
%TO.C,TP_3V3_MIC1*%
X115702380Y-116214285D02*
X115702380Y-115642857D01*
X116702380Y-115928571D02*
X115702380Y-115928571D01*
X116702380Y-115309523D02*
X115702380Y-115309523D01*
X115702380Y-114928571D01*
X115750000Y-114833333D01*
X115797619Y-114785714D01*
X115892857Y-114738095D01*
X116035714Y-114738095D01*
X116130952Y-114785714D01*
X116178571Y-114833333D01*
X116226190Y-114928571D01*
X116226190Y-115309523D01*
X116797619Y-114547619D02*
X116797619Y-113785714D01*
X115702380Y-113642857D02*
X115702380Y-113023809D01*
X116083333Y-113357142D01*
X116083333Y-113214285D01*
X116130952Y-113119047D01*
X116178571Y-113071428D01*
X116273809Y-113023809D01*
X116511904Y-113023809D01*
X116607142Y-113071428D01*
X116654761Y-113119047D01*
X116702380Y-113214285D01*
X116702380Y-113500000D01*
X116654761Y-113595238D01*
X116607142Y-113642857D01*
X115702380Y-112738095D02*
X116702380Y-112404761D01*
X115702380Y-112071428D01*
X115702380Y-111833333D02*
X115702380Y-111214285D01*
X116083333Y-111547619D01*
X116083333Y-111404761D01*
X116130952Y-111309523D01*
X116178571Y-111261904D01*
X116273809Y-111214285D01*
X116511904Y-111214285D01*
X116607142Y-111261904D01*
X116654761Y-111309523D01*
X116702380Y-111404761D01*
X116702380Y-111690476D01*
X116654761Y-111785714D01*
X116607142Y-111833333D01*
X116797619Y-111023809D02*
X116797619Y-110261904D01*
X116702380Y-110023809D02*
X115702380Y-110023809D01*
X116416666Y-109690476D01*
X115702380Y-109357142D01*
X116702380Y-109357142D01*
X116702380Y-108880952D02*
X115702380Y-108880952D01*
X116607142Y-107833333D02*
X116654761Y-107880952D01*
X116702380Y-108023809D01*
X116702380Y-108119047D01*
X116654761Y-108261904D01*
X116559523Y-108357142D01*
X116464285Y-108404761D01*
X116273809Y-108452380D01*
X116130952Y-108452380D01*
X115940476Y-108404761D01*
X115845238Y-108357142D01*
X115750000Y-108261904D01*
X115702380Y-108119047D01*
X115702380Y-108023809D01*
X115750000Y-107880952D01*
X115797619Y-107833333D01*
X116702380Y-106880952D02*
X116702380Y-107452380D01*
X116702380Y-107166666D02*
X115702380Y-107166666D01*
X115845238Y-107261904D01*
X115940476Y-107357142D01*
X115988095Y-107452380D01*
%TO.C,TP_3V3*%
X99952380Y-45004380D02*
X100523809Y-45004380D01*
X100238095Y-46004380D02*
X100238095Y-45004380D01*
X100857142Y-46004380D02*
X100857142Y-45004380D01*
X101238095Y-45004380D01*
X101333333Y-45052000D01*
X101380952Y-45099619D01*
X101428571Y-45194857D01*
X101428571Y-45337714D01*
X101380952Y-45432952D01*
X101333333Y-45480571D01*
X101238095Y-45528190D01*
X100857142Y-45528190D01*
X101619047Y-46099619D02*
X102380952Y-46099619D01*
X102523809Y-45004380D02*
X103142857Y-45004380D01*
X102809523Y-45385333D01*
X102952380Y-45385333D01*
X103047619Y-45432952D01*
X103095238Y-45480571D01*
X103142857Y-45575809D01*
X103142857Y-45813904D01*
X103095238Y-45909142D01*
X103047619Y-45956761D01*
X102952380Y-46004380D01*
X102666666Y-46004380D01*
X102571428Y-45956761D01*
X102523809Y-45909142D01*
X103428571Y-45004380D02*
X103761904Y-46004380D01*
X104095238Y-45004380D01*
X104333333Y-45004380D02*
X104952380Y-45004380D01*
X104619047Y-45385333D01*
X104761904Y-45385333D01*
X104857142Y-45432952D01*
X104904761Y-45480571D01*
X104952380Y-45575809D01*
X104952380Y-45813904D01*
X104904761Y-45909142D01*
X104857142Y-45956761D01*
X104761904Y-46004380D01*
X104476190Y-46004380D01*
X104380952Y-45956761D01*
X104333333Y-45909142D01*
%TO.C,J4*%
X118416666Y-76322380D02*
X118416666Y-77036666D01*
X118369047Y-77179523D01*
X118273809Y-77274761D01*
X118130952Y-77322380D01*
X118035714Y-77322380D01*
X119321428Y-76655714D02*
X119321428Y-77322380D01*
X119083333Y-76274761D02*
X118845238Y-76989047D01*
X119464285Y-76989047D01*
%TO.C,R12*%
X109857142Y-54452380D02*
X109523809Y-53976190D01*
X109285714Y-54452380D02*
X109285714Y-53452380D01*
X109666666Y-53452380D01*
X109761904Y-53500000D01*
X109809523Y-53547619D01*
X109857142Y-53642857D01*
X109857142Y-53785714D01*
X109809523Y-53880952D01*
X109761904Y-53928571D01*
X109666666Y-53976190D01*
X109285714Y-53976190D01*
X110809523Y-54452380D02*
X110238095Y-54452380D01*
X110523809Y-54452380D02*
X110523809Y-53452380D01*
X110428571Y-53595238D01*
X110333333Y-53690476D01*
X110238095Y-53738095D01*
X111190476Y-53547619D02*
X111238095Y-53500000D01*
X111333333Y-53452380D01*
X111571428Y-53452380D01*
X111666666Y-53500000D01*
X111714285Y-53547619D01*
X111761904Y-53642857D01*
X111761904Y-53738095D01*
X111714285Y-53880952D01*
X111142857Y-54452380D01*
X111761904Y-54452380D01*
%TO.C,C30*%
X76357142Y-91357142D02*
X76309523Y-91404761D01*
X76166666Y-91452380D01*
X76071428Y-91452380D01*
X75928571Y-91404761D01*
X75833333Y-91309523D01*
X75785714Y-91214285D01*
X75738095Y-91023809D01*
X75738095Y-90880952D01*
X75785714Y-90690476D01*
X75833333Y-90595238D01*
X75928571Y-90500000D01*
X76071428Y-90452380D01*
X76166666Y-90452380D01*
X76309523Y-90500000D01*
X76357142Y-90547619D01*
X76690476Y-90452380D02*
X77309523Y-90452380D01*
X76976190Y-90833333D01*
X77119047Y-90833333D01*
X77214285Y-90880952D01*
X77261904Y-90928571D01*
X77309523Y-91023809D01*
X77309523Y-91261904D01*
X77261904Y-91357142D01*
X77214285Y-91404761D01*
X77119047Y-91452380D01*
X76833333Y-91452380D01*
X76738095Y-91404761D01*
X76690476Y-91357142D01*
X77928571Y-90452380D02*
X78023809Y-90452380D01*
X78119047Y-90500000D01*
X78166666Y-90547619D01*
X78214285Y-90642857D01*
X78261904Y-90833333D01*
X78261904Y-91071428D01*
X78214285Y-91261904D01*
X78166666Y-91357142D01*
X78119047Y-91404761D01*
X78023809Y-91452380D01*
X77928571Y-91452380D01*
X77833333Y-91404761D01*
X77785714Y-91357142D01*
X77738095Y-91261904D01*
X77690476Y-91071428D01*
X77690476Y-90833333D01*
X77738095Y-90642857D01*
X77785714Y-90547619D01*
X77833333Y-90500000D01*
X77928571Y-90452380D01*
%TO.C,R22*%
X156357142Y-85452380D02*
X156023809Y-84976190D01*
X155785714Y-85452380D02*
X155785714Y-84452380D01*
X156166666Y-84452380D01*
X156261904Y-84500000D01*
X156309523Y-84547619D01*
X156357142Y-84642857D01*
X156357142Y-84785714D01*
X156309523Y-84880952D01*
X156261904Y-84928571D01*
X156166666Y-84976190D01*
X155785714Y-84976190D01*
X156738095Y-84547619D02*
X156785714Y-84500000D01*
X156880952Y-84452380D01*
X157119047Y-84452380D01*
X157214285Y-84500000D01*
X157261904Y-84547619D01*
X157309523Y-84642857D01*
X157309523Y-84738095D01*
X157261904Y-84880952D01*
X156690476Y-85452380D01*
X157309523Y-85452380D01*
X157690476Y-84547619D02*
X157738095Y-84500000D01*
X157833333Y-84452380D01*
X158071428Y-84452380D01*
X158166666Y-84500000D01*
X158214285Y-84547619D01*
X158261904Y-84642857D01*
X158261904Y-84738095D01*
X158214285Y-84880952D01*
X157642857Y-85452380D01*
X158261904Y-85452380D01*
%TO.C,C22*%
X102107142Y-105857142D02*
X102059523Y-105904761D01*
X101916666Y-105952380D01*
X101821428Y-105952380D01*
X101678571Y-105904761D01*
X101583333Y-105809523D01*
X101535714Y-105714285D01*
X101488095Y-105523809D01*
X101488095Y-105380952D01*
X101535714Y-105190476D01*
X101583333Y-105095238D01*
X101678571Y-105000000D01*
X101821428Y-104952380D01*
X101916666Y-104952380D01*
X102059523Y-105000000D01*
X102107142Y-105047619D01*
X102488095Y-105047619D02*
X102535714Y-105000000D01*
X102630952Y-104952380D01*
X102869047Y-104952380D01*
X102964285Y-105000000D01*
X103011904Y-105047619D01*
X103059523Y-105142857D01*
X103059523Y-105238095D01*
X103011904Y-105380952D01*
X102440476Y-105952380D01*
X103059523Y-105952380D01*
X103440476Y-105047619D02*
X103488095Y-105000000D01*
X103583333Y-104952380D01*
X103821428Y-104952380D01*
X103916666Y-105000000D01*
X103964285Y-105047619D01*
X104011904Y-105142857D01*
X104011904Y-105238095D01*
X103964285Y-105380952D01*
X103392857Y-105952380D01*
X104011904Y-105952380D01*
%TO.C,C12*%
X106857142Y-112357142D02*
X106809523Y-112404761D01*
X106666666Y-112452380D01*
X106571428Y-112452380D01*
X106428571Y-112404761D01*
X106333333Y-112309523D01*
X106285714Y-112214285D01*
X106238095Y-112023809D01*
X106238095Y-111880952D01*
X106285714Y-111690476D01*
X106333333Y-111595238D01*
X106428571Y-111500000D01*
X106571428Y-111452380D01*
X106666666Y-111452380D01*
X106809523Y-111500000D01*
X106857142Y-111547619D01*
X107809523Y-112452380D02*
X107238095Y-112452380D01*
X107523809Y-112452380D02*
X107523809Y-111452380D01*
X107428571Y-111595238D01*
X107333333Y-111690476D01*
X107238095Y-111738095D01*
X108190476Y-111547619D02*
X108238095Y-111500000D01*
X108333333Y-111452380D01*
X108571428Y-111452380D01*
X108666666Y-111500000D01*
X108714285Y-111547619D01*
X108761904Y-111642857D01*
X108761904Y-111738095D01*
X108714285Y-111880952D01*
X108142857Y-112452380D01*
X108761904Y-112452380D01*
%TO.C,R20*%
X154857142Y-81652380D02*
X154523809Y-81176190D01*
X154285714Y-81652380D02*
X154285714Y-80652380D01*
X154666666Y-80652380D01*
X154761904Y-80700000D01*
X154809523Y-80747619D01*
X154857142Y-80842857D01*
X154857142Y-80985714D01*
X154809523Y-81080952D01*
X154761904Y-81128571D01*
X154666666Y-81176190D01*
X154285714Y-81176190D01*
X155238095Y-80747619D02*
X155285714Y-80700000D01*
X155380952Y-80652380D01*
X155619047Y-80652380D01*
X155714285Y-80700000D01*
X155761904Y-80747619D01*
X155809523Y-80842857D01*
X155809523Y-80938095D01*
X155761904Y-81080952D01*
X155190476Y-81652380D01*
X155809523Y-81652380D01*
X156428571Y-80652380D02*
X156523809Y-80652380D01*
X156619047Y-80700000D01*
X156666666Y-80747619D01*
X156714285Y-80842857D01*
X156761904Y-81033333D01*
X156761904Y-81271428D01*
X156714285Y-81461904D01*
X156666666Y-81557142D01*
X156619047Y-81604761D01*
X156523809Y-81652380D01*
X156428571Y-81652380D01*
X156333333Y-81604761D01*
X156285714Y-81557142D01*
X156238095Y-81461904D01*
X156190476Y-81271428D01*
X156190476Y-81033333D01*
X156238095Y-80842857D01*
X156285714Y-80747619D01*
X156333333Y-80700000D01*
X156428571Y-80652380D01*
%TO.C,Q3*%
X98154761Y-62547619D02*
X98059523Y-62500000D01*
X97964285Y-62404761D01*
X97821428Y-62261904D01*
X97726190Y-62214285D01*
X97630952Y-62214285D01*
X97678571Y-62452380D02*
X97583333Y-62404761D01*
X97488095Y-62309523D01*
X97440476Y-62119047D01*
X97440476Y-61785714D01*
X97488095Y-61595238D01*
X97583333Y-61500000D01*
X97678571Y-61452380D01*
X97869047Y-61452380D01*
X97964285Y-61500000D01*
X98059523Y-61595238D01*
X98107142Y-61785714D01*
X98107142Y-62119047D01*
X98059523Y-62309523D01*
X97964285Y-62404761D01*
X97869047Y-62452380D01*
X97678571Y-62452380D01*
X98440476Y-61452380D02*
X99059523Y-61452380D01*
X98726190Y-61833333D01*
X98869047Y-61833333D01*
X98964285Y-61880952D01*
X99011904Y-61928571D01*
X99059523Y-62023809D01*
X99059523Y-62261904D01*
X99011904Y-62357142D01*
X98964285Y-62404761D01*
X98869047Y-62452380D01*
X98583333Y-62452380D01*
X98488095Y-62404761D01*
X98440476Y-62357142D01*
%TO.C,C18*%
X103107142Y-95107142D02*
X103059523Y-95154761D01*
X102916666Y-95202380D01*
X102821428Y-95202380D01*
X102678571Y-95154761D01*
X102583333Y-95059523D01*
X102535714Y-94964285D01*
X102488095Y-94773809D01*
X102488095Y-94630952D01*
X102535714Y-94440476D01*
X102583333Y-94345238D01*
X102678571Y-94250000D01*
X102821428Y-94202380D01*
X102916666Y-94202380D01*
X103059523Y-94250000D01*
X103107142Y-94297619D01*
X104059523Y-95202380D02*
X103488095Y-95202380D01*
X103773809Y-95202380D02*
X103773809Y-94202380D01*
X103678571Y-94345238D01*
X103583333Y-94440476D01*
X103488095Y-94488095D01*
X104630952Y-94630952D02*
X104535714Y-94583333D01*
X104488095Y-94535714D01*
X104440476Y-94440476D01*
X104440476Y-94392857D01*
X104488095Y-94297619D01*
X104535714Y-94250000D01*
X104630952Y-94202380D01*
X104821428Y-94202380D01*
X104916666Y-94250000D01*
X104964285Y-94297619D01*
X105011904Y-94392857D01*
X105011904Y-94440476D01*
X104964285Y-94535714D01*
X104916666Y-94583333D01*
X104821428Y-94630952D01*
X104630952Y-94630952D01*
X104535714Y-94678571D01*
X104488095Y-94726190D01*
X104440476Y-94821428D01*
X104440476Y-95011904D01*
X104488095Y-95107142D01*
X104535714Y-95154761D01*
X104630952Y-95202380D01*
X104821428Y-95202380D01*
X104916666Y-95154761D01*
X104964285Y-95107142D01*
X105011904Y-95011904D01*
X105011904Y-94821428D01*
X104964285Y-94726190D01*
X104916666Y-94678571D01*
X104821428Y-94630952D01*
%TO.C,R17*%
X85157142Y-117422380D02*
X84823809Y-116946190D01*
X84585714Y-117422380D02*
X84585714Y-116422380D01*
X84966666Y-116422380D01*
X85061904Y-116470000D01*
X85109523Y-116517619D01*
X85157142Y-116612857D01*
X85157142Y-116755714D01*
X85109523Y-116850952D01*
X85061904Y-116898571D01*
X84966666Y-116946190D01*
X84585714Y-116946190D01*
X86109523Y-117422380D02*
X85538095Y-117422380D01*
X85823809Y-117422380D02*
X85823809Y-116422380D01*
X85728571Y-116565238D01*
X85633333Y-116660476D01*
X85538095Y-116708095D01*
X86442857Y-116422380D02*
X87109523Y-116422380D01*
X86680952Y-117422380D01*
%TO.C,R4*%
X85833333Y-105952380D02*
X85500000Y-105476190D01*
X85261904Y-105952380D02*
X85261904Y-104952380D01*
X85642857Y-104952380D01*
X85738095Y-105000000D01*
X85785714Y-105047619D01*
X85833333Y-105142857D01*
X85833333Y-105285714D01*
X85785714Y-105380952D01*
X85738095Y-105428571D01*
X85642857Y-105476190D01*
X85261904Y-105476190D01*
X86690476Y-105285714D02*
X86690476Y-105952380D01*
X86452380Y-104904761D02*
X86214285Y-105619047D01*
X86833333Y-105619047D01*
%TO.C,U6*%
X104202380Y-112661904D02*
X105011904Y-112661904D01*
X105107142Y-112614285D01*
X105154761Y-112566666D01*
X105202380Y-112471428D01*
X105202380Y-112280952D01*
X105154761Y-112185714D01*
X105107142Y-112138095D01*
X105011904Y-112090476D01*
X104202380Y-112090476D01*
X104202380Y-111185714D02*
X104202380Y-111376190D01*
X104250000Y-111471428D01*
X104297619Y-111519047D01*
X104440476Y-111614285D01*
X104630952Y-111661904D01*
X105011904Y-111661904D01*
X105107142Y-111614285D01*
X105154761Y-111566666D01*
X105202380Y-111471428D01*
X105202380Y-111280952D01*
X105154761Y-111185714D01*
X105107142Y-111138095D01*
X105011904Y-111090476D01*
X104773809Y-111090476D01*
X104678571Y-111138095D01*
X104630952Y-111185714D01*
X104583333Y-111280952D01*
X104583333Y-111471428D01*
X104630952Y-111566666D01*
X104678571Y-111614285D01*
X104773809Y-111661904D01*
%TO.C,R16*%
X116607142Y-105382380D02*
X116273809Y-104906190D01*
X116035714Y-105382380D02*
X116035714Y-104382380D01*
X116416666Y-104382380D01*
X116511904Y-104430000D01*
X116559523Y-104477619D01*
X116607142Y-104572857D01*
X116607142Y-104715714D01*
X116559523Y-104810952D01*
X116511904Y-104858571D01*
X116416666Y-104906190D01*
X116035714Y-104906190D01*
X117559523Y-105382380D02*
X116988095Y-105382380D01*
X117273809Y-105382380D02*
X117273809Y-104382380D01*
X117178571Y-104525238D01*
X117083333Y-104620476D01*
X116988095Y-104668095D01*
X118416666Y-104382380D02*
X118226190Y-104382380D01*
X118130952Y-104430000D01*
X118083333Y-104477619D01*
X117988095Y-104620476D01*
X117940476Y-104810952D01*
X117940476Y-105191904D01*
X117988095Y-105287142D01*
X118035714Y-105334761D01*
X118130952Y-105382380D01*
X118321428Y-105382380D01*
X118416666Y-105334761D01*
X118464285Y-105287142D01*
X118511904Y-105191904D01*
X118511904Y-104953809D01*
X118464285Y-104858571D01*
X118416666Y-104810952D01*
X118321428Y-104763333D01*
X118130952Y-104763333D01*
X118035714Y-104810952D01*
X117988095Y-104858571D01*
X117940476Y-104953809D01*
%TO.C,C15*%
X106927142Y-96792857D02*
X106974761Y-96840476D01*
X107022380Y-96983333D01*
X107022380Y-97078571D01*
X106974761Y-97221428D01*
X106879523Y-97316666D01*
X106784285Y-97364285D01*
X106593809Y-97411904D01*
X106450952Y-97411904D01*
X106260476Y-97364285D01*
X106165238Y-97316666D01*
X106070000Y-97221428D01*
X106022380Y-97078571D01*
X106022380Y-96983333D01*
X106070000Y-96840476D01*
X106117619Y-96792857D01*
X107022380Y-95840476D02*
X107022380Y-96411904D01*
X107022380Y-96126190D02*
X106022380Y-96126190D01*
X106165238Y-96221428D01*
X106260476Y-96316666D01*
X106308095Y-96411904D01*
X106022380Y-94935714D02*
X106022380Y-95411904D01*
X106498571Y-95459523D01*
X106450952Y-95411904D01*
X106403333Y-95316666D01*
X106403333Y-95078571D01*
X106450952Y-94983333D01*
X106498571Y-94935714D01*
X106593809Y-94888095D01*
X106831904Y-94888095D01*
X106927142Y-94935714D01*
X106974761Y-94983333D01*
X107022380Y-95078571D01*
X107022380Y-95316666D01*
X106974761Y-95411904D01*
X106927142Y-95459523D01*
%TO.C,JP5*%
X88416666Y-114952380D02*
X88416666Y-115666666D01*
X88369047Y-115809523D01*
X88273809Y-115904761D01*
X88130952Y-115952380D01*
X88035714Y-115952380D01*
X88892857Y-115952380D02*
X88892857Y-114952380D01*
X89273809Y-114952380D01*
X89369047Y-115000000D01*
X89416666Y-115047619D01*
X89464285Y-115142857D01*
X89464285Y-115285714D01*
X89416666Y-115380952D01*
X89369047Y-115428571D01*
X89273809Y-115476190D01*
X88892857Y-115476190D01*
X90369047Y-114952380D02*
X89892857Y-114952380D01*
X89845238Y-115428571D01*
X89892857Y-115380952D01*
X89988095Y-115333333D01*
X90226190Y-115333333D01*
X90321428Y-115380952D01*
X90369047Y-115428571D01*
X90416666Y-115523809D01*
X90416666Y-115761904D01*
X90369047Y-115857142D01*
X90321428Y-115904761D01*
X90226190Y-115952380D01*
X89988095Y-115952380D01*
X89892857Y-115904761D01*
X89845238Y-115857142D01*
%TO.C,Q1*%
X124904761Y-53797619D02*
X124809523Y-53750000D01*
X124714285Y-53654761D01*
X124571428Y-53511904D01*
X124476190Y-53464285D01*
X124380952Y-53464285D01*
X124428571Y-53702380D02*
X124333333Y-53654761D01*
X124238095Y-53559523D01*
X124190476Y-53369047D01*
X124190476Y-53035714D01*
X124238095Y-52845238D01*
X124333333Y-52750000D01*
X124428571Y-52702380D01*
X124619047Y-52702380D01*
X124714285Y-52750000D01*
X124809523Y-52845238D01*
X124857142Y-53035714D01*
X124857142Y-53369047D01*
X124809523Y-53559523D01*
X124714285Y-53654761D01*
X124619047Y-53702380D01*
X124428571Y-53702380D01*
X125809523Y-53702380D02*
X125238095Y-53702380D01*
X125523809Y-53702380D02*
X125523809Y-52702380D01*
X125428571Y-52845238D01*
X125333333Y-52940476D01*
X125238095Y-52988095D01*
X125000000Y-50202380D02*
X125000000Y-50440476D01*
X124761904Y-50345238D02*
X125000000Y-50440476D01*
X125238095Y-50345238D01*
X124857142Y-50630952D02*
X125000000Y-50440476D01*
X125142857Y-50630952D01*
%TO.C,C23*%
X102416562Y-96607142D02*
X102368943Y-96654761D01*
X102226086Y-96702380D01*
X102130848Y-96702380D01*
X101987991Y-96654761D01*
X101892753Y-96559523D01*
X101845134Y-96464285D01*
X101797515Y-96273809D01*
X101797515Y-96130952D01*
X101845134Y-95940476D01*
X101892753Y-95845238D01*
X101987991Y-95750000D01*
X102130848Y-95702380D01*
X102226086Y-95702380D01*
X102368943Y-95750000D01*
X102416562Y-95797619D01*
X102797515Y-95797619D02*
X102845134Y-95750000D01*
X102940372Y-95702380D01*
X103178467Y-95702380D01*
X103273705Y-95750000D01*
X103321324Y-95797619D01*
X103368943Y-95892857D01*
X103368943Y-95988095D01*
X103321324Y-96130952D01*
X102749896Y-96702380D01*
X103368943Y-96702380D01*
X103702277Y-95702380D02*
X104321324Y-95702380D01*
X103987991Y-96083333D01*
X104130848Y-96083333D01*
X104226086Y-96130952D01*
X104273705Y-96178571D01*
X104321324Y-96273809D01*
X104321324Y-96511904D01*
X104273705Y-96607142D01*
X104226086Y-96654761D01*
X104130848Y-96702380D01*
X103845134Y-96702380D01*
X103749896Y-96654761D01*
X103702277Y-96607142D01*
%TO.C,U1*%
X91238095Y-91752380D02*
X91238095Y-92561904D01*
X91285714Y-92657142D01*
X91333333Y-92704761D01*
X91428571Y-92752380D01*
X91619047Y-92752380D01*
X91714285Y-92704761D01*
X91761904Y-92657142D01*
X91809523Y-92561904D01*
X91809523Y-91752380D01*
X92809523Y-92752380D02*
X92238095Y-92752380D01*
X92523809Y-92752380D02*
X92523809Y-91752380D01*
X92428571Y-91895238D01*
X92333333Y-91990476D01*
X92238095Y-92038095D01*
%TO.C,SW2*%
X79666666Y-119354761D02*
X79809523Y-119402380D01*
X80047619Y-119402380D01*
X80142857Y-119354761D01*
X80190476Y-119307142D01*
X80238095Y-119211904D01*
X80238095Y-119116666D01*
X80190476Y-119021428D01*
X80142857Y-118973809D01*
X80047619Y-118926190D01*
X79857142Y-118878571D01*
X79761904Y-118830952D01*
X79714285Y-118783333D01*
X79666666Y-118688095D01*
X79666666Y-118592857D01*
X79714285Y-118497619D01*
X79761904Y-118450000D01*
X79857142Y-118402380D01*
X80095238Y-118402380D01*
X80238095Y-118450000D01*
X80571428Y-118402380D02*
X80809523Y-119402380D01*
X81000000Y-118688095D01*
X81190476Y-119402380D01*
X81428571Y-118402380D01*
X81761904Y-118497619D02*
X81809523Y-118450000D01*
X81904761Y-118402380D01*
X82142857Y-118402380D01*
X82238095Y-118450000D01*
X82285714Y-118497619D01*
X82333333Y-118592857D01*
X82333333Y-118688095D01*
X82285714Y-118830952D01*
X81714285Y-119402380D01*
X82333333Y-119402380D01*
%TO.C,C16*%
X102357142Y-93357142D02*
X102309523Y-93404761D01*
X102166666Y-93452380D01*
X102071428Y-93452380D01*
X101928571Y-93404761D01*
X101833333Y-93309523D01*
X101785714Y-93214285D01*
X101738095Y-93023809D01*
X101738095Y-92880952D01*
X101785714Y-92690476D01*
X101833333Y-92595238D01*
X101928571Y-92500000D01*
X102071428Y-92452380D01*
X102166666Y-92452380D01*
X102309523Y-92500000D01*
X102357142Y-92547619D01*
X103309523Y-93452380D02*
X102738095Y-93452380D01*
X103023809Y-93452380D02*
X103023809Y-92452380D01*
X102928571Y-92595238D01*
X102833333Y-92690476D01*
X102738095Y-92738095D01*
X104166666Y-92452380D02*
X103976190Y-92452380D01*
X103880952Y-92500000D01*
X103833333Y-92547619D01*
X103738095Y-92690476D01*
X103690476Y-92880952D01*
X103690476Y-93261904D01*
X103738095Y-93357142D01*
X103785714Y-93404761D01*
X103880952Y-93452380D01*
X104071428Y-93452380D01*
X104166666Y-93404761D01*
X104214285Y-93357142D01*
X104261904Y-93261904D01*
X104261904Y-93023809D01*
X104214285Y-92928571D01*
X104166666Y-92880952D01*
X104071428Y-92833333D01*
X103880952Y-92833333D01*
X103785714Y-92880952D01*
X103738095Y-92928571D01*
X103690476Y-93023809D01*
%TO.C,C19*%
X110857142Y-112357142D02*
X110809523Y-112404761D01*
X110666666Y-112452380D01*
X110571428Y-112452380D01*
X110428571Y-112404761D01*
X110333333Y-112309523D01*
X110285714Y-112214285D01*
X110238095Y-112023809D01*
X110238095Y-111880952D01*
X110285714Y-111690476D01*
X110333333Y-111595238D01*
X110428571Y-111500000D01*
X110571428Y-111452380D01*
X110666666Y-111452380D01*
X110809523Y-111500000D01*
X110857142Y-111547619D01*
X111809523Y-112452380D02*
X111238095Y-112452380D01*
X111523809Y-112452380D02*
X111523809Y-111452380D01*
X111428571Y-111595238D01*
X111333333Y-111690476D01*
X111238095Y-111738095D01*
X112285714Y-112452380D02*
X112476190Y-112452380D01*
X112571428Y-112404761D01*
X112619047Y-112357142D01*
X112714285Y-112214285D01*
X112761904Y-112023809D01*
X112761904Y-111642857D01*
X112714285Y-111547619D01*
X112666666Y-111500000D01*
X112571428Y-111452380D01*
X112380952Y-111452380D01*
X112285714Y-111500000D01*
X112238095Y-111547619D01*
X112190476Y-111642857D01*
X112190476Y-111880952D01*
X112238095Y-111976190D01*
X112285714Y-112023809D01*
X112380952Y-112071428D01*
X112571428Y-112071428D01*
X112666666Y-112023809D01*
X112714285Y-111976190D01*
X112761904Y-111880952D01*
%TO.C,H4*%
X92238095Y-132452380D02*
X92238095Y-131452380D01*
X92238095Y-131928571D02*
X92809523Y-131928571D01*
X92809523Y-132452380D02*
X92809523Y-131452380D01*
X93714285Y-131785714D02*
X93714285Y-132452380D01*
X93476190Y-131404761D02*
X93238095Y-132119047D01*
X93857142Y-132119047D01*
%TO.C,C3*%
X116857142Y-62666666D02*
X116904761Y-62714285D01*
X116952380Y-62857142D01*
X116952380Y-62952380D01*
X116904761Y-63095238D01*
X116809523Y-63190476D01*
X116714285Y-63238095D01*
X116523809Y-63285714D01*
X116380952Y-63285714D01*
X116190476Y-63238095D01*
X116095238Y-63190476D01*
X116000000Y-63095238D01*
X115952380Y-62952380D01*
X115952380Y-62857142D01*
X116000000Y-62714285D01*
X116047619Y-62666666D01*
X115952380Y-62333333D02*
X115952380Y-61714285D01*
X116333333Y-62047619D01*
X116333333Y-61904761D01*
X116380952Y-61809523D01*
X116428571Y-61761904D01*
X116523809Y-61714285D01*
X116761904Y-61714285D01*
X116857142Y-61761904D01*
X116904761Y-61809523D01*
X116952380Y-61904761D01*
X116952380Y-62190476D01*
X116904761Y-62285714D01*
X116857142Y-62333333D01*
%TO.C,C6*%
X155833333Y-60857142D02*
X155785714Y-60904761D01*
X155642857Y-60952380D01*
X155547619Y-60952380D01*
X155404761Y-60904761D01*
X155309523Y-60809523D01*
X155261904Y-60714285D01*
X155214285Y-60523809D01*
X155214285Y-60380952D01*
X155261904Y-60190476D01*
X155309523Y-60095238D01*
X155404761Y-60000000D01*
X155547619Y-59952380D01*
X155642857Y-59952380D01*
X155785714Y-60000000D01*
X155833333Y-60047619D01*
X156690476Y-59952380D02*
X156500000Y-59952380D01*
X156404761Y-60000000D01*
X156357142Y-60047619D01*
X156261904Y-60190476D01*
X156214285Y-60380952D01*
X156214285Y-60761904D01*
X156261904Y-60857142D01*
X156309523Y-60904761D01*
X156404761Y-60952380D01*
X156595238Y-60952380D01*
X156690476Y-60904761D01*
X156738095Y-60857142D01*
X156785714Y-60761904D01*
X156785714Y-60523809D01*
X156738095Y-60428571D01*
X156690476Y-60380952D01*
X156595238Y-60333333D01*
X156404761Y-60333333D01*
X156309523Y-60380952D01*
X156261904Y-60428571D01*
X156214285Y-60523809D01*
%TO.C,JP4*%
X96666666Y-88652380D02*
X96666666Y-89366666D01*
X96619047Y-89509523D01*
X96523809Y-89604761D01*
X96380952Y-89652380D01*
X96285714Y-89652380D01*
X97142857Y-89652380D02*
X97142857Y-88652380D01*
X97523809Y-88652380D01*
X97619047Y-88700000D01*
X97666666Y-88747619D01*
X97714285Y-88842857D01*
X97714285Y-88985714D01*
X97666666Y-89080952D01*
X97619047Y-89128571D01*
X97523809Y-89176190D01*
X97142857Y-89176190D01*
X98571428Y-88985714D02*
X98571428Y-89652380D01*
X98333333Y-88604761D02*
X98095238Y-89319047D01*
X98714285Y-89319047D01*
%TO.C,C1*%
X123833333Y-56357142D02*
X123785714Y-56404761D01*
X123642857Y-56452380D01*
X123547619Y-56452380D01*
X123404761Y-56404761D01*
X123309523Y-56309523D01*
X123261904Y-56214285D01*
X123214285Y-56023809D01*
X123214285Y-55880952D01*
X123261904Y-55690476D01*
X123309523Y-55595238D01*
X123404761Y-55500000D01*
X123547619Y-55452380D01*
X123642857Y-55452380D01*
X123785714Y-55500000D01*
X123833333Y-55547619D01*
X124785714Y-56452380D02*
X124214285Y-56452380D01*
X124500000Y-56452380D02*
X124500000Y-55452380D01*
X124404761Y-55595238D01*
X124309523Y-55690476D01*
X124214285Y-55738095D01*
%TO.C,C34*%
X107857142Y-47857142D02*
X107809523Y-47904761D01*
X107666666Y-47952380D01*
X107571428Y-47952380D01*
X107428571Y-47904761D01*
X107333333Y-47809523D01*
X107285714Y-47714285D01*
X107238095Y-47523809D01*
X107238095Y-47380952D01*
X107285714Y-47190476D01*
X107333333Y-47095238D01*
X107428571Y-47000000D01*
X107571428Y-46952380D01*
X107666666Y-46952380D01*
X107809523Y-47000000D01*
X107857142Y-47047619D01*
X108190476Y-46952380D02*
X108809523Y-46952380D01*
X108476190Y-47333333D01*
X108619047Y-47333333D01*
X108714285Y-47380952D01*
X108761904Y-47428571D01*
X108809523Y-47523809D01*
X108809523Y-47761904D01*
X108761904Y-47857142D01*
X108714285Y-47904761D01*
X108619047Y-47952380D01*
X108333333Y-47952380D01*
X108238095Y-47904761D01*
X108190476Y-47857142D01*
X109666666Y-47285714D02*
X109666666Y-47952380D01*
X109428571Y-46904761D02*
X109190476Y-47619047D01*
X109809523Y-47619047D01*
%TO.C,R14*%
X122202380Y-47880115D02*
X121726190Y-48213448D01*
X122202380Y-48451543D02*
X121202380Y-48451543D01*
X121202380Y-48070591D01*
X121250000Y-47975353D01*
X121297619Y-47927734D01*
X121392857Y-47880115D01*
X121535714Y-47880115D01*
X121630952Y-47927734D01*
X121678571Y-47975353D01*
X121726190Y-48070591D01*
X121726190Y-48451543D01*
X122202380Y-46927734D02*
X122202380Y-47499162D01*
X122202380Y-47213448D02*
X121202380Y-47213448D01*
X121345238Y-47308686D01*
X121440476Y-47403924D01*
X121488095Y-47499162D01*
X121535714Y-46070591D02*
X122202380Y-46070591D01*
X121154761Y-46308686D02*
X121869047Y-46546781D01*
X121869047Y-45927734D01*
%TO.C,U5*%
X113488095Y-106452380D02*
X113488095Y-107261904D01*
X113535714Y-107357142D01*
X113583333Y-107404761D01*
X113678571Y-107452380D01*
X113869047Y-107452380D01*
X113964285Y-107404761D01*
X114011904Y-107357142D01*
X114059523Y-107261904D01*
X114059523Y-106452380D01*
X115011904Y-106452380D02*
X114535714Y-106452380D01*
X114488095Y-106928571D01*
X114535714Y-106880952D01*
X114630952Y-106833333D01*
X114869047Y-106833333D01*
X114964285Y-106880952D01*
X115011904Y-106928571D01*
X115059523Y-107023809D01*
X115059523Y-107261904D01*
X115011904Y-107357142D01*
X114964285Y-107404761D01*
X114869047Y-107452380D01*
X114630952Y-107452380D01*
X114535714Y-107404761D01*
X114488095Y-107357142D01*
%TO.C,R8*%
X82583333Y-52202380D02*
X82250000Y-51726190D01*
X82011904Y-52202380D02*
X82011904Y-51202380D01*
X82392857Y-51202380D01*
X82488095Y-51250000D01*
X82535714Y-51297619D01*
X82583333Y-51392857D01*
X82583333Y-51535714D01*
X82535714Y-51630952D01*
X82488095Y-51678571D01*
X82392857Y-51726190D01*
X82011904Y-51726190D01*
X83154761Y-51630952D02*
X83059523Y-51583333D01*
X83011904Y-51535714D01*
X82964285Y-51440476D01*
X82964285Y-51392857D01*
X83011904Y-51297619D01*
X83059523Y-51250000D01*
X83154761Y-51202380D01*
X83345238Y-51202380D01*
X83440476Y-51250000D01*
X83488095Y-51297619D01*
X83535714Y-51392857D01*
X83535714Y-51440476D01*
X83488095Y-51535714D01*
X83440476Y-51583333D01*
X83345238Y-51630952D01*
X83154761Y-51630952D01*
X83059523Y-51678571D01*
X83011904Y-51726190D01*
X82964285Y-51821428D01*
X82964285Y-52011904D01*
X83011904Y-52107142D01*
X83059523Y-52154761D01*
X83154761Y-52202380D01*
X83345238Y-52202380D01*
X83440476Y-52154761D01*
X83488095Y-52107142D01*
X83535714Y-52011904D01*
X83535714Y-51821428D01*
X83488095Y-51726190D01*
X83440476Y-51678571D01*
X83345238Y-51630952D01*
%TO.C,D1*%
X84011904Y-62702380D02*
X84011904Y-61702380D01*
X84250000Y-61702380D01*
X84392857Y-61750000D01*
X84488095Y-61845238D01*
X84535714Y-61940476D01*
X84583333Y-62130952D01*
X84583333Y-62273809D01*
X84535714Y-62464285D01*
X84488095Y-62559523D01*
X84392857Y-62654761D01*
X84250000Y-62702380D01*
X84011904Y-62702380D01*
X85535714Y-62702380D02*
X84964285Y-62702380D01*
X85250000Y-62702380D02*
X85250000Y-61702380D01*
X85154761Y-61845238D01*
X85059523Y-61940476D01*
X84964285Y-61988095D01*
%TO.C,C20*%
X102107142Y-101357142D02*
X102059523Y-101404761D01*
X101916666Y-101452380D01*
X101821428Y-101452380D01*
X101678571Y-101404761D01*
X101583333Y-101309523D01*
X101535714Y-101214285D01*
X101488095Y-101023809D01*
X101488095Y-100880952D01*
X101535714Y-100690476D01*
X101583333Y-100595238D01*
X101678571Y-100500000D01*
X101821428Y-100452380D01*
X101916666Y-100452380D01*
X102059523Y-100500000D01*
X102107142Y-100547619D01*
X102488095Y-100547619D02*
X102535714Y-100500000D01*
X102630952Y-100452380D01*
X102869047Y-100452380D01*
X102964285Y-100500000D01*
X103011904Y-100547619D01*
X103059523Y-100642857D01*
X103059523Y-100738095D01*
X103011904Y-100880952D01*
X102440476Y-101452380D01*
X103059523Y-101452380D01*
X103678571Y-100452380D02*
X103773809Y-100452380D01*
X103869047Y-100500000D01*
X103916666Y-100547619D01*
X103964285Y-100642857D01*
X104011904Y-100833333D01*
X104011904Y-101071428D01*
X103964285Y-101261904D01*
X103916666Y-101357142D01*
X103869047Y-101404761D01*
X103773809Y-101452380D01*
X103678571Y-101452380D01*
X103583333Y-101404761D01*
X103535714Y-101357142D01*
X103488095Y-101261904D01*
X103440476Y-101071428D01*
X103440476Y-100833333D01*
X103488095Y-100642857D01*
X103535714Y-100547619D01*
X103583333Y-100500000D01*
X103678571Y-100452380D01*
%TO.C,R2*%
X76333333Y-94452380D02*
X76000000Y-93976190D01*
X75761904Y-94452380D02*
X75761904Y-93452380D01*
X76142857Y-93452380D01*
X76238095Y-93500000D01*
X76285714Y-93547619D01*
X76333333Y-93642857D01*
X76333333Y-93785714D01*
X76285714Y-93880952D01*
X76238095Y-93928571D01*
X76142857Y-93976190D01*
X75761904Y-93976190D01*
X76714285Y-93547619D02*
X76761904Y-93500000D01*
X76857142Y-93452380D01*
X77095238Y-93452380D01*
X77190476Y-93500000D01*
X77238095Y-93547619D01*
X77285714Y-93642857D01*
X77285714Y-93738095D01*
X77238095Y-93880952D01*
X76666666Y-94452380D01*
X77285714Y-94452380D01*
%TO.C,U2*%
X117238095Y-55452380D02*
X117238095Y-56261904D01*
X117285714Y-56357142D01*
X117333333Y-56404761D01*
X117428571Y-56452380D01*
X117619047Y-56452380D01*
X117714285Y-56404761D01*
X117761904Y-56357142D01*
X117809523Y-56261904D01*
X117809523Y-55452380D01*
X118238095Y-55547619D02*
X118285714Y-55500000D01*
X118380952Y-55452380D01*
X118619047Y-55452380D01*
X118714285Y-55500000D01*
X118761904Y-55547619D01*
X118809523Y-55642857D01*
X118809523Y-55738095D01*
X118761904Y-55880952D01*
X118190476Y-56452380D01*
X118809523Y-56452380D01*
%TO.C,C35*%
X166357142Y-73857142D02*
X166309523Y-73904761D01*
X166166666Y-73952380D01*
X166071428Y-73952380D01*
X165928571Y-73904761D01*
X165833333Y-73809523D01*
X165785714Y-73714285D01*
X165738095Y-73523809D01*
X165738095Y-73380952D01*
X165785714Y-73190476D01*
X165833333Y-73095238D01*
X165928571Y-73000000D01*
X166071428Y-72952380D01*
X166166666Y-72952380D01*
X166309523Y-73000000D01*
X166357142Y-73047619D01*
X166690476Y-72952380D02*
X167309523Y-72952380D01*
X166976190Y-73333333D01*
X167119047Y-73333333D01*
X167214285Y-73380952D01*
X167261904Y-73428571D01*
X167309523Y-73523809D01*
X167309523Y-73761904D01*
X167261904Y-73857142D01*
X167214285Y-73904761D01*
X167119047Y-73952380D01*
X166833333Y-73952380D01*
X166738095Y-73904761D01*
X166690476Y-73857142D01*
X168214285Y-72952380D02*
X167738095Y-72952380D01*
X167690476Y-73428571D01*
X167738095Y-73380952D01*
X167833333Y-73333333D01*
X168071428Y-73333333D01*
X168166666Y-73380952D01*
X168214285Y-73428571D01*
X168261904Y-73523809D01*
X168261904Y-73761904D01*
X168214285Y-73857142D01*
X168166666Y-73904761D01*
X168071428Y-73952380D01*
X167833333Y-73952380D01*
X167738095Y-73904761D01*
X167690476Y-73857142D01*
%TO.C,C27*%
X150357142Y-81642857D02*
X150404761Y-81690476D01*
X150452380Y-81833333D01*
X150452380Y-81928571D01*
X150404761Y-82071428D01*
X150309523Y-82166666D01*
X150214285Y-82214285D01*
X150023809Y-82261904D01*
X149880952Y-82261904D01*
X149690476Y-82214285D01*
X149595238Y-82166666D01*
X149500000Y-82071428D01*
X149452380Y-81928571D01*
X149452380Y-81833333D01*
X149500000Y-81690476D01*
X149547619Y-81642857D01*
X149547619Y-81261904D02*
X149500000Y-81214285D01*
X149452380Y-81119047D01*
X149452380Y-80880952D01*
X149500000Y-80785714D01*
X149547619Y-80738095D01*
X149642857Y-80690476D01*
X149738095Y-80690476D01*
X149880952Y-80738095D01*
X150452380Y-81309523D01*
X150452380Y-80690476D01*
X149452380Y-80357142D02*
X149452380Y-79690476D01*
X150452380Y-80119047D01*
%TO.C,U7*%
X144238095Y-89502380D02*
X144238095Y-90311904D01*
X144285714Y-90407142D01*
X144333333Y-90454761D01*
X144428571Y-90502380D01*
X144619047Y-90502380D01*
X144714285Y-90454761D01*
X144761904Y-90407142D01*
X144809523Y-90311904D01*
X144809523Y-89502380D01*
X145190476Y-89502380D02*
X145857142Y-89502380D01*
X145428571Y-90502380D01*
%TO.C,R1*%
X85833333Y-108952380D02*
X85500000Y-108476190D01*
X85261904Y-108952380D02*
X85261904Y-107952380D01*
X85642857Y-107952380D01*
X85738095Y-108000000D01*
X85785714Y-108047619D01*
X85833333Y-108142857D01*
X85833333Y-108285714D01*
X85785714Y-108380952D01*
X85738095Y-108428571D01*
X85642857Y-108476190D01*
X85261904Y-108476190D01*
X86785714Y-108952380D02*
X86214285Y-108952380D01*
X86500000Y-108952380D02*
X86500000Y-107952380D01*
X86404761Y-108095238D01*
X86309523Y-108190476D01*
X86214285Y-108238095D01*
%TO.C,C21*%
X116357142Y-97857142D02*
X116309523Y-97904761D01*
X116166666Y-97952380D01*
X116071428Y-97952380D01*
X115928571Y-97904761D01*
X115833333Y-97809523D01*
X115785714Y-97714285D01*
X115738095Y-97523809D01*
X115738095Y-97380952D01*
X115785714Y-97190476D01*
X115833333Y-97095238D01*
X115928571Y-97000000D01*
X116071428Y-96952380D01*
X116166666Y-96952380D01*
X116309523Y-97000000D01*
X116357142Y-97047619D01*
X116738095Y-97047619D02*
X116785714Y-97000000D01*
X116880952Y-96952380D01*
X117119047Y-96952380D01*
X117214285Y-97000000D01*
X117261904Y-97047619D01*
X117309523Y-97142857D01*
X117309523Y-97238095D01*
X117261904Y-97380952D01*
X116690476Y-97952380D01*
X117309523Y-97952380D01*
X118261904Y-97952380D02*
X117690476Y-97952380D01*
X117976190Y-97952380D02*
X117976190Y-96952380D01*
X117880952Y-97095238D01*
X117785714Y-97190476D01*
X117690476Y-97238095D01*
%TO.C,SW5*%
X156219761Y-119328333D02*
X156267380Y-119185476D01*
X156267380Y-118947380D01*
X156219761Y-118852142D01*
X156172142Y-118804523D01*
X156076904Y-118756904D01*
X155981666Y-118756904D01*
X155886428Y-118804523D01*
X155838809Y-118852142D01*
X155791190Y-118947380D01*
X155743571Y-119137857D01*
X155695952Y-119233095D01*
X155648333Y-119280714D01*
X155553095Y-119328333D01*
X155457857Y-119328333D01*
X155362619Y-119280714D01*
X155315000Y-119233095D01*
X155267380Y-119137857D01*
X155267380Y-118899761D01*
X155315000Y-118756904D01*
X155267380Y-118423571D02*
X156267380Y-118185476D01*
X155553095Y-117995000D01*
X156267380Y-117804523D01*
X155267380Y-117566428D01*
X155267380Y-116709285D02*
X155267380Y-117185476D01*
X155743571Y-117233095D01*
X155695952Y-117185476D01*
X155648333Y-117090238D01*
X155648333Y-116852142D01*
X155695952Y-116756904D01*
X155743571Y-116709285D01*
X155838809Y-116661666D01*
X156076904Y-116661666D01*
X156172142Y-116709285D01*
X156219761Y-116756904D01*
X156267380Y-116852142D01*
X156267380Y-117090238D01*
X156219761Y-117185476D01*
X156172142Y-117233095D01*
%TO.C,C32*%
X155207142Y-87157142D02*
X155159523Y-87204761D01*
X155016666Y-87252380D01*
X154921428Y-87252380D01*
X154778571Y-87204761D01*
X154683333Y-87109523D01*
X154635714Y-87014285D01*
X154588095Y-86823809D01*
X154588095Y-86680952D01*
X154635714Y-86490476D01*
X154683333Y-86395238D01*
X154778571Y-86300000D01*
X154921428Y-86252380D01*
X155016666Y-86252380D01*
X155159523Y-86300000D01*
X155207142Y-86347619D01*
X155540476Y-86252380D02*
X156159523Y-86252380D01*
X155826190Y-86633333D01*
X155969047Y-86633333D01*
X156064285Y-86680952D01*
X156111904Y-86728571D01*
X156159523Y-86823809D01*
X156159523Y-87061904D01*
X156111904Y-87157142D01*
X156064285Y-87204761D01*
X155969047Y-87252380D01*
X155683333Y-87252380D01*
X155588095Y-87204761D01*
X155540476Y-87157142D01*
X156540476Y-86347619D02*
X156588095Y-86300000D01*
X156683333Y-86252380D01*
X156921428Y-86252380D01*
X157016666Y-86300000D01*
X157064285Y-86347619D01*
X157111904Y-86442857D01*
X157111904Y-86538095D01*
X157064285Y-86680952D01*
X156492857Y-87252380D01*
X157111904Y-87252380D01*
%TO.C,R9*%
X82333333Y-55022380D02*
X82000000Y-54546190D01*
X81761904Y-55022380D02*
X81761904Y-54022380D01*
X82142857Y-54022380D01*
X82238095Y-54070000D01*
X82285714Y-54117619D01*
X82333333Y-54212857D01*
X82333333Y-54355714D01*
X82285714Y-54450952D01*
X82238095Y-54498571D01*
X82142857Y-54546190D01*
X81761904Y-54546190D01*
X82809523Y-55022380D02*
X83000000Y-55022380D01*
X83095238Y-54974761D01*
X83142857Y-54927142D01*
X83238095Y-54784285D01*
X83285714Y-54593809D01*
X83285714Y-54212857D01*
X83238095Y-54117619D01*
X83190476Y-54070000D01*
X83095238Y-54022380D01*
X82904761Y-54022380D01*
X82809523Y-54070000D01*
X82761904Y-54117619D01*
X82714285Y-54212857D01*
X82714285Y-54450952D01*
X82761904Y-54546190D01*
X82809523Y-54593809D01*
X82904761Y-54641428D01*
X83095238Y-54641428D01*
X83190476Y-54593809D01*
X83238095Y-54546190D01*
X83285714Y-54450952D01*
%TO.C,R5*%
X99583333Y-103952380D02*
X99250000Y-103476190D01*
X99011904Y-103952380D02*
X99011904Y-102952380D01*
X99392857Y-102952380D01*
X99488095Y-103000000D01*
X99535714Y-103047619D01*
X99583333Y-103142857D01*
X99583333Y-103285714D01*
X99535714Y-103380952D01*
X99488095Y-103428571D01*
X99392857Y-103476190D01*
X99011904Y-103476190D01*
X100488095Y-102952380D02*
X100011904Y-102952380D01*
X99964285Y-103428571D01*
X100011904Y-103380952D01*
X100107142Y-103333333D01*
X100345238Y-103333333D01*
X100440476Y-103380952D01*
X100488095Y-103428571D01*
X100535714Y-103523809D01*
X100535714Y-103761904D01*
X100488095Y-103857142D01*
X100440476Y-103904761D01*
X100345238Y-103952380D01*
X100107142Y-103952380D01*
X100011904Y-103904761D01*
X99964285Y-103857142D01*
%TO.C,C31*%
X99357142Y-95357142D02*
X99309523Y-95404761D01*
X99166666Y-95452380D01*
X99071428Y-95452380D01*
X98928571Y-95404761D01*
X98833333Y-95309523D01*
X98785714Y-95214285D01*
X98738095Y-95023809D01*
X98738095Y-94880952D01*
X98785714Y-94690476D01*
X98833333Y-94595238D01*
X98928571Y-94500000D01*
X99071428Y-94452380D01*
X99166666Y-94452380D01*
X99309523Y-94500000D01*
X99357142Y-94547619D01*
X99690476Y-94452380D02*
X100309523Y-94452380D01*
X99976190Y-94833333D01*
X100119047Y-94833333D01*
X100214285Y-94880952D01*
X100261904Y-94928571D01*
X100309523Y-95023809D01*
X100309523Y-95261904D01*
X100261904Y-95357142D01*
X100214285Y-95404761D01*
X100119047Y-95452380D01*
X99833333Y-95452380D01*
X99738095Y-95404761D01*
X99690476Y-95357142D01*
X101261904Y-95452380D02*
X100690476Y-95452380D01*
X100976190Y-95452380D02*
X100976190Y-94452380D01*
X100880952Y-94595238D01*
X100785714Y-94690476D01*
X100690476Y-94738095D01*
%TO.C,C9*%
X79583333Y-66427142D02*
X79535714Y-66474761D01*
X79392857Y-66522380D01*
X79297619Y-66522380D01*
X79154761Y-66474761D01*
X79059523Y-66379523D01*
X79011904Y-66284285D01*
X78964285Y-66093809D01*
X78964285Y-65950952D01*
X79011904Y-65760476D01*
X79059523Y-65665238D01*
X79154761Y-65570000D01*
X79297619Y-65522380D01*
X79392857Y-65522380D01*
X79535714Y-65570000D01*
X79583333Y-65617619D01*
X80059523Y-66522380D02*
X80250000Y-66522380D01*
X80345238Y-66474761D01*
X80392857Y-66427142D01*
X80488095Y-66284285D01*
X80535714Y-66093809D01*
X80535714Y-65712857D01*
X80488095Y-65617619D01*
X80440476Y-65570000D01*
X80345238Y-65522380D01*
X80154761Y-65522380D01*
X80059523Y-65570000D01*
X80011904Y-65617619D01*
X79964285Y-65712857D01*
X79964285Y-65950952D01*
X80011904Y-66046190D01*
X80059523Y-66093809D01*
X80154761Y-66141428D01*
X80345238Y-66141428D01*
X80440476Y-66093809D01*
X80488095Y-66046190D01*
X80535714Y-65950952D01*
%TO.C,C11*%
X128857142Y-108607142D02*
X128809523Y-108654761D01*
X128666666Y-108702380D01*
X128571428Y-108702380D01*
X128428571Y-108654761D01*
X128333333Y-108559523D01*
X128285714Y-108464285D01*
X128238095Y-108273809D01*
X128238095Y-108130952D01*
X128285714Y-107940476D01*
X128333333Y-107845238D01*
X128428571Y-107750000D01*
X128571428Y-107702380D01*
X128666666Y-107702380D01*
X128809523Y-107750000D01*
X128857142Y-107797619D01*
X129809523Y-108702380D02*
X129238095Y-108702380D01*
X129523809Y-108702380D02*
X129523809Y-107702380D01*
X129428571Y-107845238D01*
X129333333Y-107940476D01*
X129238095Y-107988095D01*
X130761904Y-108702380D02*
X130190476Y-108702380D01*
X130476190Y-108702380D02*
X130476190Y-107702380D01*
X130380952Y-107845238D01*
X130285714Y-107940476D01*
X130190476Y-107988095D01*
%TO.C,J3*%
X157717380Y-49128333D02*
X158431666Y-49128333D01*
X158574523Y-49175952D01*
X158669761Y-49271190D01*
X158717380Y-49414047D01*
X158717380Y-49509285D01*
X157717380Y-48747380D02*
X157717380Y-48128333D01*
X158098333Y-48461666D01*
X158098333Y-48318809D01*
X158145952Y-48223571D01*
X158193571Y-48175952D01*
X158288809Y-48128333D01*
X158526904Y-48128333D01*
X158622142Y-48175952D01*
X158669761Y-48223571D01*
X158717380Y-48318809D01*
X158717380Y-48604523D01*
X158669761Y-48699761D01*
X158622142Y-48747380D01*
%TO.C,R6*%
X99583333Y-99022380D02*
X99250000Y-98546190D01*
X99011904Y-99022380D02*
X99011904Y-98022380D01*
X99392857Y-98022380D01*
X99488095Y-98070000D01*
X99535714Y-98117619D01*
X99583333Y-98212857D01*
X99583333Y-98355714D01*
X99535714Y-98450952D01*
X99488095Y-98498571D01*
X99392857Y-98546190D01*
X99011904Y-98546190D01*
X100440476Y-98022380D02*
X100250000Y-98022380D01*
X100154761Y-98070000D01*
X100107142Y-98117619D01*
X100011904Y-98260476D01*
X99964285Y-98450952D01*
X99964285Y-98831904D01*
X100011904Y-98927142D01*
X100059523Y-98974761D01*
X100154761Y-99022380D01*
X100345238Y-99022380D01*
X100440476Y-98974761D01*
X100488095Y-98927142D01*
X100535714Y-98831904D01*
X100535714Y-98593809D01*
X100488095Y-98498571D01*
X100440476Y-98450952D01*
X100345238Y-98403333D01*
X100154761Y-98403333D01*
X100059523Y-98450952D01*
X100011904Y-98498571D01*
X99964285Y-98593809D01*
%TO.C,SW3*%
X93666666Y-119354761D02*
X93809523Y-119402380D01*
X94047619Y-119402380D01*
X94142857Y-119354761D01*
X94190476Y-119307142D01*
X94238095Y-119211904D01*
X94238095Y-119116666D01*
X94190476Y-119021428D01*
X94142857Y-118973809D01*
X94047619Y-118926190D01*
X93857142Y-118878571D01*
X93761904Y-118830952D01*
X93714285Y-118783333D01*
X93666666Y-118688095D01*
X93666666Y-118592857D01*
X93714285Y-118497619D01*
X93761904Y-118450000D01*
X93857142Y-118402380D01*
X94095238Y-118402380D01*
X94238095Y-118450000D01*
X94571428Y-118402380D02*
X94809523Y-119402380D01*
X95000000Y-118688095D01*
X95190476Y-119402380D01*
X95428571Y-118402380D01*
X95714285Y-118402380D02*
X96333333Y-118402380D01*
X96000000Y-118783333D01*
X96142857Y-118783333D01*
X96238095Y-118830952D01*
X96285714Y-118878571D01*
X96333333Y-118973809D01*
X96333333Y-119211904D01*
X96285714Y-119307142D01*
X96238095Y-119354761D01*
X96142857Y-119402380D01*
X95857142Y-119402380D01*
X95761904Y-119354761D01*
X95714285Y-119307142D01*
%TO.C,Q2*%
X93154761Y-62547619D02*
X93059523Y-62500000D01*
X92964285Y-62404761D01*
X92821428Y-62261904D01*
X92726190Y-62214285D01*
X92630952Y-62214285D01*
X92678571Y-62452380D02*
X92583333Y-62404761D01*
X92488095Y-62309523D01*
X92440476Y-62119047D01*
X92440476Y-61785714D01*
X92488095Y-61595238D01*
X92583333Y-61500000D01*
X92678571Y-61452380D01*
X92869047Y-61452380D01*
X92964285Y-61500000D01*
X93059523Y-61595238D01*
X93107142Y-61785714D01*
X93107142Y-62119047D01*
X93059523Y-62309523D01*
X92964285Y-62404761D01*
X92869047Y-62452380D01*
X92678571Y-62452380D01*
X93488095Y-61547619D02*
X93535714Y-61500000D01*
X93630952Y-61452380D01*
X93869047Y-61452380D01*
X93964285Y-61500000D01*
X94011904Y-61547619D01*
X94059523Y-61642857D01*
X94059523Y-61738095D01*
X94011904Y-61880952D01*
X93440476Y-62452380D01*
X94059523Y-62452380D01*
%TO.C,L1*%
X151333333Y-46952380D02*
X150857142Y-46952380D01*
X150857142Y-45952380D01*
X152190476Y-46952380D02*
X151619047Y-46952380D01*
X151904761Y-46952380D02*
X151904761Y-45952380D01*
X151809523Y-46095238D01*
X151714285Y-46190476D01*
X151619047Y-46238095D01*
%TO.C,C2*%
X116357142Y-54166666D02*
X116404761Y-54214285D01*
X116452380Y-54357142D01*
X116452380Y-54452380D01*
X116404761Y-54595238D01*
X116309523Y-54690476D01*
X116214285Y-54738095D01*
X116023809Y-54785714D01*
X115880952Y-54785714D01*
X115690476Y-54738095D01*
X115595238Y-54690476D01*
X115500000Y-54595238D01*
X115452380Y-54452380D01*
X115452380Y-54357142D01*
X115500000Y-54214285D01*
X115547619Y-54166666D01*
X115547619Y-53785714D02*
X115500000Y-53738095D01*
X115452380Y-53642857D01*
X115452380Y-53404761D01*
X115500000Y-53309523D01*
X115547619Y-53261904D01*
X115642857Y-53214285D01*
X115738095Y-53214285D01*
X115880952Y-53261904D01*
X116452380Y-53833333D01*
X116452380Y-53214285D01*
%TO.C,JP3*%
X100416666Y-88652380D02*
X100416666Y-89366666D01*
X100369047Y-89509523D01*
X100273809Y-89604761D01*
X100130952Y-89652380D01*
X100035714Y-89652380D01*
X100892857Y-89652380D02*
X100892857Y-88652380D01*
X101273809Y-88652380D01*
X101369047Y-88700000D01*
X101416666Y-88747619D01*
X101464285Y-88842857D01*
X101464285Y-88985714D01*
X101416666Y-89080952D01*
X101369047Y-89128571D01*
X101273809Y-89176190D01*
X100892857Y-89176190D01*
X101797619Y-88652380D02*
X102416666Y-88652380D01*
X102083333Y-89033333D01*
X102226190Y-89033333D01*
X102321428Y-89080952D01*
X102369047Y-89128571D01*
X102416666Y-89223809D01*
X102416666Y-89461904D01*
X102369047Y-89557142D01*
X102321428Y-89604761D01*
X102226190Y-89652380D01*
X101940476Y-89652380D01*
X101845238Y-89604761D01*
X101797619Y-89557142D01*
%TO.C,R15*%
X121952380Y-54392857D02*
X121476190Y-54726190D01*
X121952380Y-54964285D02*
X120952380Y-54964285D01*
X120952380Y-54583333D01*
X121000000Y-54488095D01*
X121047619Y-54440476D01*
X121142857Y-54392857D01*
X121285714Y-54392857D01*
X121380952Y-54440476D01*
X121428571Y-54488095D01*
X121476190Y-54583333D01*
X121476190Y-54964285D01*
X121952380Y-53440476D02*
X121952380Y-54011904D01*
X121952380Y-53726190D02*
X120952380Y-53726190D01*
X121095238Y-53821428D01*
X121190476Y-53916666D01*
X121238095Y-54011904D01*
X120952380Y-52535714D02*
X120952380Y-53011904D01*
X121428571Y-53059523D01*
X121380952Y-53011904D01*
X121333333Y-52916666D01*
X121333333Y-52678571D01*
X121380952Y-52583333D01*
X121428571Y-52535714D01*
X121523809Y-52488095D01*
X121761904Y-52488095D01*
X121857142Y-52535714D01*
X121904761Y-52583333D01*
X121952380Y-52678571D01*
X121952380Y-52916666D01*
X121904761Y-53011904D01*
X121857142Y-53059523D01*
%TO.C,J1*%
X75666666Y-47452380D02*
X75666666Y-48166666D01*
X75619047Y-48309523D01*
X75523809Y-48404761D01*
X75380952Y-48452380D01*
X75285714Y-48452380D01*
X76666666Y-48452380D02*
X76095238Y-48452380D01*
X76380952Y-48452380D02*
X76380952Y-47452380D01*
X76285714Y-47595238D01*
X76190476Y-47690476D01*
X76095238Y-47738095D01*
%TO.C,R11*%
X104757142Y-67482380D02*
X104423809Y-67006190D01*
X104185714Y-67482380D02*
X104185714Y-66482380D01*
X104566666Y-66482380D01*
X104661904Y-66530000D01*
X104709523Y-66577619D01*
X104757142Y-66672857D01*
X104757142Y-66815714D01*
X104709523Y-66910952D01*
X104661904Y-66958571D01*
X104566666Y-67006190D01*
X104185714Y-67006190D01*
X105709523Y-67482380D02*
X105138095Y-67482380D01*
X105423809Y-67482380D02*
X105423809Y-66482380D01*
X105328571Y-66625238D01*
X105233333Y-66720476D01*
X105138095Y-66768095D01*
X106661904Y-67482380D02*
X106090476Y-67482380D01*
X106376190Y-67482380D02*
X106376190Y-66482380D01*
X106280952Y-66625238D01*
X106185714Y-66720476D01*
X106090476Y-66768095D01*
%TO.C,C29*%
X129757142Y-84807142D02*
X129709523Y-84854761D01*
X129566666Y-84902380D01*
X129471428Y-84902380D01*
X129328571Y-84854761D01*
X129233333Y-84759523D01*
X129185714Y-84664285D01*
X129138095Y-84473809D01*
X129138095Y-84330952D01*
X129185714Y-84140476D01*
X129233333Y-84045238D01*
X129328571Y-83950000D01*
X129471428Y-83902380D01*
X129566666Y-83902380D01*
X129709523Y-83950000D01*
X129757142Y-83997619D01*
X130138095Y-83997619D02*
X130185714Y-83950000D01*
X130280952Y-83902380D01*
X130519047Y-83902380D01*
X130614285Y-83950000D01*
X130661904Y-83997619D01*
X130709523Y-84092857D01*
X130709523Y-84188095D01*
X130661904Y-84330952D01*
X130090476Y-84902380D01*
X130709523Y-84902380D01*
X131185714Y-84902380D02*
X131376190Y-84902380D01*
X131471428Y-84854761D01*
X131519047Y-84807142D01*
X131614285Y-84664285D01*
X131661904Y-84473809D01*
X131661904Y-84092857D01*
X131614285Y-83997619D01*
X131566666Y-83950000D01*
X131471428Y-83902380D01*
X131280952Y-83902380D01*
X131185714Y-83950000D01*
X131138095Y-83997619D01*
X131090476Y-84092857D01*
X131090476Y-84330952D01*
X131138095Y-84426190D01*
X131185714Y-84473809D01*
X131280952Y-84521428D01*
X131471428Y-84521428D01*
X131566666Y-84473809D01*
X131614285Y-84426190D01*
X131661904Y-84330952D01*
%TO.C,H1*%
X92238095Y-41452380D02*
X92238095Y-40452380D01*
X92238095Y-40928571D02*
X92809523Y-40928571D01*
X92809523Y-41452380D02*
X92809523Y-40452380D01*
X93809523Y-41452380D02*
X93238095Y-41452380D01*
X93523809Y-41452380D02*
X93523809Y-40452380D01*
X93428571Y-40595238D01*
X93333333Y-40690476D01*
X93238095Y-40738095D01*
%TO.C,R3*%
X85833333Y-107452380D02*
X85500000Y-106976190D01*
X85261904Y-107452380D02*
X85261904Y-106452380D01*
X85642857Y-106452380D01*
X85738095Y-106500000D01*
X85785714Y-106547619D01*
X85833333Y-106642857D01*
X85833333Y-106785714D01*
X85785714Y-106880952D01*
X85738095Y-106928571D01*
X85642857Y-106976190D01*
X85261904Y-106976190D01*
X86166666Y-106452380D02*
X86785714Y-106452380D01*
X86452380Y-106833333D01*
X86595238Y-106833333D01*
X86690476Y-106880952D01*
X86738095Y-106928571D01*
X86785714Y-107023809D01*
X86785714Y-107261904D01*
X86738095Y-107357142D01*
X86690476Y-107404761D01*
X86595238Y-107452380D01*
X86309523Y-107452380D01*
X86214285Y-107404761D01*
X86166666Y-107357142D01*
%TO.C,SW1*%
X107666666Y-119354761D02*
X107809523Y-119402380D01*
X108047619Y-119402380D01*
X108142857Y-119354761D01*
X108190476Y-119307142D01*
X108238095Y-119211904D01*
X108238095Y-119116666D01*
X108190476Y-119021428D01*
X108142857Y-118973809D01*
X108047619Y-118926190D01*
X107857142Y-118878571D01*
X107761904Y-118830952D01*
X107714285Y-118783333D01*
X107666666Y-118688095D01*
X107666666Y-118592857D01*
X107714285Y-118497619D01*
X107761904Y-118450000D01*
X107857142Y-118402380D01*
X108095238Y-118402380D01*
X108238095Y-118450000D01*
X108571428Y-118402380D02*
X108809523Y-119402380D01*
X109000000Y-118688095D01*
X109190476Y-119402380D01*
X109428571Y-118402380D01*
X110333333Y-119402380D02*
X109761904Y-119402380D01*
X110047619Y-119402380D02*
X110047619Y-118402380D01*
X109952380Y-118545238D01*
X109857142Y-118640476D01*
X109761904Y-118688095D01*
%TO.C,C33*%
X76357142Y-92857142D02*
X76309523Y-92904761D01*
X76166666Y-92952380D01*
X76071428Y-92952380D01*
X75928571Y-92904761D01*
X75833333Y-92809523D01*
X75785714Y-92714285D01*
X75738095Y-92523809D01*
X75738095Y-92380952D01*
X75785714Y-92190476D01*
X75833333Y-92095238D01*
X75928571Y-92000000D01*
X76071428Y-91952380D01*
X76166666Y-91952380D01*
X76309523Y-92000000D01*
X76357142Y-92047619D01*
X76690476Y-91952380D02*
X77309523Y-91952380D01*
X76976190Y-92333333D01*
X77119047Y-92333333D01*
X77214285Y-92380952D01*
X77261904Y-92428571D01*
X77309523Y-92523809D01*
X77309523Y-92761904D01*
X77261904Y-92857142D01*
X77214285Y-92904761D01*
X77119047Y-92952380D01*
X76833333Y-92952380D01*
X76738095Y-92904761D01*
X76690476Y-92857142D01*
X77642857Y-91952380D02*
X78261904Y-91952380D01*
X77928571Y-92333333D01*
X78071428Y-92333333D01*
X78166666Y-92380952D01*
X78214285Y-92428571D01*
X78261904Y-92523809D01*
X78261904Y-92761904D01*
X78214285Y-92857142D01*
X78166666Y-92904761D01*
X78071428Y-92952380D01*
X77785714Y-92952380D01*
X77690476Y-92904761D01*
X77642857Y-92857142D01*
%TO.C,JP2*%
X82266666Y-88402380D02*
X82266666Y-89116666D01*
X82219047Y-89259523D01*
X82123809Y-89354761D01*
X81980952Y-89402380D01*
X81885714Y-89402380D01*
X82742857Y-89402380D02*
X82742857Y-88402380D01*
X83123809Y-88402380D01*
X83219047Y-88450000D01*
X83266666Y-88497619D01*
X83314285Y-88592857D01*
X83314285Y-88735714D01*
X83266666Y-88830952D01*
X83219047Y-88878571D01*
X83123809Y-88926190D01*
X82742857Y-88926190D01*
X83695238Y-88497619D02*
X83742857Y-88450000D01*
X83838095Y-88402380D01*
X84076190Y-88402380D01*
X84171428Y-88450000D01*
X84219047Y-88497619D01*
X84266666Y-88592857D01*
X84266666Y-88688095D01*
X84219047Y-88830952D01*
X83647619Y-89402380D01*
X84266666Y-89402380D01*
%TO.C,C24*%
X95857142Y-107357142D02*
X95809523Y-107404761D01*
X95666666Y-107452380D01*
X95571428Y-107452380D01*
X95428571Y-107404761D01*
X95333333Y-107309523D01*
X95285714Y-107214285D01*
X95238095Y-107023809D01*
X95238095Y-106880952D01*
X95285714Y-106690476D01*
X95333333Y-106595238D01*
X95428571Y-106500000D01*
X95571428Y-106452380D01*
X95666666Y-106452380D01*
X95809523Y-106500000D01*
X95857142Y-106547619D01*
X96238095Y-106547619D02*
X96285714Y-106500000D01*
X96380952Y-106452380D01*
X96619047Y-106452380D01*
X96714285Y-106500000D01*
X96761904Y-106547619D01*
X96809523Y-106642857D01*
X96809523Y-106738095D01*
X96761904Y-106880952D01*
X96190476Y-107452380D01*
X96809523Y-107452380D01*
X97666666Y-106785714D02*
X97666666Y-107452380D01*
X97428571Y-106404761D02*
X97190476Y-107119047D01*
X97809523Y-107119047D01*
%TO.C,D2*%
X153011904Y-76952380D02*
X153011904Y-75952380D01*
X153250000Y-75952380D01*
X153392857Y-76000000D01*
X153488095Y-76095238D01*
X153535714Y-76190476D01*
X153583333Y-76380952D01*
X153583333Y-76523809D01*
X153535714Y-76714285D01*
X153488095Y-76809523D01*
X153392857Y-76904761D01*
X153250000Y-76952380D01*
X153011904Y-76952380D01*
X153964285Y-76047619D02*
X154011904Y-76000000D01*
X154107142Y-75952380D01*
X154345238Y-75952380D01*
X154440476Y-76000000D01*
X154488095Y-76047619D01*
X154535714Y-76142857D01*
X154535714Y-76238095D01*
X154488095Y-76380952D01*
X153916666Y-76952380D01*
X154535714Y-76952380D01*
%TO.C,C25*%
X154857142Y-83357142D02*
X154809523Y-83404761D01*
X154666666Y-83452380D01*
X154571428Y-83452380D01*
X154428571Y-83404761D01*
X154333333Y-83309523D01*
X154285714Y-83214285D01*
X154238095Y-83023809D01*
X154238095Y-82880952D01*
X154285714Y-82690476D01*
X154333333Y-82595238D01*
X154428571Y-82500000D01*
X154571428Y-82452380D01*
X154666666Y-82452380D01*
X154809523Y-82500000D01*
X154857142Y-82547619D01*
X155238095Y-82547619D02*
X155285714Y-82500000D01*
X155380952Y-82452380D01*
X155619047Y-82452380D01*
X155714285Y-82500000D01*
X155761904Y-82547619D01*
X155809523Y-82642857D01*
X155809523Y-82738095D01*
X155761904Y-82880952D01*
X155190476Y-83452380D01*
X155809523Y-83452380D01*
X156714285Y-82452380D02*
X156238095Y-82452380D01*
X156190476Y-82928571D01*
X156238095Y-82880952D01*
X156333333Y-82833333D01*
X156571428Y-82833333D01*
X156666666Y-82880952D01*
X156714285Y-82928571D01*
X156761904Y-83023809D01*
X156761904Y-83261904D01*
X156714285Y-83357142D01*
X156666666Y-83404761D01*
X156571428Y-83452380D01*
X156333333Y-83452380D01*
X156238095Y-83404761D01*
X156190476Y-83357142D01*
%TO.C,R18*%
X95857142Y-117452380D02*
X95523809Y-116976190D01*
X95285714Y-117452380D02*
X95285714Y-116452380D01*
X95666666Y-116452380D01*
X95761904Y-116500000D01*
X95809523Y-116547619D01*
X95857142Y-116642857D01*
X95857142Y-116785714D01*
X95809523Y-116880952D01*
X95761904Y-116928571D01*
X95666666Y-116976190D01*
X95285714Y-116976190D01*
X96809523Y-117452380D02*
X96238095Y-117452380D01*
X96523809Y-117452380D02*
X96523809Y-116452380D01*
X96428571Y-116595238D01*
X96333333Y-116690476D01*
X96238095Y-116738095D01*
X97380952Y-116880952D02*
X97285714Y-116833333D01*
X97238095Y-116785714D01*
X97190476Y-116690476D01*
X97190476Y-116642857D01*
X97238095Y-116547619D01*
X97285714Y-116500000D01*
X97380952Y-116452380D01*
X97571428Y-116452380D01*
X97666666Y-116500000D01*
X97714285Y-116547619D01*
X97761904Y-116642857D01*
X97761904Y-116690476D01*
X97714285Y-116785714D01*
X97666666Y-116833333D01*
X97571428Y-116880952D01*
X97380952Y-116880952D01*
X97285714Y-116928571D01*
X97238095Y-116976190D01*
X97190476Y-117071428D01*
X97190476Y-117261904D01*
X97238095Y-117357142D01*
X97285714Y-117404761D01*
X97380952Y-117452380D01*
X97571428Y-117452380D01*
X97666666Y-117404761D01*
X97714285Y-117357142D01*
X97761904Y-117261904D01*
X97761904Y-117071428D01*
X97714285Y-116976190D01*
X97666666Y-116928571D01*
X97571428Y-116880952D01*
%TO.C,C7*%
X95833333Y-53927142D02*
X95785714Y-53974761D01*
X95642857Y-54022380D01*
X95547619Y-54022380D01*
X95404761Y-53974761D01*
X95309523Y-53879523D01*
X95261904Y-53784285D01*
X95214285Y-53593809D01*
X95214285Y-53450952D01*
X95261904Y-53260476D01*
X95309523Y-53165238D01*
X95404761Y-53070000D01*
X95547619Y-53022380D01*
X95642857Y-53022380D01*
X95785714Y-53070000D01*
X95833333Y-53117619D01*
X96166666Y-53022380D02*
X96833333Y-53022380D01*
X96404761Y-54022380D01*
%TO.C,R19*%
X163357142Y-88452380D02*
X163023809Y-87976190D01*
X162785714Y-88452380D02*
X162785714Y-87452380D01*
X163166666Y-87452380D01*
X163261904Y-87500000D01*
X163309523Y-87547619D01*
X163357142Y-87642857D01*
X163357142Y-87785714D01*
X163309523Y-87880952D01*
X163261904Y-87928571D01*
X163166666Y-87976190D01*
X162785714Y-87976190D01*
X164309523Y-88452380D02*
X163738095Y-88452380D01*
X164023809Y-88452380D02*
X164023809Y-87452380D01*
X163928571Y-87595238D01*
X163833333Y-87690476D01*
X163738095Y-87738095D01*
X164785714Y-88452380D02*
X164976190Y-88452380D01*
X165071428Y-88404761D01*
X165119047Y-88357142D01*
X165214285Y-88214285D01*
X165261904Y-88023809D01*
X165261904Y-87642857D01*
X165214285Y-87547619D01*
X165166666Y-87500000D01*
X165071428Y-87452380D01*
X164880952Y-87452380D01*
X164785714Y-87500000D01*
X164738095Y-87547619D01*
X164690476Y-87642857D01*
X164690476Y-87880952D01*
X164738095Y-87976190D01*
X164785714Y-88023809D01*
X164880952Y-88071428D01*
X165071428Y-88071428D01*
X165166666Y-88023809D01*
X165214285Y-87976190D01*
X165261904Y-87880952D01*
%TO.C,C17*%
X120107142Y-101892857D02*
X120154761Y-101940476D01*
X120202380Y-102083333D01*
X120202380Y-102178571D01*
X120154761Y-102321428D01*
X120059523Y-102416666D01*
X119964285Y-102464285D01*
X119773809Y-102511904D01*
X119630952Y-102511904D01*
X119440476Y-102464285D01*
X119345238Y-102416666D01*
X119250000Y-102321428D01*
X119202380Y-102178571D01*
X119202380Y-102083333D01*
X119250000Y-101940476D01*
X119297619Y-101892857D01*
X120202380Y-100940476D02*
X120202380Y-101511904D01*
X120202380Y-101226190D02*
X119202380Y-101226190D01*
X119345238Y-101321428D01*
X119440476Y-101416666D01*
X119488095Y-101511904D01*
X119202380Y-100607142D02*
X119202380Y-99940476D01*
X120202380Y-100369047D01*
%TO.C,MOD1*%
X83166666Y-68452380D02*
X83166666Y-67452380D01*
X83500000Y-68166666D01*
X83833333Y-67452380D01*
X83833333Y-68452380D01*
X84500000Y-67452380D02*
X84690476Y-67452380D01*
X84785714Y-67500000D01*
X84880952Y-67595238D01*
X84928571Y-67785714D01*
X84928571Y-68119047D01*
X84880952Y-68309523D01*
X84785714Y-68404761D01*
X84690476Y-68452380D01*
X84500000Y-68452380D01*
X84404761Y-68404761D01*
X84309523Y-68309523D01*
X84261904Y-68119047D01*
X84261904Y-67785714D01*
X84309523Y-67595238D01*
X84404761Y-67500000D01*
X84500000Y-67452380D01*
X85357142Y-68452380D02*
X85357142Y-67452380D01*
X85595238Y-67452380D01*
X85738095Y-67500000D01*
X85833333Y-67595238D01*
X85880952Y-67690476D01*
X85928571Y-67880952D01*
X85928571Y-68023809D01*
X85880952Y-68214285D01*
X85833333Y-68309523D01*
X85738095Y-68404761D01*
X85595238Y-68452380D01*
X85357142Y-68452380D01*
X86880952Y-68452380D02*
X86309523Y-68452380D01*
X86595238Y-68452380D02*
X86595238Y-67452380D01*
X86500000Y-67595238D01*
X86404761Y-67690476D01*
X86309523Y-67738095D01*
%TO.C,C8*%
X89357142Y-62166666D02*
X89404761Y-62214285D01*
X89452380Y-62357142D01*
X89452380Y-62452380D01*
X89404761Y-62595238D01*
X89309523Y-62690476D01*
X89214285Y-62738095D01*
X89023809Y-62785714D01*
X88880952Y-62785714D01*
X88690476Y-62738095D01*
X88595238Y-62690476D01*
X88500000Y-62595238D01*
X88452380Y-62452380D01*
X88452380Y-62357142D01*
X88500000Y-62214285D01*
X88547619Y-62166666D01*
X88880952Y-61595238D02*
X88833333Y-61690476D01*
X88785714Y-61738095D01*
X88690476Y-61785714D01*
X88642857Y-61785714D01*
X88547619Y-61738095D01*
X88500000Y-61690476D01*
X88452380Y-61595238D01*
X88452380Y-61404761D01*
X88500000Y-61309523D01*
X88547619Y-61261904D01*
X88642857Y-61214285D01*
X88690476Y-61214285D01*
X88785714Y-61261904D01*
X88833333Y-61309523D01*
X88880952Y-61404761D01*
X88880952Y-61595238D01*
X88928571Y-61690476D01*
X88976190Y-61738095D01*
X89071428Y-61785714D01*
X89261904Y-61785714D01*
X89357142Y-61738095D01*
X89404761Y-61690476D01*
X89452380Y-61595238D01*
X89452380Y-61404761D01*
X89404761Y-61309523D01*
X89357142Y-61261904D01*
X89261904Y-61214285D01*
X89071428Y-61214285D01*
X88976190Y-61261904D01*
X88928571Y-61309523D01*
X88880952Y-61404761D01*
%TO.C,R7*%
X105333333Y-62952380D02*
X105000000Y-62476190D01*
X104761904Y-62952380D02*
X104761904Y-61952380D01*
X105142857Y-61952380D01*
X105238095Y-62000000D01*
X105285714Y-62047619D01*
X105333333Y-62142857D01*
X105333333Y-62285714D01*
X105285714Y-62380952D01*
X105238095Y-62428571D01*
X105142857Y-62476190D01*
X104761904Y-62476190D01*
X105666666Y-61952380D02*
X106333333Y-61952380D01*
X105904761Y-62952380D01*
%TO.C,U4*%
X111238095Y-44452380D02*
X111238095Y-45261904D01*
X111285714Y-45357142D01*
X111333333Y-45404761D01*
X111428571Y-45452380D01*
X111619047Y-45452380D01*
X111714285Y-45404761D01*
X111761904Y-45357142D01*
X111809523Y-45261904D01*
X111809523Y-44452380D01*
X112714285Y-44785714D02*
X112714285Y-45452380D01*
X112476190Y-44404761D02*
X112238095Y-45119047D01*
X112857142Y-45119047D01*
%TO.C,R13*%
X117522380Y-47642857D02*
X117046190Y-47976190D01*
X117522380Y-48214285D02*
X116522380Y-48214285D01*
X116522380Y-47833333D01*
X116570000Y-47738095D01*
X116617619Y-47690476D01*
X116712857Y-47642857D01*
X116855714Y-47642857D01*
X116950952Y-47690476D01*
X116998571Y-47738095D01*
X117046190Y-47833333D01*
X117046190Y-48214285D01*
X117522380Y-46690476D02*
X117522380Y-47261904D01*
X117522380Y-46976190D02*
X116522380Y-46976190D01*
X116665238Y-47071428D01*
X116760476Y-47166666D01*
X116808095Y-47261904D01*
X116522380Y-46357142D02*
X116522380Y-45738095D01*
X116903333Y-46071428D01*
X116903333Y-45928571D01*
X116950952Y-45833333D01*
X116998571Y-45785714D01*
X117093809Y-45738095D01*
X117331904Y-45738095D01*
X117427142Y-45785714D01*
X117474761Y-45833333D01*
X117522380Y-45928571D01*
X117522380Y-46214285D01*
X117474761Y-46309523D01*
X117427142Y-46357142D01*
%TO.C,C5*%
X119107142Y-62666666D02*
X119154761Y-62714285D01*
X119202380Y-62857142D01*
X119202380Y-62952380D01*
X119154761Y-63095238D01*
X119059523Y-63190476D01*
X118964285Y-63238095D01*
X118773809Y-63285714D01*
X118630952Y-63285714D01*
X118440476Y-63238095D01*
X118345238Y-63190476D01*
X118250000Y-63095238D01*
X118202380Y-62952380D01*
X118202380Y-62857142D01*
X118250000Y-62714285D01*
X118297619Y-62666666D01*
X118202380Y-61761904D02*
X118202380Y-62238095D01*
X118678571Y-62285714D01*
X118630952Y-62238095D01*
X118583333Y-62142857D01*
X118583333Y-61904761D01*
X118630952Y-61809523D01*
X118678571Y-61761904D01*
X118773809Y-61714285D01*
X119011904Y-61714285D01*
X119107142Y-61761904D01*
X119154761Y-61809523D01*
X119202380Y-61904761D01*
X119202380Y-62142857D01*
X119154761Y-62238095D01*
X119107142Y-62285714D01*
%TO.C,C10*%
X89177142Y-81642857D02*
X89224761Y-81690476D01*
X89272380Y-81833333D01*
X89272380Y-81928571D01*
X89224761Y-82071428D01*
X89129523Y-82166666D01*
X89034285Y-82214285D01*
X88843809Y-82261904D01*
X88700952Y-82261904D01*
X88510476Y-82214285D01*
X88415238Y-82166666D01*
X88320000Y-82071428D01*
X88272380Y-81928571D01*
X88272380Y-81833333D01*
X88320000Y-81690476D01*
X88367619Y-81642857D01*
X89272380Y-80690476D02*
X89272380Y-81261904D01*
X89272380Y-80976190D02*
X88272380Y-80976190D01*
X88415238Y-81071428D01*
X88510476Y-81166666D01*
X88558095Y-81261904D01*
X88272380Y-80071428D02*
X88272380Y-79976190D01*
X88320000Y-79880952D01*
X88367619Y-79833333D01*
X88462857Y-79785714D01*
X88653333Y-79738095D01*
X88891428Y-79738095D01*
X89081904Y-79785714D01*
X89177142Y-79833333D01*
X89224761Y-79880952D01*
X89272380Y-79976190D01*
X89272380Y-80071428D01*
X89224761Y-80166666D01*
X89177142Y-80214285D01*
X89081904Y-80261904D01*
X88891428Y-80309523D01*
X88653333Y-80309523D01*
X88462857Y-80261904D01*
X88367619Y-80214285D01*
X88320000Y-80166666D01*
X88272380Y-80071428D01*
%TO.C,R21*%
X132357142Y-87452380D02*
X132023809Y-86976190D01*
X131785714Y-87452380D02*
X131785714Y-86452380D01*
X132166666Y-86452380D01*
X132261904Y-86500000D01*
X132309523Y-86547619D01*
X132357142Y-86642857D01*
X132357142Y-86785714D01*
X132309523Y-86880952D01*
X132261904Y-86928571D01*
X132166666Y-86976190D01*
X131785714Y-86976190D01*
X132738095Y-86547619D02*
X132785714Y-86500000D01*
X132880952Y-86452380D01*
X133119047Y-86452380D01*
X133214285Y-86500000D01*
X133261904Y-86547619D01*
X133309523Y-86642857D01*
X133309523Y-86738095D01*
X133261904Y-86880952D01*
X132690476Y-87452380D01*
X133309523Y-87452380D01*
X134261904Y-87452380D02*
X133690476Y-87452380D01*
X133976190Y-87452380D02*
X133976190Y-86452380D01*
X133880952Y-86595238D01*
X133785714Y-86690476D01*
X133690476Y-86738095D01*
%TO.C,C14*%
X128857142Y-100957142D02*
X128809523Y-101004761D01*
X128666666Y-101052380D01*
X128571428Y-101052380D01*
X128428571Y-101004761D01*
X128333333Y-100909523D01*
X128285714Y-100814285D01*
X128238095Y-100623809D01*
X128238095Y-100480952D01*
X128285714Y-100290476D01*
X128333333Y-100195238D01*
X128428571Y-100100000D01*
X128571428Y-100052380D01*
X128666666Y-100052380D01*
X128809523Y-100100000D01*
X128857142Y-100147619D01*
X129809523Y-101052380D02*
X129238095Y-101052380D01*
X129523809Y-101052380D02*
X129523809Y-100052380D01*
X129428571Y-100195238D01*
X129333333Y-100290476D01*
X129238095Y-100338095D01*
X130666666Y-100385714D02*
X130666666Y-101052380D01*
X130428571Y-100004761D02*
X130190476Y-100719047D01*
X130809523Y-100719047D01*
%TO.C,U3*%
X89238095Y-49452380D02*
X89238095Y-50261904D01*
X89285714Y-50357142D01*
X89333333Y-50404761D01*
X89428571Y-50452380D01*
X89619047Y-50452380D01*
X89714285Y-50404761D01*
X89761904Y-50357142D01*
X89809523Y-50261904D01*
X89809523Y-49452380D01*
X90190476Y-49452380D02*
X90809523Y-49452380D01*
X90476190Y-49833333D01*
X90619047Y-49833333D01*
X90714285Y-49880952D01*
X90761904Y-49928571D01*
X90809523Y-50023809D01*
X90809523Y-50261904D01*
X90761904Y-50357142D01*
X90714285Y-50404761D01*
X90619047Y-50452380D01*
X90333333Y-50452380D01*
X90238095Y-50404761D01*
X90190476Y-50357142D01*
%TO.C,J2*%
X77666666Y-107452380D02*
X77666666Y-108166666D01*
X77619047Y-108309523D01*
X77523809Y-108404761D01*
X77380952Y-108452380D01*
X77285714Y-108452380D01*
X78095238Y-107547619D02*
X78142857Y-107500000D01*
X78238095Y-107452380D01*
X78476190Y-107452380D01*
X78571428Y-107500000D01*
X78619047Y-107547619D01*
X78666666Y-107642857D01*
X78666666Y-107738095D01*
X78619047Y-107880952D01*
X78047619Y-108452380D01*
X78666666Y-108452380D01*
%TO.C,H2*%
X154238095Y-41452380D02*
X154238095Y-40452380D01*
X154238095Y-40928571D02*
X154809523Y-40928571D01*
X154809523Y-41452380D02*
X154809523Y-40452380D01*
X155238095Y-40547619D02*
X155285714Y-40500000D01*
X155380952Y-40452380D01*
X155619047Y-40452380D01*
X155714285Y-40500000D01*
X155761904Y-40547619D01*
X155809523Y-40642857D01*
X155809523Y-40738095D01*
X155761904Y-40880952D01*
X155190476Y-41452380D01*
X155809523Y-41452380D01*
%TO.C,R23*%
X163357142Y-80452380D02*
X163023809Y-79976190D01*
X162785714Y-80452380D02*
X162785714Y-79452380D01*
X163166666Y-79452380D01*
X163261904Y-79500000D01*
X163309523Y-79547619D01*
X163357142Y-79642857D01*
X163357142Y-79785714D01*
X163309523Y-79880952D01*
X163261904Y-79928571D01*
X163166666Y-79976190D01*
X162785714Y-79976190D01*
X163738095Y-79547619D02*
X163785714Y-79500000D01*
X163880952Y-79452380D01*
X164119047Y-79452380D01*
X164214285Y-79500000D01*
X164261904Y-79547619D01*
X164309523Y-79642857D01*
X164309523Y-79738095D01*
X164261904Y-79880952D01*
X163690476Y-80452380D01*
X164309523Y-80452380D01*
X164642857Y-79452380D02*
X165261904Y-79452380D01*
X164928571Y-79833333D01*
X165071428Y-79833333D01*
X165166666Y-79880952D01*
X165214285Y-79928571D01*
X165261904Y-80023809D01*
X165261904Y-80261904D01*
X165214285Y-80357142D01*
X165166666Y-80404761D01*
X165071428Y-80452380D01*
X164785714Y-80452380D01*
X164690476Y-80404761D01*
X164642857Y-80357142D01*
%TO.C,SW4*%
X156219761Y-99908333D02*
X156267380Y-99765476D01*
X156267380Y-99527380D01*
X156219761Y-99432142D01*
X156172142Y-99384523D01*
X156076904Y-99336904D01*
X155981666Y-99336904D01*
X155886428Y-99384523D01*
X155838809Y-99432142D01*
X155791190Y-99527380D01*
X155743571Y-99717857D01*
X155695952Y-99813095D01*
X155648333Y-99860714D01*
X155553095Y-99908333D01*
X155457857Y-99908333D01*
X155362619Y-99860714D01*
X155315000Y-99813095D01*
X155267380Y-99717857D01*
X155267380Y-99479761D01*
X155315000Y-99336904D01*
X155267380Y-99003571D02*
X156267380Y-98765476D01*
X155553095Y-98575000D01*
X156267380Y-98384523D01*
X155267380Y-98146428D01*
X155600714Y-97336904D02*
X156267380Y-97336904D01*
X155219761Y-97575000D02*
X155934047Y-97813095D01*
X155934047Y-97194047D01*
%TO.C,Y1*%
X122773809Y-113226190D02*
X122773809Y-113702380D01*
X122440476Y-112702380D02*
X122773809Y-113226190D01*
X123107142Y-112702380D01*
X123964285Y-113702380D02*
X123392857Y-113702380D01*
X123678571Y-113702380D02*
X123678571Y-112702380D01*
X123583333Y-112845238D01*
X123488095Y-112940476D01*
X123392857Y-112988095D01*
%TO.C,C26*%
X155207142Y-88757142D02*
X155159523Y-88804761D01*
X155016666Y-88852380D01*
X154921428Y-88852380D01*
X154778571Y-88804761D01*
X154683333Y-88709523D01*
X154635714Y-88614285D01*
X154588095Y-88423809D01*
X154588095Y-88280952D01*
X154635714Y-88090476D01*
X154683333Y-87995238D01*
X154778571Y-87900000D01*
X154921428Y-87852380D01*
X155016666Y-87852380D01*
X155159523Y-87900000D01*
X155207142Y-87947619D01*
X155588095Y-87947619D02*
X155635714Y-87900000D01*
X155730952Y-87852380D01*
X155969047Y-87852380D01*
X156064285Y-87900000D01*
X156111904Y-87947619D01*
X156159523Y-88042857D01*
X156159523Y-88138095D01*
X156111904Y-88280952D01*
X155540476Y-88852380D01*
X156159523Y-88852380D01*
X157016666Y-87852380D02*
X156826190Y-87852380D01*
X156730952Y-87900000D01*
X156683333Y-87947619D01*
X156588095Y-88090476D01*
X156540476Y-88280952D01*
X156540476Y-88661904D01*
X156588095Y-88757142D01*
X156635714Y-88804761D01*
X156730952Y-88852380D01*
X156921428Y-88852380D01*
X157016666Y-88804761D01*
X157064285Y-88757142D01*
X157111904Y-88661904D01*
X157111904Y-88423809D01*
X157064285Y-88328571D01*
X157016666Y-88280952D01*
X156921428Y-88233333D01*
X156730952Y-88233333D01*
X156635714Y-88280952D01*
X156588095Y-88328571D01*
X156540476Y-88423809D01*
%TO.C,JP1*%
X85996666Y-88402380D02*
X85996666Y-89116666D01*
X85949047Y-89259523D01*
X85853809Y-89354761D01*
X85710952Y-89402380D01*
X85615714Y-89402380D01*
X86472857Y-89402380D02*
X86472857Y-88402380D01*
X86853809Y-88402380D01*
X86949047Y-88450000D01*
X86996666Y-88497619D01*
X87044285Y-88592857D01*
X87044285Y-88735714D01*
X86996666Y-88830952D01*
X86949047Y-88878571D01*
X86853809Y-88926190D01*
X86472857Y-88926190D01*
X87996666Y-89402380D02*
X87425238Y-89402380D01*
X87710952Y-89402380D02*
X87710952Y-88402380D01*
X87615714Y-88545238D01*
X87520476Y-88640476D01*
X87425238Y-88688095D01*
%TO.C,C4*%
X114607142Y-62666666D02*
X114654761Y-62714285D01*
X114702380Y-62857142D01*
X114702380Y-62952380D01*
X114654761Y-63095238D01*
X114559523Y-63190476D01*
X114464285Y-63238095D01*
X114273809Y-63285714D01*
X114130952Y-63285714D01*
X113940476Y-63238095D01*
X113845238Y-63190476D01*
X113750000Y-63095238D01*
X113702380Y-62952380D01*
X113702380Y-62857142D01*
X113750000Y-62714285D01*
X113797619Y-62666666D01*
X114035714Y-61809523D02*
X114702380Y-61809523D01*
X113654761Y-62047619D02*
X114369047Y-62285714D01*
X114369047Y-61666666D01*
%TO.C,C28*%
X129757142Y-83057142D02*
X129709523Y-83104761D01*
X129566666Y-83152380D01*
X129471428Y-83152380D01*
X129328571Y-83104761D01*
X129233333Y-83009523D01*
X129185714Y-82914285D01*
X129138095Y-82723809D01*
X129138095Y-82580952D01*
X129185714Y-82390476D01*
X129233333Y-82295238D01*
X129328571Y-82200000D01*
X129471428Y-82152380D01*
X129566666Y-82152380D01*
X129709523Y-82200000D01*
X129757142Y-82247619D01*
X130138095Y-82247619D02*
X130185714Y-82200000D01*
X130280952Y-82152380D01*
X130519047Y-82152380D01*
X130614285Y-82200000D01*
X130661904Y-82247619D01*
X130709523Y-82342857D01*
X130709523Y-82438095D01*
X130661904Y-82580952D01*
X130090476Y-83152380D01*
X130709523Y-83152380D01*
X131280952Y-82580952D02*
X131185714Y-82533333D01*
X131138095Y-82485714D01*
X131090476Y-82390476D01*
X131090476Y-82342857D01*
X131138095Y-82247619D01*
X131185714Y-82200000D01*
X131280952Y-82152380D01*
X131471428Y-82152380D01*
X131566666Y-82200000D01*
X131614285Y-82247619D01*
X131661904Y-82342857D01*
X131661904Y-82390476D01*
X131614285Y-82485714D01*
X131566666Y-82533333D01*
X131471428Y-82580952D01*
X131280952Y-82580952D01*
X131185714Y-82628571D01*
X131138095Y-82676190D01*
X131090476Y-82771428D01*
X131090476Y-82961904D01*
X131138095Y-83057142D01*
X131185714Y-83104761D01*
X131280952Y-83152380D01*
X131471428Y-83152380D01*
X131566666Y-83104761D01*
X131614285Y-83057142D01*
X131661904Y-82961904D01*
X131661904Y-82771428D01*
X131614285Y-82676190D01*
X131566666Y-82628571D01*
X131471428Y-82580952D01*
%TO.C,C13*%
X110427142Y-96792857D02*
X110474761Y-96840476D01*
X110522380Y-96983333D01*
X110522380Y-97078571D01*
X110474761Y-97221428D01*
X110379523Y-97316666D01*
X110284285Y-97364285D01*
X110093809Y-97411904D01*
X109950952Y-97411904D01*
X109760476Y-97364285D01*
X109665238Y-97316666D01*
X109570000Y-97221428D01*
X109522380Y-97078571D01*
X109522380Y-96983333D01*
X109570000Y-96840476D01*
X109617619Y-96792857D01*
X110522380Y-95840476D02*
X110522380Y-96411904D01*
X110522380Y-96126190D02*
X109522380Y-96126190D01*
X109665238Y-96221428D01*
X109760476Y-96316666D01*
X109808095Y-96411904D01*
X109522380Y-95507142D02*
X109522380Y-94888095D01*
X109903333Y-95221428D01*
X109903333Y-95078571D01*
X109950952Y-94983333D01*
X109998571Y-94935714D01*
X110093809Y-94888095D01*
X110331904Y-94888095D01*
X110427142Y-94935714D01*
X110474761Y-94983333D01*
X110522380Y-95078571D01*
X110522380Y-95364285D01*
X110474761Y-95459523D01*
X110427142Y-95507142D01*
%TO.C,R10*%
X82857142Y-49022380D02*
X82523809Y-48546190D01*
X82285714Y-49022380D02*
X82285714Y-48022380D01*
X82666666Y-48022380D01*
X82761904Y-48070000D01*
X82809523Y-48117619D01*
X82857142Y-48212857D01*
X82857142Y-48355714D01*
X82809523Y-48450952D01*
X82761904Y-48498571D01*
X82666666Y-48546190D01*
X82285714Y-48546190D01*
X83809523Y-49022380D02*
X83238095Y-49022380D01*
X83523809Y-49022380D02*
X83523809Y-48022380D01*
X83428571Y-48165238D01*
X83333333Y-48260476D01*
X83238095Y-48308095D01*
X84428571Y-48022380D02*
X84523809Y-48022380D01*
X84619047Y-48070000D01*
X84666666Y-48117619D01*
X84714285Y-48212857D01*
X84761904Y-48403333D01*
X84761904Y-48641428D01*
X84714285Y-48831904D01*
X84666666Y-48927142D01*
X84619047Y-48974761D01*
X84523809Y-49022380D01*
X84428571Y-49022380D01*
X84333333Y-48974761D01*
X84285714Y-48927142D01*
X84238095Y-48831904D01*
X84190476Y-48641428D01*
X84190476Y-48403333D01*
X84238095Y-48212857D01*
X84285714Y-48117619D01*
X84333333Y-48070000D01*
X84428571Y-48022380D01*
%TO.C,H3*%
X154238095Y-132452380D02*
X154238095Y-131452380D01*
X154238095Y-131928571D02*
X154809523Y-131928571D01*
X154809523Y-132452380D02*
X154809523Y-131452380D01*
X155190476Y-131452380D02*
X155809523Y-131452380D01*
X155476190Y-131833333D01*
X155619047Y-131833333D01*
X155714285Y-131880952D01*
X155761904Y-131928571D01*
X155809523Y-132023809D01*
X155809523Y-132261904D01*
X155761904Y-132357142D01*
X155714285Y-132404761D01*
X155619047Y-132452380D01*
X155333333Y-132452380D01*
X155238095Y-132404761D01*
X155190476Y-132357142D01*
%TO.C,REF\u002A\u002A*%
G36*
X153750000Y-52750000D02*
G01*
X156750000Y-51250000D01*
X154750000Y-56750000D01*
X154250000Y-56250000D01*
X155250000Y-52750000D01*
X153250000Y-53250000D01*
X153750000Y-48750000D01*
X155250000Y-48750000D01*
X153750000Y-52750000D01*
G37*
X153750000Y-52750000D02*
X156750000Y-51250000D01*
X154750000Y-56750000D01*
X154250000Y-56250000D01*
X155250000Y-52750000D01*
X153250000Y-53250000D01*
X153750000Y-48750000D01*
X155250000Y-48750000D01*
X153750000Y-52750000D01*
G36*
X154250000Y-56250000D02*
G01*
X154750000Y-56750000D01*
X156250000Y-56250000D01*
X153250000Y-58750000D01*
X153750000Y-54750000D01*
X154250000Y-56250000D01*
G37*
X154250000Y-56250000D02*
X154750000Y-56750000D01*
X156250000Y-56250000D01*
X153250000Y-58750000D01*
X153750000Y-54750000D01*
X154250000Y-56250000D01*
D14*
%TO.C,R25*%
X113772500Y-84237258D02*
X113772500Y-83762742D01*
X112727500Y-84237258D02*
X112727500Y-83762742D01*
%TO.C,R24*%
X116522500Y-86237258D02*
X116522500Y-85762742D01*
X115477500Y-86237258D02*
X115477500Y-85762742D01*
%TO.C,TP_VTRANS1*%
X121950000Y-61500000D02*
G75*
G03*
X121950000Y-61500000I-700000J0D01*
G01*
%TO.C,TP_VBUS_USB1*%
X80200000Y-89750000D02*
G75*
G03*
X80200000Y-89750000I-700000J0D01*
G01*
%TO.C,TP_VBUS1*%
X79700000Y-47000000D02*
G75*
G03*
X79700000Y-47000000I-700000J0D01*
G01*
%TO.C,TP_SDA1*%
X118450000Y-70500000D02*
G75*
G03*
X118450000Y-70500000I-700000J0D01*
G01*
%TO.C,TP_SCL1*%
X112950000Y-70500000D02*
G75*
G03*
X112950000Y-70500000I-700000J0D01*
G01*
%TO.C,TP_RBG1*%
X111950000Y-53500000D02*
G75*
G03*
X111950000Y-53500000I-700000J0D01*
G01*
%TO.C,TP_ONOFF1*%
X143950000Y-123750000D02*
G75*
G03*
X143950000Y-123750000I-700000J0D01*
G01*
%TO.C,TP_nDONE1*%
X110950000Y-75250000D02*
G75*
G03*
X110950000Y-75250000I-700000J0D01*
G01*
%TO.C,TP_MOSD1*%
X125950000Y-55000000D02*
G75*
G03*
X125950000Y-55000000I-700000J0D01*
G01*
%TO.C,TP_INC1*%
X143950000Y-114000000D02*
G75*
G03*
X143950000Y-114000000I-700000J0D01*
G01*
%TO.C,TP_GND2*%
X99700000Y-50500000D02*
G75*
G03*
X99700000Y-50500000I-700000J0D01*
G01*
%TO.C,TP_GND1*%
X114700000Y-114250000D02*
G75*
G03*
X114700000Y-114250000I-700000J0D01*
G01*
%TO.C,TP_DOUT1*%
X127450000Y-79000000D02*
G75*
G03*
X127450000Y-79000000I-700000J0D01*
G01*
%TO.C,TP_DIAG1*%
X128950000Y-86500000D02*
G75*
G03*
X128950000Y-86500000I-700000J0D01*
G01*
%TO.C,TP_DEC1*%
X138200000Y-109500000D02*
G75*
G03*
X138200000Y-109500000I-700000J0D01*
G01*
%TO.C,TP_CHARGE1*%
X106200000Y-75250000D02*
G75*
G03*
X106200000Y-75250000I-700000J0D01*
G01*
%TO.C,TP_20VPD1*%
X96200000Y-47000000D02*
G75*
G03*
X96200000Y-47000000I-700000J0D01*
G01*
%TO.C,TP_3V3_MIC1*%
X114700000Y-110250000D02*
G75*
G03*
X114700000Y-110250000I-700000J0D01*
G01*
%TO.C,TP_3V3*%
X103200000Y-47000000D02*
G75*
G03*
X103200000Y-47000000I-700000J0D01*
G01*
%TO.C,J4*%
X120080000Y-80470000D02*
X120080000Y-88150000D01*
X117420000Y-79200000D02*
X117420000Y-77870000D01*
X117420000Y-88150000D02*
X120080000Y-88150000D01*
X117420000Y-80470000D02*
X120080000Y-80470000D01*
X117420000Y-77870000D02*
X118750000Y-77870000D01*
X117420000Y-80470000D02*
X117420000Y-88150000D01*
%TO.C,R12*%
X113672500Y-53762742D02*
X113672500Y-54237258D01*
X112627500Y-53762742D02*
X112627500Y-54237258D01*
%TO.C,C30*%
X83640580Y-93390000D02*
X83359420Y-93390000D01*
X83640580Y-94410000D02*
X83359420Y-94410000D01*
%TO.C,C22*%
X102890580Y-104260000D02*
X102609420Y-104260000D01*
X102890580Y-103240000D02*
X102609420Y-103240000D01*
%TO.C,C12*%
X108010000Y-108609420D02*
X108010000Y-108890580D01*
X106990000Y-108609420D02*
X106990000Y-108890580D01*
%TO.C,R20*%
X152362742Y-81722500D02*
X152837258Y-81722500D01*
X152362742Y-80677500D02*
X152837258Y-80677500D01*
%TO.C,Q3*%
X99785000Y-59000000D02*
X99785000Y-59650000D01*
X99785000Y-59000000D02*
X99785000Y-57325000D01*
X96665000Y-59000000D02*
X96665000Y-58350000D01*
X96665000Y-59000000D02*
X96665000Y-59650000D01*
%TO.C,C18*%
X104140580Y-97240000D02*
X103859420Y-97240000D01*
X104140580Y-98260000D02*
X103859420Y-98260000D01*
%TO.C,R17*%
X85562742Y-117877500D02*
X86037258Y-117877500D01*
X85562742Y-118922500D02*
X86037258Y-118922500D01*
%TO.C,R4*%
X83262742Y-100737500D02*
X83737258Y-100737500D01*
X83262742Y-99692500D02*
X83737258Y-99692500D01*
%TO.C,U6*%
X103725000Y-111900000D02*
X103725000Y-109175000D01*
X98275000Y-114625000D02*
X98535000Y-114625000D01*
X103725000Y-109175000D02*
X103465000Y-109175000D01*
X98275000Y-111900000D02*
X98275000Y-109175000D01*
X98275000Y-111900000D02*
X98275000Y-114625000D01*
X98535000Y-114625000D02*
X98535000Y-116300000D01*
X103725000Y-114625000D02*
X103465000Y-114625000D01*
X98275000Y-109175000D02*
X98535000Y-109175000D01*
X103725000Y-111900000D02*
X103725000Y-114625000D01*
%TO.C,R16*%
X117487258Y-102977500D02*
X117012742Y-102977500D01*
X117487258Y-104022500D02*
X117012742Y-104022500D01*
%TO.C,C15*%
X107490000Y-96290580D02*
X107490000Y-96009420D01*
X108510000Y-96290580D02*
X108510000Y-96009420D01*
%TO.C,JP5*%
X92100000Y-115800000D02*
X92100000Y-115200000D01*
X94900000Y-115200000D02*
X94900000Y-115800000D01*
X94200000Y-116500000D02*
X92800000Y-116500000D01*
X92800000Y-114500000D02*
X94200000Y-114500000D01*
X94900000Y-115200000D02*
G75*
G03*
X94200000Y-114500000I-700000J0D01*
G01*
X92100000Y-115800000D02*
G75*
G03*
X92800000Y-116500000I699999J-1D01*
G01*
X94200000Y-116500000D02*
G75*
G03*
X94900000Y-115800000I0J700000D01*
G01*
X92800000Y-114500000D02*
G75*
G03*
X92100000Y-115200000I-1J-699999D01*
G01*
%TO.C,Q1*%
X126676400Y-49289861D02*
X126676400Y-49073600D01*
X126676400Y-52426400D02*
X126676400Y-52210139D01*
X126676400Y-49073600D02*
X123323600Y-49073600D01*
X122750000Y-50000000D02*
X122750000Y-49500000D01*
X123323600Y-52426400D02*
X126676400Y-52426400D01*
X123323600Y-52210139D02*
X123323600Y-52426400D01*
X123323600Y-49073600D02*
X123323600Y-49289861D01*
%TO.C,C23*%
X103340580Y-99760000D02*
X103059420Y-99760000D01*
X103340580Y-98740000D02*
X103059420Y-98740000D01*
%TO.C,U1*%
X92000000Y-103660000D02*
X88140000Y-103660000D01*
X88140000Y-103660000D02*
X88140000Y-103405000D01*
X95860000Y-103660000D02*
X95860000Y-103405000D01*
X92000000Y-103660000D02*
X95860000Y-103660000D01*
X88140000Y-93140000D02*
X88140000Y-93395000D01*
X95860000Y-93140000D02*
X95860000Y-93395000D01*
X92000000Y-93140000D02*
X95860000Y-93140000D01*
X88140000Y-93395000D02*
X86325000Y-93395000D01*
X92000000Y-93140000D02*
X88140000Y-93140000D01*
%TO.C,SW2*%
X77770000Y-121700000D02*
X77770000Y-124300000D01*
X84230000Y-126230000D02*
X84230000Y-126200000D01*
X77770000Y-119800000D02*
X77770000Y-119770000D01*
X84230000Y-119770000D02*
X84230000Y-119800000D01*
X84230000Y-121700000D02*
X84230000Y-124300000D01*
X77770000Y-119770000D02*
X84230000Y-119770000D01*
X77770000Y-126230000D02*
X77770000Y-126200000D01*
X77770000Y-126230000D02*
X84230000Y-126230000D01*
%TO.C,C16*%
X99859420Y-93240000D02*
X100140580Y-93240000D01*
X99859420Y-94260000D02*
X100140580Y-94260000D01*
%TO.C,C19*%
X112010000Y-108609420D02*
X112010000Y-108890580D01*
X110990000Y-108609420D02*
X110990000Y-108890580D01*
%TO.C,C3*%
X117235000Y-58738748D02*
X117235000Y-59261252D01*
X115765000Y-58738748D02*
X115765000Y-59261252D01*
%TO.C,C6*%
X152653000Y-63026677D02*
X159347000Y-63026677D01*
X152399000Y-63266677D02*
X154759000Y-63266677D01*
X154770000Y-61906677D02*
X157230000Y-61906677D01*
X151176000Y-65266677D02*
X154759000Y-65266677D01*
X150920000Y-66827677D02*
X161080000Y-66827677D01*
X151035000Y-65786677D02*
X160965000Y-65786677D01*
X153111000Y-62666677D02*
X158889000Y-62666677D01*
X151605000Y-64306677D02*
X154759000Y-64306677D01*
X157241000Y-63426677D02*
X159753000Y-63426677D01*
X153055000Y-62706677D02*
X158945000Y-62706677D01*
X157241000Y-65066677D02*
X160754000Y-65066677D01*
X150920000Y-66867677D02*
X161080000Y-66867677D01*
X157241000Y-64266677D02*
X160371000Y-64266677D01*
X150938000Y-66427677D02*
X161062000Y-66427677D01*
X157241000Y-64146677D02*
X160298000Y-64146677D01*
X151980000Y-63746677D02*
X154759000Y-63746677D01*
X150925000Y-66627677D02*
X161075000Y-66627677D01*
X151003000Y-65946677D02*
X160997000Y-65946677D01*
X157241000Y-65306677D02*
X160837000Y-65306677D01*
X151343000Y-64826677D02*
X154759000Y-64826677D01*
X157241000Y-65426677D02*
X160874000Y-65426677D01*
X153230000Y-62586677D02*
X158770000Y-62586677D01*
X157241000Y-64546677D02*
X160525000Y-64546677D01*
X157241000Y-63706677D02*
X159989000Y-63706677D01*
X151677000Y-64186677D02*
X154759000Y-64186677D01*
X151806000Y-63986677D02*
X154759000Y-63986677D01*
X150960000Y-66227677D02*
X161040000Y-66227677D01*
X150935000Y-66467677D02*
X161065000Y-66467677D01*
X154490000Y-61986677D02*
X157510000Y-61986677D01*
X157241000Y-64106677D02*
X160273000Y-64106677D01*
X151026000Y-65826677D02*
X160974000Y-65826677D01*
X152284000Y-63386677D02*
X154759000Y-63386677D01*
X153791000Y-62266677D02*
X158209000Y-62266677D01*
X157241000Y-64026677D02*
X160221000Y-64026677D01*
X152043000Y-63666677D02*
X154759000Y-63666677D01*
X157241000Y-63226677D02*
X159561000Y-63226677D01*
X151062000Y-65666677D02*
X160938000Y-65666677D01*
X157241000Y-64786677D02*
X160639000Y-64786677D01*
X157241000Y-63466677D02*
X159789000Y-63466677D01*
X157241000Y-65386677D02*
X160862000Y-65386677D01*
X151217000Y-65146677D02*
X154759000Y-65146677D01*
X151010000Y-65906677D02*
X160990000Y-65906677D01*
X150955000Y-66267677D02*
X161045000Y-66267677D01*
X157241000Y-63266677D02*
X159601000Y-63266677D01*
X157241000Y-64386677D02*
X160440000Y-64386677D01*
X157241000Y-64226677D02*
X160347000Y-64226677D01*
X153635000Y-62346677D02*
X158365000Y-62346677D01*
X150923000Y-66667677D02*
X161077000Y-66667677D01*
X157241000Y-65586677D02*
X160918000Y-65586677D01*
X154938000Y-61866677D02*
X157062000Y-61866677D01*
X151496000Y-64506677D02*
X154759000Y-64506677D01*
X152564000Y-63106677D02*
X159436000Y-63106677D01*
X157241000Y-64346677D02*
X160417000Y-64346677D01*
X157241000Y-63506677D02*
X159824000Y-63506677D01*
X157241000Y-64066677D02*
X160247000Y-64066677D01*
X157241000Y-63666677D02*
X159957000Y-63666677D01*
X151150000Y-65346677D02*
X154759000Y-65346677D01*
X152439000Y-63226677D02*
X154759000Y-63226677D01*
X150920000Y-66787677D02*
X161080000Y-66787677D01*
X153291000Y-62546677D02*
X158709000Y-62546677D01*
X151044000Y-65746677D02*
X160956000Y-65746677D01*
X151653000Y-64226677D02*
X154759000Y-64226677D01*
X157241000Y-63186677D02*
X159520000Y-63186677D01*
X151753000Y-64066677D02*
X154759000Y-64066677D01*
X155138000Y-61826677D02*
X156862000Y-61826677D01*
X157241000Y-63946677D02*
X160166000Y-63946677D01*
X157241000Y-64186677D02*
X160323000Y-64186677D01*
X152522000Y-63146677D02*
X154759000Y-63146677D01*
X154622000Y-61946677D02*
X157378000Y-61946677D01*
X150932000Y-66507677D02*
X161068000Y-66507677D01*
X151203000Y-65186677D02*
X154759000Y-65186677D01*
X151583000Y-64346677D02*
X154759000Y-64346677D01*
X157241000Y-63986677D02*
X160194000Y-63986677D01*
X151293000Y-64946677D02*
X154759000Y-64946677D01*
X151163000Y-65306677D02*
X154759000Y-65306677D01*
X152211000Y-63466677D02*
X154759000Y-63466677D01*
X151361000Y-64786677D02*
X154759000Y-64786677D01*
X157241000Y-64866677D02*
X160674000Y-64866677D01*
X151702000Y-64146677D02*
X154759000Y-64146677D01*
X153561000Y-62386677D02*
X158439000Y-62386677D01*
X150921000Y-66747677D02*
X161079000Y-66747677D01*
X150976000Y-66106677D02*
X161024000Y-66106677D01*
X151436000Y-64626677D02*
X154759000Y-64626677D01*
X151232000Y-65106677D02*
X154759000Y-65106677D01*
X157241000Y-64746677D02*
X160621000Y-64746677D01*
X157241000Y-65266677D02*
X160824000Y-65266677D01*
X151103000Y-65506677D02*
X154759000Y-65506677D01*
X151138000Y-65386677D02*
X154759000Y-65386677D01*
X157241000Y-65506677D02*
X160897000Y-65506677D01*
X157241000Y-64426677D02*
X160462000Y-64426677D01*
X151115000Y-65466677D02*
X154759000Y-65466677D01*
X151326000Y-64866677D02*
X154759000Y-64866677D01*
X151920000Y-63826677D02*
X154759000Y-63826677D01*
X151018000Y-65866677D02*
X160982000Y-65866677D01*
X153421000Y-62466677D02*
X158579000Y-62466677D01*
X154370000Y-62026677D02*
X157630000Y-62026677D01*
X153711000Y-62306677D02*
X158289000Y-62306677D01*
X153170000Y-62626677D02*
X158830000Y-62626677D01*
X150989000Y-66026677D02*
X161011000Y-66026677D01*
X152321000Y-63346677D02*
X154759000Y-63346677D01*
X157241000Y-63746677D02*
X160020000Y-63746677D01*
X152011000Y-63706677D02*
X154759000Y-63706677D01*
X155401000Y-61786677D02*
X156599000Y-61786677D01*
X152746000Y-62946677D02*
X159254000Y-62946677D01*
X157241000Y-63906677D02*
X160138000Y-63906677D01*
X157241000Y-63826677D02*
X160080000Y-63826677D01*
X151455000Y-64586677D02*
X154759000Y-64586677D01*
X157241000Y-63866677D02*
X160110000Y-63866677D01*
X157241000Y-64626677D02*
X160564000Y-64626677D01*
X151862000Y-63906677D02*
X154759000Y-63906677D01*
X152360000Y-63306677D02*
X154759000Y-63306677D01*
X151277000Y-64986677D02*
X154759000Y-64986677D01*
X157241000Y-65106677D02*
X160768000Y-65106677D01*
X152946000Y-62786677D02*
X159054000Y-62786677D01*
X152794000Y-62906677D02*
X159206000Y-62906677D01*
X151072000Y-65626677D02*
X160928000Y-65626677D01*
X157241000Y-64906677D02*
X160690000Y-64906677D01*
X152894000Y-62826677D02*
X159106000Y-62826677D01*
X157241000Y-63546677D02*
X159858000Y-63546677D01*
X152608000Y-63066677D02*
X159392000Y-63066677D01*
X150927000Y-66587677D02*
X161073000Y-66587677D01*
X157241000Y-64706677D02*
X160603000Y-64706677D01*
X151082000Y-65586677D02*
X154759000Y-65586677D01*
X153000000Y-62746677D02*
X159000000Y-62746677D01*
X151950000Y-63786677D02*
X154759000Y-63786677D01*
X157241000Y-63306677D02*
X159640000Y-63306677D01*
X151053000Y-65706677D02*
X160947000Y-65706677D01*
X150946000Y-66347677D02*
X161054000Y-66347677D01*
X153490000Y-62426677D02*
X158510000Y-62426677D01*
X151126000Y-65426677D02*
X154759000Y-65426677D01*
X150982000Y-66066677D02*
X161018000Y-66066677D01*
X152176000Y-63506677D02*
X154759000Y-63506677D01*
X150942000Y-66387677D02*
X161058000Y-66387677D01*
X154056000Y-62146677D02*
X157944000Y-62146677D01*
X157241000Y-64586677D02*
X160545000Y-64586677D01*
X157241000Y-64666677D02*
X160584000Y-64666677D01*
X151246000Y-65066677D02*
X154759000Y-65066677D01*
X151262000Y-65026677D02*
X154759000Y-65026677D01*
X154258000Y-62066677D02*
X157742000Y-62066677D01*
X150970000Y-66146677D02*
X161030000Y-66146677D01*
X157241000Y-65186677D02*
X160797000Y-65186677D01*
X151379000Y-64746677D02*
X154759000Y-64746677D01*
X152142000Y-63546677D02*
X154759000Y-63546677D01*
X154154000Y-62106677D02*
X157846000Y-62106677D01*
X157241000Y-63386677D02*
X159716000Y-63386677D01*
X152844000Y-62866677D02*
X159156000Y-62866677D01*
X151834000Y-63946677D02*
X154759000Y-63946677D01*
X151475000Y-64546677D02*
X154759000Y-64546677D01*
X151517000Y-64466677D02*
X154759000Y-64466677D01*
X153875000Y-62226677D02*
X158125000Y-62226677D01*
X150996000Y-65986677D02*
X161004000Y-65986677D01*
X150922000Y-66707677D02*
X161078000Y-66707677D01*
X157241000Y-63346677D02*
X159679000Y-63346677D01*
X157241000Y-65346677D02*
X160850000Y-65346677D01*
X150950000Y-66307677D02*
X161050000Y-66307677D01*
X151629000Y-64266677D02*
X154759000Y-64266677D01*
X152699000Y-62986677D02*
X159301000Y-62986677D01*
X151560000Y-64386677D02*
X154759000Y-64386677D01*
X157241000Y-65146677D02*
X160783000Y-65146677D01*
X150965000Y-66187677D02*
X161035000Y-66187677D01*
X151397000Y-64706677D02*
X154759000Y-64706677D01*
X151779000Y-64026677D02*
X154759000Y-64026677D01*
X151093000Y-65546677D02*
X154759000Y-65546677D01*
X151890000Y-63866677D02*
X154759000Y-63866677D01*
X157241000Y-64986677D02*
X160723000Y-64986677D01*
X151538000Y-64426677D02*
X154759000Y-64426677D01*
X153125000Y-72347323D02*
X153125000Y-71347323D01*
X157241000Y-65026677D02*
X160738000Y-65026677D01*
X153355000Y-62506677D02*
X158645000Y-62506677D01*
X153963000Y-62186677D02*
X158037000Y-62186677D01*
X152075000Y-63626677D02*
X154759000Y-63626677D01*
X157241000Y-63586677D02*
X159892000Y-63586677D01*
X157241000Y-64946677D02*
X160707000Y-64946677D01*
X151727000Y-64106677D02*
X154759000Y-64106677D01*
X152247000Y-63426677D02*
X154759000Y-63426677D01*
X150930000Y-66547677D02*
X161070000Y-66547677D01*
X152480000Y-63186677D02*
X154759000Y-63186677D01*
X157241000Y-63626677D02*
X159925000Y-63626677D01*
X157241000Y-63146677D02*
X159478000Y-63146677D01*
X151416000Y-64666677D02*
X154759000Y-64666677D01*
X151310000Y-64906677D02*
X154759000Y-64906677D01*
X157241000Y-64306677D02*
X160395000Y-64306677D01*
X157241000Y-64506677D02*
X160504000Y-64506677D01*
X151189000Y-65226677D02*
X154759000Y-65226677D01*
X152108000Y-63586677D02*
X154759000Y-63586677D01*
X152625000Y-71847323D02*
X153625000Y-71847323D01*
X157241000Y-65226677D02*
X160811000Y-65226677D01*
X157241000Y-64826677D02*
X160657000Y-64826677D01*
X157241000Y-64466677D02*
X160483000Y-64466677D01*
X157241000Y-65466677D02*
X160885000Y-65466677D01*
X157241000Y-63786677D02*
X160050000Y-63786677D01*
X157241000Y-65546677D02*
X160907000Y-65546677D01*
X161120000Y-66867677D02*
G75*
G03*
X161120000Y-66867677I-5120000J0D01*
G01*
%TO.C,JP4*%
X98200000Y-92000000D02*
X96800000Y-92000000D01*
X96100000Y-91300000D02*
X96100000Y-90700000D01*
X96800000Y-90000000D02*
X98200000Y-90000000D01*
X98900000Y-90700000D02*
X98900000Y-91300000D01*
X98900000Y-90700000D02*
G75*
G03*
X98200000Y-90000000I-700000J0D01*
G01*
X98200000Y-92000000D02*
G75*
G03*
X98900000Y-91300000I0J700000D01*
G01*
X96800000Y-90000000D02*
G75*
G03*
X96100000Y-90700000I-1J-699999D01*
G01*
X96100000Y-91300000D02*
G75*
G03*
X96800000Y-92000000I699999J-1D01*
G01*
%TO.C,C1*%
X120359420Y-55490000D02*
X120640580Y-55490000D01*
X120359420Y-56510000D02*
X120640580Y-56510000D01*
%TO.C,C34*%
X110740000Y-47109420D02*
X110740000Y-47390580D01*
X111760000Y-47109420D02*
X111760000Y-47390580D01*
%TO.C,R14*%
X119727500Y-47237258D02*
X119727500Y-46762742D01*
X120772500Y-47237258D02*
X120772500Y-46762742D01*
D15*
%TO.C,U5*%
X107000000Y-98650000D02*
X107480000Y-98650000D01*
X114000000Y-105650000D02*
X114000000Y-105170000D01*
X114000000Y-105650000D02*
X113520000Y-105650000D01*
X107000000Y-105650000D02*
X107480000Y-105650000D01*
X107000000Y-105650000D02*
X107000000Y-105170000D01*
X114000000Y-98650000D02*
X113520000Y-98650000D01*
X114000000Y-98650000D02*
X114000000Y-99130000D01*
X107000000Y-98650000D02*
X107000000Y-99130000D01*
D16*
X108000000Y-106625000D02*
G75*
G03*
X108000000Y-106625000I-100000J0D01*
G01*
D14*
%TO.C,R8*%
X83262742Y-53785000D02*
X83737258Y-53785000D01*
X83262742Y-52740000D02*
X83737258Y-52740000D01*
%TO.C,D1*%
X85000000Y-57940000D02*
X83200000Y-57940000D01*
X85000000Y-61060000D02*
X85800000Y-61060000D01*
X85000000Y-57940000D02*
X85800000Y-57940000D01*
X85000000Y-61060000D02*
X84200000Y-61060000D01*
%TO.C,C20*%
X102890580Y-101740000D02*
X102609420Y-101740000D01*
X102890580Y-102760000D02*
X102609420Y-102760000D01*
%TO.C,R2*%
X83262742Y-98772500D02*
X83737258Y-98772500D01*
X83262742Y-97727500D02*
X83737258Y-97727500D01*
D13*
%TO.C,U2*%
X117100000Y-53675000D02*
X117100000Y-50325000D01*
X117100000Y-53675000D02*
X117325000Y-53675000D01*
X120450000Y-50325000D02*
X120150000Y-50325000D01*
X120450000Y-53675000D02*
X120150000Y-53675000D01*
X117100000Y-50325000D02*
X117400000Y-50325000D01*
X120450000Y-53675000D02*
X120450000Y-50325000D01*
X117325000Y-53675000D02*
X117325000Y-54900000D01*
D14*
%TO.C,C35*%
X162093000Y-65546677D02*
X165759000Y-65546677D01*
X162950000Y-63786677D02*
X165759000Y-63786677D01*
X161920000Y-66867677D02*
X172080000Y-66867677D01*
X162072000Y-65626677D02*
X171928000Y-65626677D01*
X163522000Y-63146677D02*
X165759000Y-63146677D01*
X162343000Y-64826677D02*
X165759000Y-64826677D01*
X161950000Y-66307677D02*
X172050000Y-66307677D01*
X162277000Y-64986677D02*
X165759000Y-64986677D01*
X168241000Y-65586677D02*
X171918000Y-65586677D01*
X165258000Y-62066677D02*
X168742000Y-62066677D01*
X161946000Y-66347677D02*
X172054000Y-66347677D01*
X168241000Y-63746677D02*
X171020000Y-63746677D01*
X165490000Y-61986677D02*
X168510000Y-61986677D01*
X161960000Y-66227677D02*
X172040000Y-66227677D01*
X162806000Y-63986677D02*
X165759000Y-63986677D01*
X168241000Y-64826677D02*
X171657000Y-64826677D01*
X162455000Y-64586677D02*
X165759000Y-64586677D01*
X162980000Y-63746677D02*
X165759000Y-63746677D01*
X168241000Y-63786677D02*
X171050000Y-63786677D01*
X161955000Y-66267677D02*
X172045000Y-66267677D01*
X168241000Y-65106677D02*
X171768000Y-65106677D01*
X161922000Y-66707677D02*
X172078000Y-66707677D01*
X162150000Y-65346677D02*
X165759000Y-65346677D01*
X162003000Y-65946677D02*
X171997000Y-65946677D01*
X162475000Y-64546677D02*
X165759000Y-64546677D01*
X168241000Y-65306677D02*
X171837000Y-65306677D01*
X168241000Y-64466677D02*
X171483000Y-64466677D01*
X162189000Y-65226677D02*
X165759000Y-65226677D01*
X161938000Y-66427677D02*
X172062000Y-66427677D01*
X162217000Y-65146677D02*
X165759000Y-65146677D01*
X161970000Y-66146677D02*
X172030000Y-66146677D01*
X168241000Y-63186677D02*
X170520000Y-63186677D01*
X162583000Y-64346677D02*
X165759000Y-64346677D01*
X166138000Y-61826677D02*
X167862000Y-61826677D01*
X164635000Y-62346677D02*
X169365000Y-62346677D01*
X164963000Y-62186677D02*
X169037000Y-62186677D01*
X168241000Y-64706677D02*
X171603000Y-64706677D01*
X164561000Y-62386677D02*
X169439000Y-62386677D01*
X162605000Y-64306677D02*
X165759000Y-64306677D01*
X162753000Y-64066677D02*
X165759000Y-64066677D01*
X161996000Y-65986677D02*
X172004000Y-65986677D01*
X168241000Y-63426677D02*
X170753000Y-63426677D01*
X162310000Y-64906677D02*
X165759000Y-64906677D01*
X163564000Y-63106677D02*
X170436000Y-63106677D01*
X162397000Y-64706677D02*
X165759000Y-64706677D01*
X162203000Y-65186677D02*
X165759000Y-65186677D01*
X162115000Y-65466677D02*
X165759000Y-65466677D01*
X163043000Y-63666677D02*
X165759000Y-63666677D01*
X161927000Y-66587677D02*
X172073000Y-66587677D01*
X163399000Y-63266677D02*
X165759000Y-63266677D01*
X161920000Y-66827677D02*
X172080000Y-66827677D01*
X162326000Y-64866677D02*
X165759000Y-64866677D01*
X161932000Y-66507677D02*
X172068000Y-66507677D01*
X163699000Y-62986677D02*
X170301000Y-62986677D01*
X162677000Y-64186677D02*
X165759000Y-64186677D01*
X168241000Y-63626677D02*
X170925000Y-63626677D01*
X168241000Y-63306677D02*
X170640000Y-63306677D01*
X162232000Y-65106677D02*
X165759000Y-65106677D01*
X162517000Y-64466677D02*
X165759000Y-64466677D01*
X162890000Y-63866677D02*
X165759000Y-63866677D01*
X161921000Y-66747677D02*
X172079000Y-66747677D01*
X163011000Y-63706677D02*
X165759000Y-63706677D01*
X162053000Y-65706677D02*
X171947000Y-65706677D01*
X161982000Y-66066677D02*
X172018000Y-66066677D01*
X165622000Y-61946677D02*
X168378000Y-61946677D01*
X168241000Y-65466677D02*
X171885000Y-65466677D01*
X162010000Y-65906677D02*
X171990000Y-65906677D01*
X166401000Y-61786677D02*
X167599000Y-61786677D01*
X162629000Y-64266677D02*
X165759000Y-64266677D01*
X162138000Y-65386677D02*
X165759000Y-65386677D01*
X168241000Y-64906677D02*
X171690000Y-64906677D01*
X168241000Y-64226677D02*
X171347000Y-64226677D01*
X164421000Y-62466677D02*
X169579000Y-62466677D01*
X165154000Y-62106677D02*
X168846000Y-62106677D01*
X161923000Y-66667677D02*
X172077000Y-66667677D01*
X164111000Y-62666677D02*
X169889000Y-62666677D01*
X161989000Y-66026677D02*
X172011000Y-66026677D01*
X168241000Y-65386677D02*
X171862000Y-65386677D01*
X162702000Y-64146677D02*
X165759000Y-64146677D01*
X163108000Y-63586677D02*
X165759000Y-63586677D01*
X168241000Y-63866677D02*
X171110000Y-63866677D01*
X168241000Y-64106677D02*
X171273000Y-64106677D01*
X168241000Y-64746677D02*
X171621000Y-64746677D01*
X164711000Y-62306677D02*
X169289000Y-62306677D01*
X162293000Y-64946677D02*
X165759000Y-64946677D01*
X168241000Y-64626677D02*
X171564000Y-64626677D01*
X168241000Y-63386677D02*
X170716000Y-63386677D01*
X168241000Y-63826677D02*
X171080000Y-63826677D01*
X168241000Y-64946677D02*
X171707000Y-64946677D01*
X163844000Y-62866677D02*
X170156000Y-62866677D01*
X162653000Y-64226677D02*
X165759000Y-64226677D01*
X168241000Y-64666677D02*
X171584000Y-64666677D01*
X163211000Y-63466677D02*
X165759000Y-63466677D01*
X163946000Y-62786677D02*
X170054000Y-62786677D01*
X168241000Y-64546677D02*
X171525000Y-64546677D01*
X165770000Y-61906677D02*
X168230000Y-61906677D01*
X161942000Y-66387677D02*
X172058000Y-66387677D01*
X168241000Y-63466677D02*
X170789000Y-63466677D01*
X168241000Y-65506677D02*
X171897000Y-65506677D01*
X162103000Y-65506677D02*
X165759000Y-65506677D01*
X162126000Y-65426677D02*
X165759000Y-65426677D01*
X163247000Y-63426677D02*
X165759000Y-63426677D01*
X162035000Y-65786677D02*
X171965000Y-65786677D01*
X168241000Y-64586677D02*
X171545000Y-64586677D01*
X165938000Y-61866677D02*
X168062000Y-61866677D01*
X162538000Y-64426677D02*
X165759000Y-64426677D01*
X168241000Y-63346677D02*
X170679000Y-63346677D01*
X168241000Y-64866677D02*
X171674000Y-64866677D01*
X168241000Y-64066677D02*
X171247000Y-64066677D01*
X161930000Y-66547677D02*
X172070000Y-66547677D01*
X165056000Y-62146677D02*
X168944000Y-62146677D01*
X168241000Y-63546677D02*
X170858000Y-63546677D01*
X161965000Y-66187677D02*
X172035000Y-66187677D01*
X164355000Y-62506677D02*
X169645000Y-62506677D01*
X168241000Y-63986677D02*
X171194000Y-63986677D01*
X168241000Y-64146677D02*
X171298000Y-64146677D01*
X168241000Y-65026677D02*
X171738000Y-65026677D01*
X168241000Y-65146677D02*
X171783000Y-65146677D01*
X163894000Y-62826677D02*
X170106000Y-62826677D01*
X163176000Y-63506677D02*
X165759000Y-63506677D01*
X163794000Y-62906677D02*
X170206000Y-62906677D01*
X164875000Y-62226677D02*
X169125000Y-62226677D01*
X168241000Y-64506677D02*
X171504000Y-64506677D01*
X164791000Y-62266677D02*
X169209000Y-62266677D01*
X162026000Y-65826677D02*
X171974000Y-65826677D01*
X168241000Y-64786677D02*
X171639000Y-64786677D01*
X168241000Y-63266677D02*
X170601000Y-63266677D01*
X164125000Y-72347323D02*
X164125000Y-71347323D01*
X162779000Y-64026677D02*
X165759000Y-64026677D01*
X164170000Y-62626677D02*
X169830000Y-62626677D01*
X163142000Y-63546677D02*
X165759000Y-63546677D01*
X162163000Y-65306677D02*
X165759000Y-65306677D01*
X162361000Y-64786677D02*
X165759000Y-64786677D01*
X164000000Y-62746677D02*
X170000000Y-62746677D01*
X162062000Y-65666677D02*
X171938000Y-65666677D01*
X163625000Y-71847323D02*
X164625000Y-71847323D01*
X168241000Y-63146677D02*
X170478000Y-63146677D01*
X163746000Y-62946677D02*
X170254000Y-62946677D01*
X163360000Y-63306677D02*
X165759000Y-63306677D01*
X168241000Y-63946677D02*
X171166000Y-63946677D01*
X163439000Y-63226677D02*
X165759000Y-63226677D01*
X162862000Y-63906677D02*
X165759000Y-63906677D01*
X162834000Y-63946677D02*
X165759000Y-63946677D01*
X168241000Y-64026677D02*
X171221000Y-64026677D01*
X161920000Y-66787677D02*
X172080000Y-66787677D01*
X168241000Y-65426677D02*
X171874000Y-65426677D01*
X163321000Y-63346677D02*
X165759000Y-63346677D01*
X163284000Y-63386677D02*
X165759000Y-63386677D01*
X162262000Y-65026677D02*
X165759000Y-65026677D01*
X163480000Y-63186677D02*
X165759000Y-63186677D01*
X162379000Y-64746677D02*
X165759000Y-64746677D01*
X168241000Y-63586677D02*
X170892000Y-63586677D01*
X164490000Y-62426677D02*
X169510000Y-62426677D01*
X162920000Y-63826677D02*
X165759000Y-63826677D01*
X163653000Y-63026677D02*
X170347000Y-63026677D01*
X164055000Y-62706677D02*
X169945000Y-62706677D01*
X168241000Y-64386677D02*
X171440000Y-64386677D01*
X168241000Y-65346677D02*
X171850000Y-65346677D01*
X161976000Y-66106677D02*
X172024000Y-66106677D01*
X162560000Y-64386677D02*
X165759000Y-64386677D01*
X164291000Y-62546677D02*
X169709000Y-62546677D01*
X168241000Y-65546677D02*
X171907000Y-65546677D01*
X168241000Y-64306677D02*
X171395000Y-64306677D01*
X165370000Y-62026677D02*
X168630000Y-62026677D01*
X163075000Y-63626677D02*
X165759000Y-63626677D01*
X168241000Y-63706677D02*
X170989000Y-63706677D01*
X168241000Y-65266677D02*
X171824000Y-65266677D01*
X162246000Y-65066677D02*
X165759000Y-65066677D01*
X162044000Y-65746677D02*
X171956000Y-65746677D01*
X164230000Y-62586677D02*
X169770000Y-62586677D01*
X168241000Y-64346677D02*
X171417000Y-64346677D01*
X163608000Y-63066677D02*
X170392000Y-63066677D01*
X168241000Y-63226677D02*
X170561000Y-63226677D01*
X168241000Y-63906677D02*
X171138000Y-63906677D01*
X168241000Y-65226677D02*
X171811000Y-65226677D01*
X162727000Y-64106677D02*
X165759000Y-64106677D01*
X168241000Y-63506677D02*
X170824000Y-63506677D01*
X168241000Y-64426677D02*
X171462000Y-64426677D01*
X162082000Y-65586677D02*
X165759000Y-65586677D01*
X168241000Y-65186677D02*
X171797000Y-65186677D01*
X162018000Y-65866677D02*
X171982000Y-65866677D01*
X162416000Y-64666677D02*
X165759000Y-64666677D01*
X161925000Y-66627677D02*
X172075000Y-66627677D01*
X162436000Y-64626677D02*
X165759000Y-64626677D01*
X162176000Y-65266677D02*
X165759000Y-65266677D01*
X168241000Y-65066677D02*
X171754000Y-65066677D01*
X168241000Y-63666677D02*
X170957000Y-63666677D01*
X168241000Y-64266677D02*
X171371000Y-64266677D01*
X168241000Y-64986677D02*
X171723000Y-64986677D01*
X168241000Y-64186677D02*
X171323000Y-64186677D01*
X161935000Y-66467677D02*
X172065000Y-66467677D01*
X162496000Y-64506677D02*
X165759000Y-64506677D01*
X172120000Y-66867677D02*
G75*
G03*
X172120000Y-66867677I-5120000J0D01*
G01*
%TO.C,C27*%
X149290000Y-84340580D02*
X149290000Y-84059420D01*
X150310000Y-84340580D02*
X150310000Y-84059420D01*
%TO.C,U7*%
X142900000Y-78690000D02*
X146760000Y-78690000D01*
X146760000Y-88955000D02*
X148575000Y-88955000D01*
X142900000Y-89210000D02*
X146760000Y-89210000D01*
X142900000Y-78690000D02*
X139040000Y-78690000D01*
X146760000Y-78690000D02*
X146760000Y-78945000D01*
X139040000Y-78690000D02*
X139040000Y-78945000D01*
X146760000Y-89210000D02*
X146760000Y-88955000D01*
X142900000Y-89210000D02*
X139040000Y-89210000D01*
X139040000Y-89210000D02*
X139040000Y-88955000D01*
%TO.C,R1*%
X83262742Y-104422500D02*
X83737258Y-104422500D01*
X83262742Y-103377500D02*
X83737258Y-103377500D01*
%TO.C,C21*%
X116999420Y-98640000D02*
X117280580Y-98640000D01*
X116999420Y-99660000D02*
X117280580Y-99660000D01*
D15*
%TO.C,SW5*%
X173407500Y-118335000D02*
X180350000Y-118335000D01*
X171700000Y-127770000D02*
X171700000Y-125667500D01*
X180350000Y-118335000D02*
X180350000Y-124505000D01*
X171700000Y-117172500D02*
X171700000Y-115070000D01*
X171700000Y-115070000D02*
X160707500Y-115070000D01*
X160707500Y-127770000D02*
X171700000Y-127770000D01*
X171700000Y-120587500D02*
X171700000Y-122252500D01*
X180350000Y-124505000D02*
X173407500Y-124505000D01*
D16*
X159100000Y-114320000D02*
G75*
G03*
X159100000Y-114320000I-100000J0D01*
G01*
D14*
%TO.C,C32*%
X152459420Y-86290000D02*
X152740580Y-86290000D01*
X152459420Y-87310000D02*
X152740580Y-87310000D01*
%TO.C,R9*%
X83262742Y-56522500D02*
X83737258Y-56522500D01*
X83262742Y-55477500D02*
X83737258Y-55477500D01*
%TO.C,R5*%
X99512742Y-101377500D02*
X99987258Y-101377500D01*
X99512742Y-102422500D02*
X99987258Y-102422500D01*
%TO.C,C31*%
X99859420Y-95890000D02*
X100140580Y-95890000D01*
X99859420Y-96910000D02*
X100140580Y-96910000D01*
%TO.C,C9*%
X79488748Y-68485000D02*
X80011252Y-68485000D01*
X79488748Y-67015000D02*
X80011252Y-67015000D01*
%TO.C,C11*%
X127510000Y-108540580D02*
X127510000Y-108259420D01*
X126490000Y-108540580D02*
X126490000Y-108259420D01*
D15*
%TO.C,J3*%
X173970000Y-45620000D02*
X173970000Y-60380000D01*
X173970000Y-60380000D02*
X159620000Y-60380000D01*
X159620000Y-60380000D02*
X159620000Y-45620000D01*
X159620000Y-45620000D02*
X173970000Y-45620000D01*
D16*
X158950000Y-53000000D02*
G75*
G03*
X158950000Y-53000000I-100000J0D01*
G01*
D14*
%TO.C,R6*%
X99512742Y-99477500D02*
X99987258Y-99477500D01*
X99512742Y-100522500D02*
X99987258Y-100522500D01*
%TO.C,SW3*%
X98230000Y-119770000D02*
X98230000Y-119800000D01*
X91770000Y-119800000D02*
X91770000Y-119770000D01*
X91770000Y-121700000D02*
X91770000Y-124300000D01*
X91770000Y-126230000D02*
X98230000Y-126230000D01*
X91770000Y-119770000D02*
X98230000Y-119770000D01*
X98230000Y-126230000D02*
X98230000Y-126200000D01*
X98230000Y-121700000D02*
X98230000Y-124300000D01*
X91770000Y-126230000D02*
X91770000Y-126200000D01*
%TO.C,Q2*%
X93975000Y-56750000D02*
X94475000Y-56750000D01*
X94901400Y-57323600D02*
X94685139Y-57323600D01*
X94901400Y-60676400D02*
X94901400Y-57323600D01*
X91764861Y-57323600D02*
X91548600Y-57323600D01*
X91548600Y-60676400D02*
X91764861Y-60676400D01*
X91548600Y-57323600D02*
X91548600Y-60676400D01*
X94685139Y-60676400D02*
X94901400Y-60676400D01*
%TO.C,L1*%
X150000000Y-44750000D02*
X150000000Y-48250000D01*
X146000000Y-44750000D02*
X150000000Y-44750000D01*
X149500000Y-45250000D02*
X129000000Y-45250000D01*
X129000000Y-45250000D02*
X129000000Y-75250000D01*
X129000000Y-75250000D02*
X149500000Y-75250000D01*
X149500000Y-75250000D02*
X149500000Y-45250000D01*
%TO.C,C2*%
X115260000Y-53859420D02*
X115260000Y-54140580D01*
X114240000Y-53859420D02*
X114240000Y-54140580D01*
%TO.C,JP3*%
X101950000Y-92000000D02*
X100550000Y-92000000D01*
X99850000Y-91300000D02*
X99850000Y-90700000D01*
X102650000Y-90700000D02*
X102650000Y-91300000D01*
X100550000Y-90000000D02*
X101950000Y-90000000D01*
X102650000Y-90700000D02*
G75*
G03*
X101950000Y-90000000I-700000J0D01*
G01*
X101950000Y-92000000D02*
G75*
G03*
X102650000Y-91300000I0J700000D01*
G01*
X100550000Y-90000000D02*
G75*
G03*
X99850000Y-90700000I-1J-699999D01*
G01*
X99850000Y-91300000D02*
G75*
G03*
X100550000Y-92000000I699999J-1D01*
G01*
%TO.C,R15*%
X120977500Y-50512742D02*
X120977500Y-50987258D01*
X122022500Y-50512742D02*
X122022500Y-50987258D01*
%TO.C,J1*%
X73290000Y-50420000D02*
X73290000Y-59580000D01*
X78215000Y-59580000D02*
X77360000Y-59580000D01*
X78215000Y-50420000D02*
X77360000Y-50420000D01*
X74240000Y-50420000D02*
X73290000Y-50420000D01*
X74240000Y-59580000D02*
X73290000Y-59580000D01*
%TO.C,R11*%
X105637258Y-65077500D02*
X105162742Y-65077500D01*
X105637258Y-66122500D02*
X105162742Y-66122500D01*
%TO.C,C29*%
X134284420Y-83940000D02*
X134565580Y-83940000D01*
X134284420Y-84960000D02*
X134565580Y-84960000D01*
%TO.C,R3*%
X83262742Y-102422500D02*
X83737258Y-102422500D01*
X83262742Y-101377500D02*
X83737258Y-101377500D01*
%TO.C,SW1*%
X112230000Y-126230000D02*
X112230000Y-126200000D01*
X112230000Y-119770000D02*
X112230000Y-119800000D01*
X105770000Y-119800000D02*
X105770000Y-119770000D01*
X112230000Y-121700000D02*
X112230000Y-124300000D01*
X105770000Y-126230000D02*
X105770000Y-126200000D01*
X105770000Y-126230000D02*
X112230000Y-126230000D01*
X105770000Y-119770000D02*
X112230000Y-119770000D01*
X105770000Y-121700000D02*
X105770000Y-124300000D01*
%TO.C,C33*%
X83640580Y-96510000D02*
X83359420Y-96510000D01*
X83640580Y-95490000D02*
X83359420Y-95490000D01*
%TO.C,JP2*%
X83800000Y-91750000D02*
X82400000Y-91750000D01*
X81700000Y-91050000D02*
X81700000Y-90450000D01*
X82400000Y-89750000D02*
X83800000Y-89750000D01*
X84500000Y-90450000D02*
X84500000Y-91050000D01*
X83800000Y-91750000D02*
G75*
G03*
X84500000Y-91050000I0J700000D01*
G01*
X84500000Y-90450000D02*
G75*
G03*
X83800000Y-89750000I-700000J0D01*
G01*
X82400000Y-89750000D02*
G75*
G03*
X81700000Y-90450000I-1J-699999D01*
G01*
X81700000Y-91050000D02*
G75*
G03*
X82400000Y-91750000I699999J-1D01*
G01*
%TO.C,C24*%
X96490000Y-109109420D02*
X96490000Y-109390580D01*
X97510000Y-109109420D02*
X97510000Y-109390580D01*
%TO.C,D2*%
X157150000Y-75650000D02*
X157150000Y-72350000D01*
X157150000Y-75650000D02*
X151750000Y-75650000D01*
X157150000Y-72350000D02*
X151750000Y-72350000D01*
%TO.C,C25*%
X152459420Y-82440000D02*
X152740580Y-82440000D01*
X152459420Y-83460000D02*
X152740580Y-83460000D01*
%TO.C,R18*%
X96477500Y-114162742D02*
X96477500Y-114637258D01*
X97522500Y-114162742D02*
X97522500Y-114637258D01*
%TO.C,C7*%
X95359420Y-54490000D02*
X95640580Y-54490000D01*
X95359420Y-55510000D02*
X95640580Y-55510000D01*
%TO.C,C17*%
X116999420Y-100640000D02*
X117280580Y-100640000D01*
X116999420Y-101660000D02*
X117280580Y-101660000D01*
%TO.C,MOD1*%
X74750000Y-68500000D02*
X74750000Y-72000000D01*
X78250000Y-68500000D02*
X74750000Y-68500000D01*
X75250000Y-69000000D02*
X89250000Y-69000000D01*
X89250000Y-69000000D02*
X89250000Y-83000000D01*
X89250000Y-83000000D02*
X75250000Y-83000000D01*
X75250000Y-83000000D02*
X75250000Y-69000000D01*
%TO.C,C8*%
X88265000Y-58238748D02*
X88265000Y-58761252D01*
X89735000Y-58238748D02*
X89735000Y-58761252D01*
%TO.C,R7*%
X105162742Y-64522500D02*
X105637258Y-64522500D01*
X105162742Y-63477500D02*
X105637258Y-63477500D01*
D13*
%TO.C,U4*%
X112325000Y-47075000D02*
X112625000Y-47075000D01*
X115675000Y-47075000D02*
X115675000Y-50425000D01*
X115450000Y-47075000D02*
X115450000Y-45850000D01*
X112325000Y-50425000D02*
X112625000Y-50425000D01*
X115675000Y-50425000D02*
X115375000Y-50425000D01*
X115675000Y-47075000D02*
X115450000Y-47075000D01*
X112325000Y-47075000D02*
X112325000Y-50425000D01*
D14*
%TO.C,R13*%
X119022500Y-47237258D02*
X119022500Y-46762742D01*
X117977500Y-47237258D02*
X117977500Y-46762742D01*
%TO.C,C5*%
X118015000Y-58738748D02*
X118015000Y-59261252D01*
X119485000Y-58738748D02*
X119485000Y-59261252D01*
%TO.C,C10*%
X90760000Y-81140580D02*
X90760000Y-80859420D01*
X89740000Y-81140580D02*
X89740000Y-80859420D01*
%TO.C,R21*%
X135672500Y-87187258D02*
X135672500Y-86712742D01*
X134627500Y-87187258D02*
X134627500Y-86712742D01*
%TO.C,C14*%
X126490000Y-100459420D02*
X126490000Y-100740580D01*
X127510000Y-100459420D02*
X127510000Y-100740580D01*
%TO.C,U3*%
X90000000Y-50765000D02*
X87800000Y-50765000D01*
X90000000Y-50765000D02*
X92200000Y-50765000D01*
X90000000Y-56235000D02*
X87800000Y-56235000D01*
X90000000Y-56235000D02*
X93600000Y-56235000D01*
%TO.C,J2*%
X78215000Y-105980000D02*
X77360000Y-105980000D01*
X74240000Y-96820000D02*
X73290000Y-96820000D01*
X78215000Y-96820000D02*
X77360000Y-96820000D01*
X74240000Y-105980000D02*
X73290000Y-105980000D01*
X73290000Y-96820000D02*
X73290000Y-105980000D01*
D15*
%TO.C,SW4*%
X171700000Y-97752500D02*
X171700000Y-95650000D01*
X171700000Y-101167500D02*
X171700000Y-102832500D01*
X180350000Y-98915000D02*
X180350000Y-105085000D01*
X171700000Y-108350000D02*
X171700000Y-106247500D01*
X173407500Y-98915000D02*
X180350000Y-98915000D01*
X180350000Y-105085000D02*
X173407500Y-105085000D01*
X160707500Y-108350000D02*
X171700000Y-108350000D01*
X171700000Y-95650000D02*
X160707500Y-95650000D01*
D16*
X159100000Y-94900000D02*
G75*
G03*
X159100000Y-94900000I-100000J0D01*
G01*
D14*
%TO.C,Y1*%
X120250000Y-111150000D02*
X120250000Y-109900000D01*
X121500000Y-111150000D02*
X120250000Y-111150000D01*
X120650000Y-110750000D02*
X125350000Y-110750000D01*
X125350000Y-110750000D02*
X125350000Y-98050000D01*
X125350000Y-98050000D02*
X120650000Y-98050000D01*
X120650000Y-98050000D02*
X120650000Y-110750000D01*
%TO.C,C26*%
X152740580Y-88910000D02*
X152459420Y-88910000D01*
X152740580Y-87890000D02*
X152459420Y-87890000D01*
%TO.C,JP1*%
X88230000Y-90450000D02*
X88230000Y-91050000D01*
X87530000Y-91750000D02*
X86130000Y-91750000D01*
X86130000Y-89750000D02*
X87530000Y-89750000D01*
X85430000Y-91050000D02*
X85430000Y-90450000D01*
X86130000Y-89750000D02*
G75*
G03*
X85430000Y-90450000I-1J-699999D01*
G01*
X88230000Y-90450000D02*
G75*
G03*
X87530000Y-89750000I-700000J0D01*
G01*
X87530000Y-91750000D02*
G75*
G03*
X88230000Y-91050000I0J700000D01*
G01*
X85430000Y-91050000D02*
G75*
G03*
X86130000Y-91750000I699999J-1D01*
G01*
%TO.C,C4*%
X113515000Y-58738748D02*
X113515000Y-59261252D01*
X114985000Y-58738748D02*
X114985000Y-59261252D01*
%TO.C,C28*%
X134259420Y-82190000D02*
X134540580Y-82190000D01*
X134259420Y-83210000D02*
X134540580Y-83210000D01*
%TO.C,C13*%
X110990000Y-96290580D02*
X110990000Y-96009420D01*
X112010000Y-96290580D02*
X112010000Y-96009420D01*
%TO.C,R10*%
X83262742Y-49477500D02*
X83737258Y-49477500D01*
X83262742Y-50522500D02*
X83737258Y-50522500D01*
%TD*%
M02*
